<svg xmlns="http://www.w3.org/2000/svg" xmlns:xlink="http://www.w3.org/1999/xlink" viewBox="0 0 580.25 813.95"><defs><style>.cls-1{fill:url(#linear-gradient);}.cls-2{fill:url(#linear-gradient-2);}.cls-3{fill:url(#linear-gradient-3);}.cls-4{fill:url(#linear-gradient-4);}.cls-5{fill:url(#linear-gradient-5);}.cls-6{fill:url(#linear-gradient-6);}.cls-7{fill:url(#linear-gradient-7);}.cls-8{fill:url(#linear-gradient-8);}.cls-9{fill:url(#linear-gradient-9);}.cls-10{fill:url(#linear-gradient-10);}.cls-11{fill:url(#linear-gradient-11);}.cls-12{fill:#3994d1;}</style><linearGradient id="linear-gradient" x1="179.97" y1="290.68" x2="309.83" y2="246.97" gradientTransform="translate(0.03 -0.08) rotate(0.02)" gradientUnits="userSpaceOnUse"><stop offset="0.09" stop-color="#4286c6"/><stop offset="0.31" stop-color="#3e99d3"/><stop offset="0.75" stop-color="#38b7ea"/><stop offset="1" stop-color="#36c3f2"/></linearGradient><linearGradient id="linear-gradient-2" x1="225.34" y1="142.45" x2="296.39" y2="118.53" xlink:href="#linear-gradient"/><linearGradient id="linear-gradient-3" x1="159.36" y1="188.26" x2="185.68" y2="179.4" xlink:href="#linear-gradient"/><linearGradient id="linear-gradient-4" x1="231.06" y1="436.37" x2="250.39" y2="429.86" xlink:href="#linear-gradient"/><linearGradient id="linear-gradient-5" x1="313.93" y1="436.03" x2="333.26" y2="429.53" xlink:href="#linear-gradient"/><linearGradient id="linear-gradient-6" x1="-128.65" y1="399.78" x2="403.41" y2="220.71" xlink:href="#linear-gradient"/><linearGradient id="linear-gradient-7" x1="115.91" y1="638.3" x2="237.96" y2="638.3" gradientTransform="translate(0.03 -0.08) rotate(0.02)" gradientUnits="userSpaceOnUse"><stop offset="0.09" stop-color="#3ac0f0"/><stop offset="1" stop-color="#36c3f2"/></linearGradient><linearGradient id="linear-gradient-8" x1="252.09" y1="622.93" x2="277.56" y2="622.93" xlink:href="#linear-gradient-7"/><linearGradient id="linear-gradient-9" x1="285.11" y1="624.65" x2="327.2" y2="624.65" xlink:href="#linear-gradient-7"/><linearGradient id="linear-gradient-10" x1="333.21" y1="638.3" x2="375.96" y2="638.3" xlink:href="#linear-gradient-7"/><linearGradient id="linear-gradient-11" x1="382.19" y1="639.33" x2="464.62" y2="639.33" xlink:href="#linear-gradient-7"/></defs><g id="Layer_2" data-name="Layer 2"><g id="Layer_1-2" data-name="Layer 1"><polygon class="cls-1" points="312.64 279.22 250.55 183.68 224.05 183.67 224 328.84 251.64 328.85 251.66 233.61 313.68 328.86 340.26 328.87 340.3 183.7 312.67 183.69 312.64 279.22"/><path class="cls-2" d="M304.5,146.68h20.43l-.17-3.67c0-2.53,0-5.06,0-7.59.07-6.81.14-13.24-1-18.88-3.07-14.63-13.55-25.5-25.48-26.44-3.51-.27-7.36-.41-11.78-.41-4.95,0-9.89.16-15.13.33h-.55c-3.3.11-6.62,1.37-10.14,3.86-8.82,6.24-13.75,14.7-15.08,25.87-.63,5.27-.77,10.85-.91,16.77-.06,2.78-.13,5.57-.25,8.35l-.58,1.77,56.5,0Z"/><path class="cls-3" d="M161.92,156h0c-2.52,3.81-1.87,7.91-.89,11.93,2,8.23,4.92,16.46,7,24.65.75,2.47,5,18,6.58,22.25l-8-38.52c-1.88-12.23.56-15.91,12.7-18.91l8.92-1.59C179.38,155.49,164.38,153.36,161.92,156Z"/><path class="cls-4" d="M257.84,431.23a11.65,11.65,0,1,0-11.65,11.65A11.65,11.65,0,0,0,257.84,431.23Z"/><circle class="cls-5" cx="329.06" cy="430.92" r="11.65"/><path class="cls-6" d="M484.66.11h0a78.86,78.86,0,0,0-78.88,78.83v7.14a118.7,118.7,0,0,0-114-86h0A118.69,118.69,0,0,0,174.56,99.7V78.88A78.86,78.86,0,0,0,95.73,0h0A78.86,78.86,0,0,0,16.85,78.84l-.1,359.83a78.86,78.86,0,0,0,78.84,78.88h0a78.86,78.86,0,0,0,78.88-78.84v-1.12a38.88,38.88,0,0,1-14.61-22c-2.79-10.66-2-21,3.81-30.72.35-.42.66-.86,1-1.29-7.45-10.92-9.13-24-12.73-36.25-15.61-53.07-30.65-106.31-46-159.46-3-10.53-5.37-21.3-9.52-31.51v-3.76c8.4-10.53,15.77-12.54,24.36-6.76a13.73,13.73,0,0,1,5.73,7.88q27.14,95,54.29,189.92c1.19,4.18,3,8.18,4.53,12.27h0c5.37,7,12.62,9.95,21.28,9.95q72.12,0,144.24,0c13.54,0,21.4-5.94,25.18-19,24.68-85.35,49.52-170.66,73.74-256.14,4.05-14.28,10.71-24.52,25.49-28.34l74,0c5.89,5.2,10.26,11,7.55,19.5-1.67,5.22-4.52,8.36-10.82,8.21-15.67-.38-31.36-.16-47-.12-12.88,0-21,5.84-24.59,18.06q-30.43,105.18-60.68,210.41c-5.08,17.64-10.06,35.3-15.31,52.89-4.26,14.31-14.79,22-29.78,22q-82.16,0-164.31,0c-2.69,0-5.37-.15-8,.82-5.67,2.07-8.86,6.44-8.26,11.78a11.39,11.39,0,0,0,11.06,10c6.6.23,13.21,0,19.82,0a31.34,31.34,0,0,1,54.79,0l27.35.26c.1-.28.21-.56,0,0,4.53-11.74,14.74-16.71,28.08-16.71a31.38,31.38,0,0,1,27.64,16.56c8.07,0,16.15-.12,24.23,0,11.71.12,18.75,11.57,13.64,22-2.12,4.32-5.21,6.65-10.33,6.57-9.05-.14-18.1.13-27.15.25a31.32,31.32,0,0,1-56.61-1.09c.12.28.22.57.34.86l-26.46.25a31.31,31.31,0,0,1-56.11.52c-13.45,2.38-26.76,1.19-37.45-4.06A118.66,118.66,0,0,0,291.58,517.6h0a118.69,118.69,0,0,0,114.1-86v7.14a78.86,78.86,0,0,0,78.84,78.88h0a78.86,78.86,0,0,0,78.87-78.84L563.49,79A78.85,78.85,0,0,0,484.66.11Zm-68,170h0c-3.21,16.32-8.71,32-13.22,48-11.33,40.12-23.1,80.11-34.65,120.17-3.24,11.24-10.47,17.17-22.28,17.2q-64.27.15-128.55-.09c-9.42-.05-17.63-3.22-21.06-13.31Q182,290.52,167,239q-9.63-33.33-19.11-66.69c-4.07-14.41,4.73-26,19.8-26.08,19-.09,38,0,57,.05.67,0,.49,0,.67,0,.37-8.83.21-16.76,1.25-25.51C228.52,105,235.84,92,249,82.66a36.08,36.08,0,0,1,19.74-7.09c9.8-.31,19.66-.65,29.41.12,20,1.57,36.7,18.31,41.33,40.37,2.08,9.91,1.27,19.92,1.38,29.9,18.71.09,37.43.13,56.14.32C410.8,146.41,420,157.6,416.68,170.09Z"/><path class="cls-7" d="M115.78,599.45h20v9.15a34.16,34.16,0,0,1,11.4-8.42,33.33,33.33,0,0,1,13.66-2.78,25.51,25.51,0,0,1,13.48,3.67A26.38,26.38,0,0,1,184,611.77a32.34,32.34,0,0,1,11.69-10.69,32,32,0,0,1,15.13-3.65,28,28,0,0,1,14.94,4A22.78,22.78,0,0,1,235,611.71q2.82,6.38,2.81,20.72v46.71H217.67V638.72q0-13.54-3.36-18.34t-10.11-4.8a15.32,15.32,0,0,0-9.18,2.93A17.26,17.26,0,0,0,189,626.6q-2,5.16-2,16.58v36H166.86V640.54q0-10.69-1.57-15.49a14.1,14.1,0,0,0-4.74-7.14,12.43,12.43,0,0,0-7.63-2.34,15,15,0,0,0-9.06,3,17.73,17.73,0,0,0-6.1,8.31q-2,5.34-2,16.84v35.43h-20Z"/><path class="cls-8" d="M264.66,566.69a12.22,12.22,0,0,1,9,3.81,12.69,12.69,0,0,1,3.76,9.23,12.5,12.5,0,0,1-3.73,9.11,12.05,12.05,0,0,1-8.91,3.77,12.2,12.2,0,0,1-9.08-3.85,12.83,12.83,0,0,1-3.76-9.33,12.74,12.74,0,0,1,12.7-12.74Zm-10,32.8h20l0,79.65h-20Z"/><path class="cls-9" d="M295.23,570.14h20v29.36h11.86v17.2H315.2v62.45h-20l0-62.45H285V599.5h10.25Z"/><path class="cls-10" d="M333.07,599.51h17.14v10a21.39,21.39,0,0,1,7.4-9,17.84,17.84,0,0,1,10.1-3.07,18.79,18.79,0,0,1,8.13,2l-6.23,17.21a13.62,13.62,0,0,0-5.78-1.76q-4.62,0-7.8,5.71t-3.19,22.4l.07,3.88v32.21H333.05Z"/><path class="cls-11" d="M444.51,599.54h20l0,79.65h-20v-8.42a39.24,39.24,0,0,1-11.74,8A32.8,32.8,0,0,1,420,681.24q-15.42,0-26.68-12T382,639.5q0-18.45,10.91-30.23t26.47-11.78a33.62,33.62,0,0,1,13.46,2.71,36.83,36.83,0,0,1,11.62,8.13Zm-21,16.4a20.16,20.16,0,0,0-15.4,6.55Q402,629,402,639.29t6.23,17a20.2,20.2,0,0,0,15.36,6.67,20.57,20.57,0,0,0,15.61-6.55q6.21-6.55,6.21-17.17,0-10.4-6.2-16.84A20.85,20.85,0,0,0,423.49,615.94Z"/><path class="cls-12" d="M0,704.06H19.69l46.07,70.88,0-70.87H86.27l0,107.7H66.52l-46-70.66,0,70.65H0Z"/><path class="cls-12" d="M167.46,732.14h20l0,79.65h-20v-8.42a39,39,0,0,1-11.74,8,32.75,32.75,0,0,1-12.76,2.45q-15.43,0-26.69-12T105,772.1q0-18.45,10.9-30.23t26.48-11.78a33.53,33.53,0,0,1,13.45,2.71,36.87,36.87,0,0,1,11.63,8.13Zm-21,16.4a20.21,20.21,0,0,0-15.4,6.54q-6.14,6.55-6.14,16.81t6.24,17a20.16,20.16,0,0,0,15.35,6.67A20.58,20.58,0,0,0,162.12,789q6.21-6.54,6.21-17.17,0-10.4-6.2-16.84A20.85,20.85,0,0,0,146.45,748.54Z"/><path class="cls-12" d="M204.29,732.15l61,0-35.8,62.73h33.74v16.91H198.77l36-62.74H204.28Z"/><path class="cls-12" d="M335.41,732.19h20l0,79.66h-20v-8.41a39.17,39.17,0,0,1-11.74,8,32.93,32.93,0,0,1-12.76,2.45q-15.42,0-26.69-12T273,772.15q0-18.45,10.9-30.24t26.48-11.78a33.54,33.54,0,0,1,13.45,2.72A36.67,36.67,0,0,1,335.41,741Zm-21,16.39a20.22,20.22,0,0,0-15.4,6.55q-6.13,6.55-6.14,16.8t6.24,17a20.22,20.22,0,0,0,15.36,6.67A20.61,20.61,0,0,0,330.07,789q6.21-6.56,6.21-17.17,0-10.39-6.2-16.84A20.86,20.86,0,0,0,314.4,748.58Z"/><path class="cls-12" d="M370.92,732.2h17.13v10a21.35,21.35,0,0,1,7.4-9,17.81,17.81,0,0,1,10.1-3.07,18.65,18.65,0,0,1,8.13,2.05l-6.23,17.2a13.72,13.72,0,0,0-5.78-1.75q-4.62,0-7.8,5.7t-3.2,22.41l.08,3.88v32.21H370.9Z"/><path class="cls-12" d="M434.45,791a11.16,11.16,0,0,1,8.13,3.33,11.5,11.5,0,1,1-16.25,0A11.12,11.12,0,0,1,434.45,791Z"/><path class="cls-12" d="M473.32,699.43a12.2,12.2,0,0,1,9,3.81,12.63,12.63,0,0,1,3.76,9.22,12.48,12.48,0,0,1-3.73,9.12,12,12,0,0,1-8.9,3.76,12.23,12.23,0,0,1-9.09-3.84,12.85,12.85,0,0,1-3.76-9.34,12.74,12.74,0,0,1,12.71-12.73Zm-10,32.79h20l0,79.66h-20Z"/><path class="cls-12" d="M560.26,701.5h20l0,110.4h-20v-8.42a39,39,0,0,1-11.74,8A32.93,32.93,0,0,1,535.73,814Q520.3,814,509,802t-11.25-29.76q0-18.45,10.9-30.24t26.48-11.78a33.75,33.75,0,0,1,13.45,2.72A36.55,36.55,0,0,1,560.25,741Zm-21,47.15a20.17,20.17,0,0,0-15.39,6.54q-6.14,6.55-6.14,16.8t6.24,17a20.16,20.16,0,0,0,15.35,6.67,20.59,20.59,0,0,0,15.62-6.55q6.21-6.55,6.21-17.17,0-10.39-6.2-16.84A20.85,20.85,0,0,0,539.23,748.65Z"/></g></g></svg>