<?xml version="1.0" encoding="utf-8"?>
<!-- Generator: Adobe Illustrator 23.0.5, SVG Export Plug-In . SVG Version: 6.00 Build 0)  -->
<svg version="1.1" id="Layer_1" xmlns="http://www.w3.org/2000/svg" xmlns:xlink="http://www.w3.org/1999/xlink" x="0px" y="0px"
	 viewBox="0 0 883 355" style="enable-background:new 0 0 883 355;" xml:space="preserve">
<style type="text/css">
	.st0{fill:#1D4483;}
	.st1{opacity:0.6;fill:url(#SVGID_1_);}
	.st2{opacity:0.6;fill:url(#SVGID_2_);}
	.st3{fill:#F9C113;}
	.st4{font-family:'Montserrat-Bold';}
	.st5{font-size:40.7597px;}
</style>
<g>
	<path class="st0" d="M447.11,95.51c-0.04,0-0.07-0.01-0.11-0.01v0.02c-3.73,0.38-13.51,3.17-25.67,8.09
		c-12.26,4.96-24.29,6.75-34.35,9.47c-9.99,2.7-8.15,15.38-8.15,15.38s3.75,51.24,5.28,59.69c7.29,40.31,62.17,72.5,62.17,72.5h0.01
		c0,0,55.66-31.5,63.17-72.36c1.58-8.58,5.45-60.72,5.45-60.72s1.9-12.93-8.42-15.5c-10.35-2.58-22.64-4.17-35.1-8.94
		c-12.27-4.69-20.49-7.3-24.16-7.6V95.5C447.19,95.5,447.15,95.51,447.11,95.51z"/>
	<linearGradient id="SVGID_1_" gradientUnits="userSpaceOnUse" x1="377.7191" y1="185.4778" x2="505.8445" y2="185.4778">
		<stop  offset="0" style="stop-color:#0F1A2B"/>
		<stop  offset="1" style="stop-color:#1D4483"/>
	</linearGradient>
	<path class="st1" d="M505.84,199.01c-16.98-42.26-52.47-75.46-96.78-90.16c-8.23,2.33-16.12,3.82-23.06,5.7
		c-9.99,2.7-8.15,15.38-8.15,15.38s3.75,51.24,5.28,59.69c7.29,40.31,62.17,72.5,62.17,72.5h0.01
		C445.31,262.11,492.62,235.26,505.84,199.01z"/>
	<path class="st0" d="M446.21,75.73c-0.05,0-0.1-0.01-0.15-0.01v0.02c-5.05,0.5-18.26,4.11-34.66,10.42
		c-16.54,6.36-32.73,8.69-46.27,12.19c-13.44,3.47-10.96,19.58-10.96,19.58s5.04,65.17,7.09,75.91c9.8,51.3,83.82,92.54,83.82,92.54
		h0.02c0,0,75.44-40,85.65-92.26c2.14-10.97,7.42-77.69,7.42-77.69s2.59-16.55-11.46-19.8c-14.06-3.26-30.74-5.25-47.64-11.29
		c-16.62-5.94-27.74-9.24-32.71-9.6v-0.02C446.31,75.72,446.25,75.72,446.21,75.73z M472.89,99.68c12.94,4.65,25.46,7.09,36.53,9.25
		c0,0,10.01,2.43,11.74,2.8c0,0,0.42-0.06,0.3,2.73c-0.02,0.43-0.07,0.49-0.11,0.98c-2,25.44-5.72,68.53-7.16,75.92
		c-4.39,22.49-24.73,43.28-40.96,56.7c-10.75,8.9-21.22,15.84-28.16,20.12c-6.8-4.35-16.97-11.32-27.5-20.22
		c-16.12-13.63-36.14-34.49-40.41-56.78c-1.39-7.27-4.98-49.55-6.91-74.49c-0.04-0.48-0.03-0.54-0.11-0.96
		c-0.09-0.94-0.01-2.19,0.18-3.05c3.54-0.88,7.39-1.71,11.44-2.59c10.76-2.33,22.98-4.98,35.69-9.84
		c14.32-5.48,24.52-8.24,28.63-9.05C448.76,91.74,455.82,93.55,472.89,99.68z"/>
	<linearGradient id="SVGID_2_" gradientUnits="userSpaceOnUse" x1="354.2214" y1="193.5414" x2="514.4309" y2="193.5414">
		<stop  offset="0" style="stop-color:#0F1A2B"/>
		<stop  offset="1" style="stop-color:#1D4483"/>
	</linearGradient>
	<path class="st2" d="M514.43,229.06c-1.33-7.54-3.21-14.89-5.61-22.02c-8.26,16.3-22.99,30.85-35.37,41.09
		c-10.75,8.9-21.22,15.84-28.16,20.12c-6.8-4.35-16.97-11.32-27.5-20.22c-16.12-13.63-36.14-34.49-40.41-56.78
		c-1.39-7.27-4.98-49.55-6.91-74.49c-0.04-0.48-0.03-0.54-0.11-0.96c-0.09-0.94-0.01-2.19,0.18-3.05c3.54-0.88,7.39-1.71,11.44-2.59
		c5.54-1.2,11.48-2.5,17.66-4.12c-12.48-3.31-25.58-5.17-39.08-5.39c-7.93,5.57-6.19,17.35-6.19,17.35s5.04,65.17,7.09,75.91
		c9.8,51.3,83.82,92.54,83.82,92.54h0.02C445.31,286.44,489.06,263.22,514.43,229.06z"/>
	<text transform="matrix(1 0 0 1 403.2578 200.8545)" class="st3 st4 st5">bpjs</text>
</g>
</svg>
