<?xml version="1.0" encoding="utf-8"?>
<!-- Generator: Adobe Illustrator 23.0.5, SVG Export Plug-In . SVG Version: 6.00 Build 0)  -->
<svg version="1.1" id="Layer_1" xmlns="http://www.w3.org/2000/svg" xmlns:xlink="http://www.w3.org/1999/xlink" x="0px" y="0px"
	 viewBox="0 0 883 355" style="enable-background:new 0 0 883 355;" xml:space="preserve">
<style type="text/css">
	.st0{fill-rule:evenodd;clip-rule:evenodd;fill:#F9C113;}
	.st1{fill-rule:evenodd;clip-rule:evenodd;fill:#F8D08C;}
	.st2{fill:#F9C113;}
	.st3{fill-rule:evenodd;clip-rule:evenodd;fill:#1B4583;}
	.st4{fill-rule:evenodd;clip-rule:evenodd;fill:url(#SVGID_1_);}
	.st5{fill-rule:evenodd;clip-rule:evenodd;fill:#FFD574;}
	.st6{fill:#F8D08C;}
	.st7{fill-rule:evenodd;clip-rule:evenodd;fill:url(#SVGID_2_);}
</style>
<g>
	<ellipse class="st0" cx="431.08" cy="225.7" rx="40.67" ry="19.24"/>
	<rect x="390.41" y="217.79" class="st0" width="81.34" height="7.91"/>
	<g>
		<path class="st0" d="M431.08,237.03c22.4,0,40.67-8.64,40.67-19.24c0-10.6-18.27-19.24-40.67-19.24
			c-22.4,0-40.67,8.64-40.67,19.24C390.41,228.39,408.68,237.03,431.08,237.03z"/>
		<path class="st1" d="M431.08,233.3c19.47,0,35.35-6.97,35.35-15.51c0-8.54-15.88-15.5-35.35-15.5c-19.47,0-35.35,6.97-35.35,15.5
			C395.73,226.33,411.61,233.3,431.08,233.3z"/>
		<path class="st2" d="M435.02,208.68c1.66,0.22,3.05,0.58,4.17,1.08c1.54,0.7,2.53,1.63,2.96,2.8l-6.25,0.39
			c-0.17-0.41-0.46-0.77-0.88-1.06V208.68L435.02,208.68z M435.02,215.94c2.83,0.46,4.83,1.02,5.99,1.67
			c1.43,0.81,2.15,1.84,2.15,3.1c0,1.41-0.9,2.6-2.7,3.56c-1.39,0.75-3.21,1.27-5.44,1.57v-2.78c0.34-0.11,0.65-0.25,0.93-0.4
			c0.78-0.44,1.16-0.94,1.16-1.53c0-0.52-0.33-0.97-0.98-1.35c-0.29-0.17-0.66-0.32-1.11-0.45V215.94z M429.35,223.31v-4.9
			c-0.56-0.08-1.09-0.16-1.59-0.25v-3.54c0.44,0.17,0.97,0.32,1.59,0.45v-4.05c-0.61,0.1-1.14,0.24-1.59,0.42v-2.85
			c0.51-0.05,1.04-0.09,1.59-0.12v-1.16h3.58v1.16c0.74,0.04,1.44,0.11,2.09,0.19v3.21c-0.51-0.36-1.21-0.63-2.09-0.81v4.57
			c0.74,0.09,1.44,0.2,2.09,0.3v3.39c-0.57-0.17-1.27-0.31-2.09-0.42v4.56c0.79-0.07,1.49-0.2,2.09-0.41v2.78
			c-0.66,0.09-1.36,0.16-2.09,0.21v2.19h-3.58v-2.13c-0.55-0.03-1.08-0.08-1.59-0.13v-3.21
			C428.26,223.01,428.79,223.19,429.35,223.31z M427.76,218.17c-2.43-0.43-4.27-1-5.52-1.74c-1.5-0.89-2.26-1.96-2.26-3.22
			c0-1.28,0.85-2.35,2.56-3.22c1.38-0.7,3.12-1.16,5.22-1.38v2.85c-0.27,0.11-0.52,0.23-0.73,0.37c-0.57,0.38-0.86,0.79-0.86,1.24
			c0,0.41,0.26,0.8,0.79,1.15c0.22,0.15,0.49,0.28,0.81,0.41V218.17L427.76,218.17z M427.76,225.99c-2.13-0.24-3.92-0.7-5.36-1.38
			c-1.78-0.84-2.91-2.03-3.41-3.56l6.45-0.33c0.26,0.62,0.76,1.16,1.48,1.61c0.26,0.17,0.54,0.31,0.83,0.45V225.99z"/>
	</g>
	<path class="st0" d="M458.5,234.7c22.4,0,40.67-8.64,40.67-19.24s-18.27-19.24-40.67-19.24c-22.4,0-40.67,8.64-40.67,19.24
		S436.1,234.7,458.5,234.7z"/>
	<rect x="417.83" y="207.55" class="st0" width="81.34" height="7.91"/>
	<g>
		<ellipse class="st0" cx="458.5" cy="207.55" rx="40.67" ry="19.24"/>
		<ellipse class="st1" cx="458.5" cy="207.55" rx="35.35" ry="15.5"/>
		<path class="st2" d="M462.44,198.44c1.66,0.22,3.05,0.57,4.17,1.08c1.54,0.7,2.53,1.63,2.96,2.8l-6.25,0.39
			c-0.17-0.41-0.46-0.77-0.88-1.06V198.44L462.44,198.44z M462.44,205.7c2.83,0.46,4.83,1.02,5.99,1.67
			c1.43,0.81,2.15,1.84,2.15,3.1c0,1.41-0.9,2.6-2.7,3.56c-1.39,0.75-3.21,1.27-5.44,1.57v-2.78c0.34-0.11,0.65-0.25,0.93-0.4
			c0.78-0.44,1.16-0.94,1.16-1.53c0-0.52-0.33-0.97-0.98-1.35c-0.29-0.17-0.66-0.32-1.11-0.45V205.7z M456.77,213.07v-4.9
			c-0.56-0.08-1.09-0.16-1.6-0.25v-3.54c0.44,0.17,0.97,0.32,1.6,0.45v-4.05c-0.61,0.1-1.14,0.24-1.6,0.42v-2.85
			c0.51-0.05,1.04-0.09,1.6-0.12v-1.16h3.58v1.16c0.74,0.04,1.44,0.11,2.09,0.19v3.21c-0.51-0.36-1.21-0.63-2.09-0.81v4.57
			c0.74,0.09,1.44,0.2,2.09,0.3v3.39c-0.57-0.17-1.27-0.31-2.09-0.42v4.56c0.79-0.07,1.49-0.2,2.09-0.41v2.78
			c-0.66,0.09-1.36,0.16-2.09,0.21v2.19h-3.58v-2.13c-0.55-0.03-1.08-0.08-1.6-0.13v-3.21
			C455.68,212.77,456.21,212.94,456.77,213.07z M455.18,207.93c-2.43-0.43-4.27-1-5.52-1.74c-1.5-0.89-2.26-1.96-2.26-3.22
			c0-1.28,0.85-2.35,2.56-3.22c1.38-0.7,3.12-1.16,5.22-1.38v2.85c-0.27,0.11-0.51,0.23-0.73,0.37c-0.57,0.38-0.86,0.79-0.86,1.24
			c0,0.41,0.26,0.8,0.79,1.15c0.22,0.15,0.49,0.28,0.81,0.41V207.93L455.18,207.93z M455.18,215.74c-2.13-0.24-3.92-0.7-5.36-1.38
			c-1.78-0.84-2.91-2.03-3.41-3.56l6.45-0.33c0.26,0.62,0.76,1.16,1.48,1.61c0.26,0.17,0.54,0.31,0.83,0.45V215.74z"/>
	</g>
	<path class="st0" d="M425.62,218.12c22.4,0,40.67-8.64,40.67-19.24c0-10.6-18.27-19.24-40.67-19.24c-22.4,0-40.67,8.64-40.67,19.24
		C384.95,209.47,403.22,218.12,425.62,218.12z"/>
	<rect x="384.95" y="190.97" class="st0" width="81.34" height="7.91"/>
	<g>
		<ellipse class="st0" cx="425.62" cy="190.97" rx="40.67" ry="19.24"/>
		<ellipse class="st1" cx="425.62" cy="190.97" rx="35.35" ry="15.5"/>
		<path class="st2" d="M429.57,181.86c1.66,0.22,3.05,0.57,4.17,1.08c1.54,0.7,2.53,1.63,2.96,2.8l-6.25,0.39
			c-0.17-0.41-0.46-0.77-0.88-1.06V181.86L429.57,181.86z M429.57,189.12c2.83,0.46,4.83,1.02,5.99,1.67
			c1.43,0.81,2.15,1.84,2.15,3.11c0,1.41-0.9,2.6-2.7,3.56c-1.39,0.75-3.21,1.27-5.44,1.57v-2.78c0.34-0.11,0.65-0.25,0.93-0.4
			c0.78-0.44,1.16-0.94,1.16-1.53c0-0.52-0.33-0.97-0.98-1.35c-0.29-0.17-0.66-0.32-1.11-0.45V189.12z M423.9,196.49v-4.9
			c-0.56-0.08-1.09-0.16-1.59-0.25v-3.54c0.44,0.17,0.97,0.32,1.59,0.45v-4.05c-0.61,0.1-1.14,0.24-1.59,0.42v-2.85
			c0.51-0.05,1.04-0.09,1.59-0.12v-1.16h3.58v1.16c0.74,0.04,1.44,0.11,2.09,0.19v3.21c-0.51-0.36-1.21-0.63-2.09-0.81v4.57
			c0.74,0.1,1.44,0.2,2.09,0.3v3.39c-0.57-0.17-1.27-0.31-2.09-0.42v4.56c0.79-0.07,1.49-0.2,2.09-0.41v2.78
			c-0.66,0.09-1.36,0.16-2.09,0.21v2.19h-3.58v-2.13c-0.55-0.03-1.08-0.08-1.59-0.13v-3.21C422.8,196.18,423.33,196.36,423.9,196.49
			z M422.3,191.35c-2.43-0.43-4.27-1-5.52-1.74c-1.5-0.89-2.26-1.96-2.26-3.22c0-1.28,0.85-2.35,2.56-3.22
			c1.38-0.7,3.12-1.16,5.22-1.38v2.85c-0.27,0.11-0.52,0.23-0.73,0.37c-0.57,0.37-0.86,0.79-0.86,1.24c0,0.41,0.26,0.8,0.78,1.15
			c0.22,0.15,0.49,0.29,0.81,0.41V191.35L422.3,191.35z M422.3,199.16c-2.13-0.24-3.92-0.7-5.36-1.38
			c-1.78-0.84-2.91-2.03-3.41-3.56l6.45-0.33c0.26,0.62,0.76,1.16,1.48,1.61c0.26,0.17,0.54,0.31,0.83,0.45V199.16z"/>
	</g>
	<ellipse class="st0" cx="454.73" cy="184.92" rx="40.67" ry="19.24"/>
	<rect x="414.06" y="177.01" class="st0" width="81.34" height="7.91"/>
	<g>
		<ellipse class="st0" cx="454.73" cy="177.01" rx="40.67" ry="19.24"/>
		<path class="st1" d="M454.73,192.51c19.47,0,35.35-6.97,35.35-15.5c0-8.54-15.88-15.51-35.35-15.51
			c-19.47,0-35.35,6.97-35.35,15.51C419.37,185.55,435.25,192.51,454.73,192.51z"/>
		<path class="st2" d="M458.67,167.9c1.66,0.22,3.05,0.57,4.17,1.08c1.55,0.7,2.53,1.63,2.96,2.8l-6.25,0.39
			c-0.17-0.41-0.46-0.77-0.88-1.06V167.9L458.67,167.9z M458.67,175.16c2.83,0.46,4.83,1.02,5.99,1.67
			c1.43,0.81,2.15,1.84,2.15,3.11c0,1.41-0.9,2.6-2.7,3.56c-1.39,0.75-3.21,1.27-5.44,1.57v-2.78c0.34-0.11,0.65-0.25,0.93-0.4
			c0.78-0.43,1.17-0.94,1.17-1.53c0-0.52-0.33-0.97-0.98-1.35c-0.29-0.17-0.66-0.32-1.11-0.45V175.16z M453,182.53v-4.9
			c-0.56-0.08-1.09-0.16-1.6-0.25v-3.54c0.44,0.17,0.97,0.32,1.6,0.45v-4.05c-0.61,0.1-1.14,0.24-1.6,0.42v-2.85
			c0.51-0.05,1.04-0.09,1.6-0.12v-1.16h3.58v1.16c0.74,0.04,1.44,0.11,2.09,0.19v3.21c-0.51-0.36-1.21-0.63-2.09-0.81v4.57
			c0.74,0.09,1.44,0.2,2.09,0.3v3.39c-0.57-0.17-1.27-0.31-2.09-0.42v4.56c0.79-0.07,1.49-0.2,2.09-0.41v2.78
			c-0.66,0.09-1.36,0.16-2.09,0.21v2.19H453v-2.13c-0.55-0.03-1.08-0.08-1.6-0.13v-3.21C451.9,182.22,452.43,182.4,453,182.53z
			 M451.4,177.39c-2.43-0.43-4.27-1-5.52-1.74c-1.5-0.89-2.26-1.96-2.26-3.22c0-1.28,0.85-2.35,2.56-3.22
			c1.38-0.7,3.12-1.16,5.22-1.38v2.85c-0.27,0.11-0.51,0.23-0.73,0.37c-0.58,0.37-0.86,0.79-0.86,1.24c0,0.41,0.26,0.8,0.79,1.15
			c0.22,0.15,0.49,0.29,0.81,0.41V177.39L451.4,177.39z M451.4,185.2c-2.13-0.24-3.92-0.7-5.36-1.38c-1.78-0.84-2.91-2.03-3.41-3.56
			l6.45-0.33c0.26,0.62,0.76,1.16,1.49,1.61c0.26,0.16,0.54,0.31,0.83,0.45V185.2z"/>
	</g>
	<ellipse class="st0" cx="442.24" cy="170.95" rx="40.67" ry="19.24"/>
	<rect x="401.57" y="163.04" class="st0" width="81.34" height="7.91"/>
	<g>
		<path class="st0" d="M442.24,182.28c22.4,0,40.67-8.64,40.67-19.24c0-10.6-18.27-19.24-40.67-19.24
			c-22.4,0-40.67,8.64-40.67,19.24C401.57,173.64,419.84,182.28,442.24,182.28z"/>
		<path class="st1" d="M442.24,178.54c19.47,0,35.35-6.97,35.35-15.5c0-8.54-15.88-15.5-35.35-15.5c-19.47,0-35.35,6.96-35.35,15.5
			C406.89,171.58,422.77,178.54,442.24,178.54z"/>
		<path class="st2" d="M446.18,153.93c1.67,0.22,3.05,0.58,4.17,1.08c1.54,0.7,2.53,1.63,2.96,2.8l-6.25,0.39
			c-0.17-0.41-0.46-0.77-0.88-1.06V153.93L446.18,153.93z M446.18,161.19c2.83,0.46,4.83,1.02,5.99,1.67
			c1.43,0.81,2.15,1.84,2.15,3.1c0,1.41-0.9,2.6-2.7,3.56c-1.39,0.75-3.21,1.27-5.44,1.57v-2.79c0.34-0.11,0.65-0.25,0.93-0.4
			c0.78-0.44,1.16-0.94,1.16-1.53c0-0.52-0.33-0.97-0.98-1.35c-0.29-0.17-0.66-0.32-1.11-0.45V161.19z M440.52,168.56v-4.9
			c-0.56-0.08-1.09-0.16-1.59-0.25v-3.54c0.44,0.17,0.97,0.32,1.59,0.45v-4.05c-0.61,0.1-1.14,0.24-1.59,0.42v-2.85
			c0.51-0.05,1.04-0.09,1.59-0.12v-1.16h3.58v1.16c0.74,0.04,1.44,0.11,2.09,0.19v3.21c-0.51-0.36-1.21-0.63-2.09-0.81v4.57
			c0.74,0.1,1.44,0.2,2.09,0.3v3.39c-0.57-0.17-1.27-0.31-2.09-0.42v4.56c0.79-0.07,1.49-0.21,2.09-0.41v2.79
			c-0.66,0.09-1.36,0.16-2.09,0.21v2.19h-3.58v-2.13c-0.55-0.03-1.08-0.08-1.59-0.13v-3.21
			C439.42,168.25,439.95,168.43,440.52,168.56z M438.92,163.42c-2.43-0.43-4.27-1-5.52-1.74c-1.5-0.89-2.26-1.96-2.26-3.22
			c0-1.28,0.85-2.35,2.56-3.22c1.38-0.7,3.12-1.16,5.22-1.38v2.85c-0.27,0.11-0.52,0.23-0.73,0.37c-0.57,0.37-0.86,0.79-0.86,1.24
			c0,0.41,0.26,0.8,0.79,1.15c0.22,0.15,0.49,0.29,0.81,0.41V163.42L438.92,163.42z M438.92,171.23c-2.13-0.24-3.92-0.7-5.36-1.38
			c-1.78-0.84-2.91-2.03-3.41-3.56l6.45-0.33c0.26,0.62,0.76,1.16,1.48,1.61c0.26,0.17,0.54,0.31,0.83,0.45V171.23z"/>
	</g>
	<path class="st0" d="M452.64,179.18c22.4,0,40.67-8.64,40.67-19.24s-18.27-19.24-40.67-19.24c-22.4,0-40.67,8.64-40.67,19.24
		S430.24,179.18,452.64,179.18z"/>
	<rect x="411.97" y="152.03" class="st0" width="81.34" height="7.91"/>
	<g>
		<path class="st0" d="M452.64,171.27c22.4,0,40.67-8.64,40.67-19.24c0-10.6-18.27-19.24-40.67-19.24
			c-22.4,0-40.67,8.64-40.67,19.24C411.97,162.62,430.24,171.27,452.64,171.27z"/>
		<path class="st1" d="M452.64,167.53c19.47,0,35.35-6.96,35.35-15.5c0-8.54-15.88-15.51-35.35-15.51
			c-19.47,0-35.35,6.97-35.35,15.51C417.29,160.57,433.17,167.53,452.64,167.53z"/>
		<path class="st2" d="M456.58,142.92c1.66,0.22,3.05,0.58,4.17,1.08c1.54,0.7,2.53,1.63,2.96,2.8l-6.25,0.39
			c-0.17-0.41-0.46-0.77-0.88-1.06V142.92L456.58,142.92z M456.58,150.18c2.83,0.46,4.83,1.02,5.99,1.67
			c1.43,0.81,2.15,1.84,2.15,3.11c0,1.41-0.9,2.6-2.7,3.56c-1.39,0.75-3.21,1.27-5.44,1.57v-2.79c0.34-0.11,0.65-0.25,0.93-0.4
			c0.78-0.44,1.17-0.94,1.17-1.53c0-0.52-0.33-0.97-0.98-1.35c-0.29-0.17-0.66-0.32-1.11-0.45V150.18z M450.91,157.55v-4.9
			c-0.56-0.08-1.09-0.16-1.59-0.25v-3.54c0.44,0.17,0.97,0.32,1.59,0.45v-4.05c-0.61,0.1-1.14,0.24-1.59,0.42v-2.85
			c0.51-0.05,1.04-0.1,1.59-0.12v-1.16h3.58v1.16c0.74,0.04,1.44,0.11,2.09,0.19v3.21c-0.51-0.36-1.21-0.63-2.09-0.81v4.57
			c0.74,0.09,1.44,0.2,2.09,0.3v3.39c-0.57-0.17-1.27-0.31-2.09-0.42v4.56c0.79-0.07,1.49-0.21,2.09-0.41v2.79
			c-0.66,0.09-1.36,0.16-2.09,0.21v2.19h-3.58v-2.13c-0.55-0.03-1.08-0.08-1.59-0.13v-3.21
			C449.81,157.24,450.35,157.42,450.91,157.55z M449.32,152.41c-2.43-0.43-4.27-1-5.52-1.74c-1.5-0.89-2.26-1.96-2.26-3.22
			c0-1.28,0.85-2.35,2.56-3.22c1.38-0.7,3.12-1.16,5.22-1.38v2.85c-0.27,0.11-0.52,0.23-0.73,0.37c-0.57,0.38-0.86,0.79-0.86,1.24
			c0,0.41,0.26,0.8,0.79,1.15c0.22,0.15,0.49,0.29,0.81,0.41V152.41L449.32,152.41z M449.32,160.22c-2.13-0.24-3.92-0.7-5.36-1.38
			c-1.78-0.84-2.91-2.03-3.41-3.56l6.45-0.33c0.26,0.62,0.76,1.16,1.48,1.61c0.26,0.17,0.54,0.31,0.83,0.45V160.22z"/>
	</g>
	<ellipse class="st0" cx="438.67" cy="148.39" rx="40.67" ry="19.24"/>
	<rect x="398" y="140.48" class="st0" width="81.34" height="7.91"/>
	<g>
		<path class="st0" d="M438.67,159.72c22.4,0,40.67-8.64,40.67-19.24c0-10.6-18.27-19.24-40.67-19.24
			c-22.4,0-40.67,8.64-40.67,19.24C398,151.08,416.27,159.72,438.67,159.72z"/>
		<path class="st1" d="M438.67,155.98c19.47,0,35.35-6.97,35.35-15.5c0-8.54-15.88-15.51-35.35-15.51
			c-19.47,0-35.35,6.97-35.35,15.51C403.32,149.02,419.2,155.98,438.67,155.98z"/>
		<path class="st2" d="M442.61,131.37c1.67,0.22,3.05,0.58,4.17,1.08c1.54,0.7,2.53,1.63,2.96,2.8l-6.25,0.39
			c-0.17-0.41-0.46-0.77-0.88-1.06V131.37L442.61,131.37z M442.61,138.63c2.83,0.46,4.83,1.02,5.99,1.67
			c1.43,0.81,2.15,1.84,2.15,3.1c0,1.41-0.9,2.6-2.7,3.56c-1.39,0.75-3.21,1.27-5.44,1.57v-2.79c0.34-0.11,0.65-0.25,0.93-0.4
			c0.78-0.44,1.16-0.94,1.16-1.53c0-0.52-0.33-0.97-0.98-1.35c-0.29-0.17-0.66-0.32-1.11-0.45V138.63z M436.94,146v-4.9
			c-0.56-0.08-1.09-0.16-1.59-0.25v-3.54c0.44,0.17,0.97,0.32,1.59,0.45v-4.05c-0.61,0.1-1.14,0.24-1.59,0.42v-2.85
			c0.51-0.05,1.04-0.1,1.59-0.12v-1.16h3.58v1.16c0.74,0.04,1.44,0.11,2.09,0.19v3.21c-0.51-0.36-1.21-0.63-2.09-0.81v4.57
			c0.74,0.09,1.44,0.2,2.09,0.3v3.39c-0.57-0.17-1.27-0.31-2.09-0.42v4.56c0.79-0.07,1.49-0.21,2.09-0.41v2.79
			c-0.66,0.09-1.36,0.16-2.09,0.21v2.19h-3.58v-2.13c-0.55-0.03-1.08-0.08-1.59-0.13v-3.21C435.85,145.7,436.38,145.87,436.94,146z
			 M435.35,140.86c-2.43-0.43-4.27-1-5.52-1.74c-1.5-0.89-2.26-1.96-2.26-3.22c0-1.28,0.85-2.35,2.56-3.22
			c1.38-0.7,3.12-1.16,5.22-1.38v2.85c-0.27,0.11-0.52,0.23-0.73,0.37c-0.57,0.37-0.86,0.79-0.86,1.24c0,0.41,0.26,0.8,0.78,1.15
			c0.22,0.15,0.49,0.29,0.81,0.41V140.86L435.35,140.86z M435.35,148.68c-2.13-0.24-3.92-0.7-5.36-1.38
			c-1.78-0.84-2.91-2.03-3.41-3.56l6.45-0.33c0.26,0.62,0.76,1.16,1.48,1.61c0.26,0.16,0.54,0.31,0.83,0.45V148.68z"/>
	</g>
	<ellipse class="st0" cx="428.54" cy="137.72" rx="40.67" ry="19.24"/>
	<rect x="387.87" y="129.81" class="st0" width="81.34" height="7.91"/>
	<g>
		<path class="st0" d="M428.54,149.05c22.4,0,40.67-8.64,40.67-19.24c0-10.6-18.27-19.24-40.67-19.24s-40.67,8.64-40.67,19.24
			C387.87,140.41,406.14,149.05,428.54,149.05z"/>
		<path class="st1" d="M428.54,145.32c19.47,0,35.35-6.97,35.35-15.51c0-8.54-15.88-15.5-35.35-15.5c-19.47,0-35.35,6.96-35.35,15.5
			C393.19,138.35,409.07,145.32,428.54,145.32z"/>
		<path class="st2" d="M432.48,120.7c1.66,0.22,3.05,0.58,4.17,1.08c1.54,0.7,2.53,1.63,2.96,2.8l-6.25,0.39
			c-0.17-0.41-0.46-0.77-0.88-1.06V120.7L432.48,120.7z M432.48,127.96c2.83,0.46,4.83,1.02,5.99,1.67c1.43,0.81,2.15,1.84,2.15,3.1
			c0,1.41-0.9,2.6-2.7,3.56c-1.39,0.75-3.21,1.27-5.44,1.57v-2.78c0.34-0.11,0.65-0.25,0.93-0.4c0.78-0.44,1.16-0.94,1.16-1.53
			c0-0.52-0.33-0.97-0.98-1.35c-0.29-0.17-0.66-0.32-1.11-0.45V127.96z M426.81,135.33v-4.9c-0.56-0.08-1.09-0.16-1.59-0.25v-3.54
			c0.44,0.17,0.97,0.32,1.59,0.45v-4.05c-0.61,0.1-1.14,0.24-1.59,0.42v-2.85c0.51-0.05,1.04-0.09,1.59-0.12v-1.16h3.58v1.16
			c0.74,0.04,1.44,0.11,2.09,0.19v3.21c-0.51-0.36-1.21-0.63-2.09-0.81v4.57c0.74,0.09,1.44,0.2,2.09,0.3v3.39
			c-0.57-0.17-1.27-0.31-2.09-0.42v4.56c0.79-0.07,1.49-0.21,2.09-0.41v2.78c-0.66,0.09-1.36,0.16-2.09,0.21v2.19h-3.58v-2.13
			c-0.55-0.03-1.08-0.08-1.59-0.13v-3.21C425.72,135.03,426.25,135.21,426.81,135.33z M425.22,130.19c-2.43-0.43-4.27-1-5.52-1.74
			c-1.5-0.89-2.26-1.96-2.26-3.22c0-1.28,0.85-2.35,2.56-3.22c1.38-0.7,3.12-1.16,5.22-1.38v2.85c-0.27,0.11-0.52,0.23-0.73,0.37
			c-0.57,0.38-0.86,0.79-0.86,1.24c0,0.41,0.26,0.8,0.79,1.15c0.22,0.15,0.49,0.29,0.81,0.41V130.19L425.22,130.19z M425.22,138.01
			c-2.13-0.24-3.92-0.7-5.36-1.38c-1.78-0.84-2.91-2.03-3.41-3.56l6.45-0.33c0.26,0.62,0.76,1.16,1.48,1.61
			c0.26,0.17,0.54,0.31,0.83,0.45V138.01z"/>
	</g>
	<ellipse class="st0" cx="446.94" cy="123.83" rx="40.67" ry="19.24"/>
	<rect x="406.27" y="115.92" class="st0" width="81.34" height="7.91"/>
	<g>
		<path class="st0" d="M446.94,135.16c22.4,0,40.67-8.64,40.67-19.24c0-10.6-18.27-19.24-40.67-19.24
			c-22.4,0-40.67,8.64-40.67,19.24C406.27,126.52,424.54,135.16,446.94,135.16z"/>
		<path class="st1" d="M446.94,131.42c19.47,0,35.35-6.97,35.35-15.5c0-8.54-15.88-15.51-35.35-15.51
			c-19.47,0-35.35,6.97-35.35,15.51C411.58,124.46,427.46,131.42,446.94,131.42z"/>
		<path class="st2" d="M450.88,106.81c1.66,0.22,3.05,0.57,4.17,1.08c1.54,0.7,2.53,1.63,2.96,2.8l-6.25,0.39
			c-0.17-0.41-0.46-0.77-0.88-1.06V106.81L450.88,106.81z M450.88,114.07c2.83,0.46,4.83,1.02,5.99,1.67
			c1.43,0.81,2.15,1.84,2.15,3.11c0,1.41-0.9,2.6-2.7,3.56c-1.39,0.75-3.21,1.27-5.44,1.57v-2.79c0.34-0.11,0.65-0.25,0.93-0.4
			c0.78-0.43,1.16-0.94,1.16-1.53c0-0.52-0.33-0.97-0.98-1.35c-0.29-0.17-0.66-0.32-1.11-0.45V114.07z M445.21,121.44v-4.9
			c-0.56-0.08-1.09-0.16-1.59-0.25v-3.54c0.44,0.17,0.97,0.32,1.59,0.45v-4.05c-0.61,0.1-1.14,0.24-1.59,0.42v-2.85
			c0.51-0.05,1.04-0.1,1.59-0.12v-1.16h3.58v1.16c0.74,0.04,1.44,0.11,2.09,0.19v3.21c-0.51-0.36-1.21-0.63-2.09-0.81v4.57
			c0.74,0.09,1.44,0.2,2.09,0.3v3.39c-0.57-0.17-1.27-0.31-2.09-0.42v4.56c0.79-0.07,1.49-0.21,2.09-0.41v2.79
			c-0.66,0.09-1.36,0.16-2.09,0.21v2.19h-3.58v-2.13c-0.55-0.03-1.08-0.08-1.59-0.13v-3.21
			C444.11,121.13,444.64,121.31,445.21,121.44z M443.62,116.3c-2.43-0.43-4.27-1-5.52-1.74c-1.5-0.89-2.26-1.96-2.26-3.22
			c0-1.28,0.85-2.35,2.56-3.22c1.38-0.7,3.12-1.16,5.22-1.38v2.85c-0.27,0.11-0.52,0.23-0.73,0.37c-0.57,0.37-0.86,0.79-0.86,1.24
			c0,0.41,0.26,0.8,0.79,1.15c0.22,0.15,0.49,0.29,0.81,0.41V116.3L443.62,116.3z M443.62,124.11c-2.13-0.24-3.92-0.7-5.36-1.38
			c-1.78-0.84-2.91-2.03-3.41-3.56l6.45-0.33c0.26,0.62,0.76,1.16,1.48,1.61c0.26,0.17,0.54,0.31,0.83,0.45V124.11z"/>
	</g>
	<path class="st0" d="M499.62,263.71c22.4,0,40.67-18.27,40.67-40.67c0-22.4-18.27-40.67-40.67-40.67
		c-22.4,0-40.67,18.27-40.67,40.67C458.95,245.44,477.22,263.71,499.62,263.71z"/>
	<path class="st1" d="M499.62,255.81c18.05,0,32.77-14.72,32.77-32.77c0-18.05-14.72-32.77-32.77-32.77
		c-18.05,0-32.77,14.72-32.77,32.77C466.85,241.09,481.57,255.81,499.62,255.81z"/>
	<path class="st2" d="M503.56,203.78c1.66,0.46,3.05,1.22,4.17,2.28c1.54,1.48,2.53,3.45,2.96,5.92l-6.25,0.82
		c-0.17-0.87-0.46-1.62-0.88-2.24V203.78L503.56,203.78z M503.56,219.14c2.83,0.97,4.83,2.15,5.99,3.53
		c1.43,1.7,2.15,3.89,2.15,6.56c0,2.98-0.9,5.49-2.7,7.53c-1.39,1.58-3.21,2.69-5.44,3.32v-5.89c0.34-0.24,0.65-0.52,0.93-0.85
		c0.78-0.92,1.17-1.99,1.17-3.23c0-1.11-0.33-2.05-0.98-2.85c-0.29-0.36-0.66-0.68-1.11-0.96V219.14z M497.89,234.71v-10.35
		c-0.56-0.16-1.09-0.33-1.6-0.52v-7.48c0.44,0.37,0.97,0.68,1.6,0.95v-8.55c-0.61,0.21-1.14,0.5-1.6,0.89v-6.02
		c0.51-0.11,1.04-0.2,1.6-0.26v-2.45h3.58v2.45c0.74,0.09,1.44,0.23,2.09,0.41v6.78c-0.51-0.76-1.21-1.33-2.09-1.72v9.66
		c0.74,0.2,1.44,0.41,2.09,0.64v7.17c-0.57-0.35-1.27-0.65-2.09-0.88v9.63c0.79-0.15,1.49-0.43,2.09-0.86v5.89
		c-0.66,0.19-1.36,0.33-2.09,0.44v4.62h-3.58v-4.51c-0.55-0.07-1.08-0.16-1.6-0.28v-6.78C496.8,234.07,497.33,234.44,497.89,234.71z
		 M496.3,223.84c-2.43-0.9-4.27-2.12-5.52-3.67c-1.5-1.87-2.26-4.14-2.26-6.81c0-2.7,0.85-4.97,2.56-6.81
		c1.38-1.48,3.12-2.45,5.22-2.92v6.02c-0.27,0.23-0.51,0.49-0.73,0.79c-0.57,0.79-0.86,1.67-0.86,2.62c0,0.87,0.26,1.69,0.78,2.43
		c0.22,0.31,0.49,0.6,0.81,0.87V223.84L496.3,223.84z M496.3,240.36c-2.13-0.5-3.92-1.47-5.36-2.91c-1.78-1.77-2.91-4.29-3.41-7.53
		l6.45-0.69c0.26,1.32,0.76,2.45,1.48,3.41c0.26,0.35,0.54,0.66,0.83,0.94V240.36z"/>
	<path class="st3" d="M382.56,182.2c-0.22-2.34-2.21-9.16-7.58-18.9c-5.37-9.74-1.05-15.68,7.15-15.33
		c8.2,0.35,7.14-6.38,13.82-6.38c6.68,0,5.61,6.73,13.82,6.38c8.2-0.35,12.52,5.59,7.15,15.33c-5.37,9.74-7.36,16.56-7.58,18.9
		C407.38,202.9,384.51,202.9,382.56,182.2z"/>
	<linearGradient id="SVGID_1_" gradientUnits="userSpaceOnUse" x1="351.9384" y1="222.2133" x2="439.5186" y2="222.2133">
		<stop  offset="0" style="stop-color:#0F1A2B"/>
		<stop  offset="1" style="stop-color:#1D4483"/>
	</linearGradient>
	<path class="st4" d="M395.73,178.76c24.18,0,43.78,19.46,43.78,43.45c0,24,1.99,43.45-43.78,43.45
		c-45.76,0-43.78-19.45-43.78-43.45C351.95,198.21,371.55,178.76,395.73,178.76z"/>
	<path class="st3" d="M395.73,178.76c12.12,0,23.08,4.89,31.01,12.78c2.72,5.66,4.24,11.99,4.24,18.68c0,24,1.99,43.45-43.78,43.45
		c-16.69,0-27.03-2.59-33.43-7.05c-2.1-6.96-1.82-15.36-1.82-24.42C351.95,198.21,371.55,178.76,395.73,178.76z"/>
	<path class="st5" d="M377.85,171.78h35.76c1.37,0,2.49,1.12,2.49,2.49l0,0c0,1.37-1.12,2.49-2.49,2.49h-35.76
		c-1.37,0-2.49-1.12-2.49-2.49l0,0C375.36,172.9,376.48,171.78,377.85,171.78z"/>
	<path class="st5" d="M377.85,176.75h35.76c1.37,0,2.49,1.12,2.49,2.49l0,0c0,1.37-1.12,2.49-2.49,2.49h-35.76
		c-1.37,0-2.49-1.12-2.49-2.49l0,0C375.36,177.87,376.48,176.75,377.85,176.75z"/>
	<path class="st6" d="M400.45,199.16c1.99,0.55,3.65,1.45,4.99,2.72c1.85,1.77,3.03,4.13,3.54,7.09l-7.48,0.98
		c-0.2-1.05-0.55-1.94-1.05-2.68V199.16L400.45,199.16z M400.45,217.54c3.39,1.16,5.78,2.57,7.17,4.23
		c1.72,2.04,2.57,4.65,2.57,7.85c0,3.56-1.08,6.57-3.23,9.02c-1.67,1.89-3.84,3.22-6.51,3.98v-7.04c0.41-0.29,0.78-0.63,1.11-1.02
		c0.93-1.1,1.39-2.38,1.39-3.87c0-1.32-0.39-2.45-1.17-3.41c-0.35-0.43-0.79-0.81-1.33-1.15V217.54z M393.66,236.19V223.8
		c-0.67-0.19-1.3-0.4-1.91-0.62v-8.95c0.53,0.44,1.16,0.82,1.91,1.14v-10.24c-0.73,0.25-1.37,0.6-1.91,1.07v-7.21
		c0.61-0.14,1.25-0.24,1.91-0.31v-2.93h4.28v2.93c0.89,0.11,1.72,0.27,2.5,0.49v8.11c-0.61-0.91-1.45-1.6-2.5-2.05v11.56
		c0.89,0.24,1.72,0.49,2.5,0.76v8.58c-0.68-0.42-1.52-0.78-2.5-1.06v11.53c0.95-0.17,1.78-0.52,2.5-1.03v7.04
		c-0.79,0.23-1.63,0.4-2.5,0.53v5.53h-4.28v-5.39c-0.66-0.08-1.3-0.19-1.91-0.34v-8.12C392.35,235.41,392.99,235.86,393.66,236.19z
		 M391.75,223.17c-2.91-1.08-5.11-2.54-6.6-4.39c-1.8-2.24-2.71-4.96-2.71-8.15c0-3.23,1.02-5.95,3.06-8.15
		c1.65-1.77,3.73-2.94,6.25-3.5v7.21c-0.33,0.28-0.62,0.59-0.88,0.94c-0.69,0.95-1.03,2-1.03,3.14c0,1.04,0.31,2.02,0.94,2.91
		c0.27,0.38,0.59,0.72,0.97,1.04V223.17L391.75,223.17z M391.75,242.95c-2.55-0.6-4.69-1.76-6.41-3.48
		c-2.13-2.12-3.48-5.13-4.08-9.02l7.72-0.83c0.31,1.58,0.91,2.94,1.78,4.08c0.31,0.42,0.64,0.8,0.99,1.13V242.95z"/>
	<linearGradient id="SVGID_2_" gradientUnits="userSpaceOnUse" x1="372.6052" y1="155.0501" x2="414.0598" y2="155.0501">
		<stop  offset="0" style="stop-color:#0F1A2B"/>
		<stop  offset="1" style="stop-color:#1D4483"/>
	</linearGradient>
	<path class="st7" d="M376.74,166.62c-0.54-1.06-1.13-2.17-1.76-3.31c-5.37-9.74-1.05-15.68,7.15-15.33
		c8.2,0.35,7.14-6.38,13.82-6.38c6.68,0,5.61,6.73,13.82,6.38c1.59-0.07,3.04,0.1,4.29,0.49c-1.04,3.05-1.58,5.28-2.15,6.7
		C406.88,167.71,389.36,171.1,376.74,166.62z"/>
</g>
</svg>
