<?xml version="1.0" encoding="utf-8"?>
<!-- Generator: Adobe Illustrator 23.0.5, SVG Export Plug-In . SVG Version: 6.00 Build 0)  -->
<svg version="1.1" id="Layer_1" xmlns="http://www.w3.org/2000/svg" xmlns:xlink="http://www.w3.org/1999/xlink" x="0px" y="0px"
	 viewBox="0 0 883 355" style="enable-background:new 0 0 883 355;" xml:space="preserve">
<style type="text/css">
	.st0{fill:#F9C113;}
	.st1{fill:#1D4483;}
	.st2{opacity:0.6;}
	.st3{fill:#657DA0;}
	.st4{fill:url(#SVGID_1_);}
</style>
<g>
	<path class="st0" d="M450.67,186.02c0-0.16,0.05-0.32,0.13-0.46l5.67-10.16h-0.01l0.65-1.15l1.69-3.03h-24.73l1.69,3.03l0,0
		l0.63,1.11h-0.01l5.68,10.18c0.08,0.14,0.12,0.3,0.13,0.46l0.51,13.46h7.46L450.67,186.02z"/>
	<polygon class="st0" points="436.77,208.27 456.71,204.43 456.8,201.7 436.67,205.58 	"/>
	<polygon class="st0" points="436.95,212.81 456.55,209.04 456.65,206.31 436.84,210.12 	"/>
	<path class="st0" d="M437.02,214.79c0,0.03,0.06,0.09,0.11,0.09h19.13c0.05,0,0.1-0.06,0.1-0.08l0.13-3.88l-19.48,3.75
		L437.02,214.79z"/>
	<polygon class="st0" points="450.14,200.11 450.16,199.48 442.7,199.48 440.64,199.48 436.44,199.48 436.6,203.72 456.86,199.82 
		456.87,199.48 452.22,199.48 452.2,200.11 	"/>
	<path class="st1" d="M451.54,139.34c-0.86,2.61-1.71,5.23-2.57,7.84c3.9-0.76,7.79-1.51,11.69-2.27
		c-5.54,8.09-11.08,16.18-16.61,24.27h16.18c0.1,0,0.2,0.03,0.29,0.06c0.17,0,0.34,0.03,0.5,0.11c0.5,0.28,0.67,0.91,0.4,1.4
		l-8.7,15.58l-0.49,13.14h4.65l-0.01,0.34l-20.26,3.9l-0.16-4.24h4.2l-0.49-13.14l-8.7-15.58c-0.23-0.41-0.14-0.89,0.17-1.21
		c0.06-0.07,0.13-0.12,0.2-0.18c0.01,0,0.01-0.01,0.02-0.02c0,0,0.01,0,0.01,0c0.16-0.1,0.33-0.17,0.53-0.17h10.86l1.46-5.87
		l2.48-9.96h-13.98l12.18-14.44c-15.44,0.56-27.83,13.25-27.83,28.82c0,10.43,5.56,19.59,13.88,24.67l0.85,21.34
		c0.1,2.46,1.99,4.5,4.36,4.88c0.9,2.68,4.93,4.71,9.77,4.71c4.81,0,8.82-2,9.76-4.65c2.63-0.13,4.79-2.3,4.88-4.95l0.74-21.57
		c8.1-5.12,13.5-14.15,13.5-24.43C475.31,153.56,465.03,141.76,451.54,139.34z M456.36,214.8c0,0.02-0.05,0.08-0.1,0.08h-19.13
		c-0.05,0-0.11-0.07-0.11-0.09l0-0.12l19.48-3.75L456.36,214.8z M456.55,209.04l-19.61,3.78l-0.1-2.69l19.8-3.81L456.55,209.04z
		 M456.71,204.43l-19.94,3.84l-0.1-2.69l20.13-3.88L456.71,204.43z"/>
	<g class="st2">
		<path class="st3" d="M447.41,169.19c-0.53-0.85-1.07-1.71-1.63-2.54c-0.58,0.85-1.16,1.69-1.74,2.54H447.41z"/>
		<linearGradient id="SVGID_1_" gradientUnits="userSpaceOnUse" x1="417.5587" y1="184.8627" x2="461.1282" y2="184.8627">
			<stop  offset="0" style="stop-color:#0F1A2B"/>
			<stop  offset="1" style="stop-color:#1D4483"/>
		</linearGradient>
		<path class="st4" d="M454.54,183.07l-1.83,3.27l-0.49,13.14h4.65l-0.01,0.34l-20.26,3.9l-0.16-4.24h4.2l-0.49-13.14l-8.7-15.58
			c-0.23-0.41-0.14-0.89,0.17-1.21c0.06-0.07,0.13-0.12,0.2-0.18c0.01,0,0.01-0.01,0.02-0.02c0,0,0.01,0,0.01,0
			c0.16-0.1,0.33-0.17,0.53-0.17h10.86l1.13-4.53c-2.87-4.02-6.05-7.81-9.52-11.31h-1.64l0.74-0.88c-2.19-2.14-4.48-4.17-6.88-6.08
			c-5.83,5.28-9.51,12.88-9.51,21.34c0,10.43,5.56,19.59,13.88,24.67l0.85,21.34c0.1,2.46,1.99,4.5,4.36,4.88
			c0.9,2.68,4.93,4.71,9.77,4.71c4.81,0,8.82-2,9.76-4.65c2.63-0.13,4.79-2.3,4.88-4.95l0.06-1.66
			C460.53,201.86,458.24,192.1,454.54,183.07z M456.36,214.8c0,0.02-0.05,0.08-0.1,0.08h-19.13c-0.05,0-0.11-0.07-0.11-0.09l0-0.12
			l19.48-3.75L456.36,214.8z M456.55,209.04l-19.61,3.78l-0.1-2.69l19.8-3.81L456.55,209.04z M456.71,204.43l-19.94,3.84l-0.1-2.69
			l20.13-3.88L456.71,204.43z"/>
	</g>
</g>
</svg>
