<?xml version="1.0" encoding="utf-8"?>
<!-- Generator: Adobe Illustrator 23.0.5, SVG Export Plug-In . SVG Version: 6.00 Build 0)  -->
<svg version="1.1" id="Layer_1" xmlns="http://www.w3.org/2000/svg" xmlns:xlink="http://www.w3.org/1999/xlink" x="0px" y="0px"
	 viewBox="0 0 883 355" style="enable-background:new 0 0 883 355;" xml:space="preserve">
<style type="text/css">
	.st0{fill:#1D4483;}
	.st1{fill:url(#SVGID_1_);}
	.st2{fill:url(#SVGID_2_);}
	.st3{fill:url(#SVGID_3_);}
	.st4{fill:url(#SVGID_4_);}
</style>
<g>
	<path class="st0" d="M400.36,132.06"/>
	<path class="st0" d="M519.6,233.38c-3.49-13.11-8.37-25.79-14.72-37.74c-13.33-25.07-22.81-51.03-24.84-79.77
		c-1.28-18.02-17.57-31.62-34.48-31.58c-16.57,0.04-32.27,13.99-33.74,32.3c-0.73,9.08-1.26,10.14-3.48,23.32
		c-3.07,18.29-9.42,31.36-20.66,54.51c-6.33,13.05-12.43,26.44-15.72,40.57c-0.53,2.3-3.02,4.96,1.5,6.69
		c14.49,5.54,19.25,2.51,31.84,12.71c8.91,7.22,20.14,12.68,29.93,18.92c8.23,5.25,16.07,5.27,24.27-0.11
		c10.28-6.75,20.04-11.16,28.69-19.71c9.85-9.73,16.04-6.14,29.33-11.49C522.87,239.84,520.34,236.18,519.6,233.38z M474.96,161.53
		c-5.63,15.97-18.46,29.1-29.71,28.61c-11.85-0.51-27.04-17.43-29.51-32.96c-0.33-2.05-0.25-4.17-0.4-7.01
		c2.7-8.36-1-17.91,2.43-27.11c5.66-15.18,18.11-24.81,30.98-23.11c13.77,1.82,27.47,16.5,26.74,31.69
		C475.01,141.59,478.53,151.41,474.96,161.53z"/>
	<linearGradient id="SVGID_1_" gradientUnits="userSpaceOnUse" x1="370.7347" y1="211.427" x2="474.1981" y2="211.427">
		<stop  offset="0" style="stop-color:#0F1A2B"/>
		<stop  offset="1" style="stop-color:#1D4483"/>
	</linearGradient>
	<path class="st1" d="M452.29,193.27c-1.83-1.01-3.31-1.77-4.63-2.43c-0.85,0.11-1.7,0.17-2.54,0.14
		c-10.22-0.44-22.91-13.1-27.8-26.53c-1.93-2.86-2.23-2.83-3.56-7.92c-1.39-5.29-3.73-7.93-6.67-10.73
		c-3.4,15.33-9.51,27.93-19.47,48.44c-6.33,13.05-12.43,26.44-15.72,40.57c-0.53,2.3-3.02,4.96,1.5,6.69
		c14.49,5.54,19.25,2.51,31.84,12.71c8.91,7.22,20.14,12.68,29.93,18.92c8.23,5.25,16.07,5.27,24.27-0.11
		c0.73-0.48,1.45-0.92,2.18-1.38c4.26-3.91,7.74-8.61,9.94-14.29c6.57-17-0.89-35.97-3.14-41.67
		C465.41,208.04,461.63,198.43,452.29,193.27z"/>
	<linearGradient id="SVGID_2_" gradientUnits="userSpaceOnUse" x1="420.8118" y1="154.0238" x2="470.8269" y2="154.0238">
		<stop  offset="0" style="stop-color:#FFF33B"/>
		<stop  offset="0.0595" style="stop-color:#FFE029"/>
		<stop  offset="0.1303" style="stop-color:#FFD218"/>
		<stop  offset="0.2032" style="stop-color:#FEC90F"/>
		<stop  offset="0.2809" style="stop-color:#FDC70C"/>
		<stop  offset="0.8697" style="stop-color:#F3903F"/>
		<stop  offset="1" style="stop-color:#ED683C"/>
		<stop  offset="1" style="stop-color:#E93E3A"/>
	</linearGradient>
	<path class="st2" d="M445.76,122.95c16.06-0.04,21.61,5.37,24.48,22.08c2.76,16.09-4.44,27.29-16.16,36.78
		c-5.83,4.71-11.78,4.16-17.05-0.4c-11.23-9.72-18.77-20.81-15.4-37.13C424.88,128.51,430.26,122.99,445.76,122.95z"/>
	<linearGradient id="SVGID_3_" gradientUnits="userSpaceOnUse" x1="425.1694" y1="114.4032" x2="468.1035" y2="114.4032">
		<stop  offset="0" style="stop-color:#FFF33B"/>
		<stop  offset="0.0595" style="stop-color:#FFE029"/>
		<stop  offset="0.1303" style="stop-color:#FFD218"/>
		<stop  offset="0.2032" style="stop-color:#FEC90F"/>
		<stop  offset="0.2809" style="stop-color:#FDC70C"/>
		<stop  offset="0.8697" style="stop-color:#F3903F"/>
		<stop  offset="1" style="stop-color:#ED683C"/>
		<stop  offset="1" style="stop-color:#E93E3A"/>
	</linearGradient>
	<path class="st3" d="M468.1,123.71c-15.33-7.46-29.02-7.37-42.93-0.75c3.22-10.87,9.72-16.81,18.92-17.76
		C453.68,104.22,461.49,109.91,468.1,123.71z"/>
	<linearGradient id="SVGID_4_" gradientUnits="userSpaceOnUse" x1="370.7922" y1="253.4458" x2="520.8465" y2="253.4458">
		<stop  offset="0" style="stop-color:#FFF33B"/>
		<stop  offset="0.0595" style="stop-color:#FFE029"/>
		<stop  offset="0.1303" style="stop-color:#FFD218"/>
		<stop  offset="0.2032" style="stop-color:#FEC90F"/>
		<stop  offset="0.2809" style="stop-color:#FDC70C"/>
		<stop  offset="0.8697" style="stop-color:#F3903F"/>
		<stop  offset="1" style="stop-color:#ED683C"/>
		<stop  offset="1" style="stop-color:#E93E3A"/>
	</linearGradient>
	<path class="st4" d="M518.61,229.76c-0.28,0.15-0.6,0.3-0.95,0.44c-13.29,5.36-19.48,1.77-29.33,11.49
		c-8.66,8.54-18.41,12.96-28.69,19.71c-8.2,5.38-16.04,5.36-24.27,0.11c-9.79-6.24-21.02-11.7-29.93-18.92
		c-12.59-10.2-17.34-7.17-31.84-12.71c-0.11-0.04-0.21-0.09-0.31-0.14c-0.48,1.71-0.93,3.42-1.33,5.15c-0.53,2.3-3.02,4.96,1.5,6.69
		c14.49,5.54,19.25,2.51,31.84,12.71c8.91,7.22,20.14,12.68,29.93,18.92c8.23,5.25,16.07,5.27,24.27-0.11
		c10.28-6.75,20.04-11.16,28.69-19.71c9.85-9.73,16.04-6.14,29.33-11.49c5.35-2.15,2.82-5.82,2.07-8.62
		C519.28,232.1,518.94,230.93,518.61,229.76z"/>
</g>
</svg>
