<?xml version="1.0" encoding="utf-8"?>
<!-- Generator: Adobe Illustrator 23.0.5, SVG Export Plug-In . SVG Version: 6.00 Build 0)  -->
<svg version="1.1" id="Layer_1" xmlns="http://www.w3.org/2000/svg" xmlns:xlink="http://www.w3.org/1999/xlink" x="0px" y="0px"
	 viewBox="0 0 883 355" style="enable-background:new 0 0 883 355;" xml:space="preserve">
<style type="text/css">
	.st0{fill:#1D4483;}
	.st1{fill:url(#SVGID_1_);}
	.st2{fill:#F9C113;}
	.st3{opacity:0.8;fill:url(#SVGID_2_);}
</style>
<g>
	<path class="st0" d="M471.61,144.58h-63.06c-3.28,0-5.94,2.66-5.94,5.94v59.07c0,3.28,2.66,5.94,5.94,5.94h63.06
		c3.28,0,5.95-2.66,5.95-5.94v-59.07C477.55,147.24,474.89,144.58,471.61,144.58z M459.72,148.79v29.93h-39.28v-29.93H459.72z
		 M416.82,206.5h-10.74v-10.74h10.74V206.5z M416.82,185.08h-10.74v-10.74h10.74V185.08z M416.82,163.65h-10.74v-10.74h10.74V163.65
		z M420.44,211.33V181.4h39.28v29.93H420.44z M474.05,206.5h-10.74v-10.74h10.74V206.5z M474.05,185.08h-10.74v-10.74h10.74V185.08z
		 M474.05,163.65h-10.74v-10.74h10.74V163.65z"/>
	<linearGradient id="SVGID_1_" gradientUnits="userSpaceOnUse" x1="402.5658" y1="181.6193" x2="465.9706" y2="181.6193">
		<stop  offset="0" style="stop-color:#0F1A2B"/>
		<stop  offset="1" style="stop-color:#1D4483"/>
	</linearGradient>
	<path class="st1" d="M459.68,207.42v3.91H420.4V181.4h7.64c-0.54-0.84-1.09-1.73-1.65-2.68h-5.99v-10.86
		c-1.47-2.91-2.65-5.5-3.62-7.75v3.54h-10.74v-10.74h7.65c-1.41-3.03-2.6-4.72-4.62-5.12c-2.13-0.43-4.37,0.73-6.48,2.54
		c0,0.07-0.02,0.13-0.02,0.2v59.07c0,3.28,2.66,5.94,5.94,5.94h57.46C464.21,212.68,461.94,209.86,459.68,207.42z M416.78,206.5
		h-10.74v-10.74h10.74V206.5z M416.78,185.08h-10.74v-10.74h10.74V185.08z"/>
	<path class="st2" d="M485.32,195.26c0-0.02,0.01-0.04,0.01-0.05h-30.57c0.03,0.2,0.06,0.39,0.06,0.59c0,2.36-1.92,4.28-4.28,4.28
		c-0.36,0-0.71-0.06-1.05-0.15v13.87c0.19-0.02,0.37-0.06,0.56-0.06c2.07,0,3.79,1.47,4.19,3.42h30.63
		c0.17-2.21,1.99-3.95,4.25-3.95c0.14,0,0.27,0.03,0.4,0.04v-13.72C487.19,199.48,485.32,197.59,485.32,195.26z"/>
	<linearGradient id="SVGID_2_" gradientUnits="userSpaceOnUse" x1="449.4826" y1="206.942" x2="468.3766" y2="206.942">
		<stop  offset="0" style="stop-color:#FFF33B"/>
		<stop  offset="0.0595" style="stop-color:#FFE029"/>
		<stop  offset="0.1303" style="stop-color:#FFD218"/>
		<stop  offset="0.2032" style="stop-color:#FEC90F"/>
		<stop  offset="0.2809" style="stop-color:#FDC70C"/>
		<stop  offset="0.6685" style="stop-color:#F3903F"/>
		<stop  offset="0.8876" style="stop-color:#ED683C"/>
		<stop  offset="1" style="stop-color:#E93E3A"/>
	</linearGradient>
	<path class="st3" d="M466.59,213.93c-3.03-3.57-6.73-1.92-9.36-5.33c-3.13-4.05,0.4-8.58-2.42-11.78
		c-0.03-0.03-0.08-0.06-0.11-0.09c-0.43,1.91-2.13,3.35-4.17,3.35c-0.36,0-0.71-0.06-1.05-0.14v13.87c0.19-0.02,0.37-0.06,0.56-0.06
		c2.07,0,3.79,1.47,4.19,3.42h14.14C467.96,215.97,467.37,214.84,466.59,213.93z"/>
</g>
</svg>
