<?xml version="1.0" encoding="utf-8"?>
<!-- Generator: Adobe Illustrator 23.0.5, SVG Export Plug-In . SVG Version: 6.00 Build 0)  -->
<svg version="1.1" id="Layer_1" xmlns="http://www.w3.org/2000/svg" xmlns:xlink="http://www.w3.org/1999/xlink" x="0px" y="0px"
	 viewBox="0 0 883 355" style="enable-background:new 0 0 883 355;" xml:space="preserve">
<style type="text/css">
	.st0{fill:#FFFFFF;}
	.st1{fill:url(#SVGID_1_);}
	.st2{fill:url(#SVGID_2_);}
	.st3{fill:#1D4483;}
	.st4{fill:url(#SVGID_3_);}
	.st5{fill:url(#SVGID_4_);}
	.st6{fill:#F9C113;}
</style>
<g>
	<g>
		<path class="st0" d="M463.01,186.52c-14.7,1.37-30.88,2.18-48.32,2.04c-14.42-0.12-27.93-0.88-40.42-2.04l6.09,56.89
			c6.46,1.5,24.3,2,30.9,2.39c0,0,25.87-0.92,46.39-2.39L463.01,186.52z"/>
	</g>
	<g>
		<linearGradient id="SVGID_1_" gradientUnits="userSpaceOnUse" x1="360.6663" y1="213.4838" x2="456.7964" y2="213.4838">
			<stop  offset="0" style="stop-color:#E93E3A"/>
			<stop  offset="0.1124" style="stop-color:#ED683C"/>
			<stop  offset="0.1471" style="stop-color:#F3903F"/>
			<stop  offset="0.6353" style="stop-color:#FDC70C"/>
			<stop  offset="0.7362" style="stop-color:#FEC90F"/>
			<stop  offset="0.8309" style="stop-color:#FFD218"/>
			<stop  offset="0.9228" style="stop-color:#FFE029"/>
			<stop  offset="1" style="stop-color:#FFF33B"/>
		</linearGradient>
		<polygon class="st1" points="443,284.44 374.46,284.44 360.67,142.53 456.8,142.53 		"/>
	</g>
	<linearGradient id="SVGID_2_" gradientUnits="userSpaceOnUse" x1="365.2002" y1="219.472" x2="446.3162" y2="219.472">
		<stop  offset="0" style="stop-color:#D36127"/>
		<stop  offset="0.0101" style="stop-color:#D36327"/>
		<stop  offset="0.1513" style="stop-color:#DD7F25"/>
		<stop  offset="0.2986" style="stop-color:#E69522"/>
		<stop  offset="0.4517" style="stop-color:#EEA71E"/>
		<stop  offset="0.6129" style="stop-color:#F4B519"/>
		<stop  offset="0.7875" style="stop-color:#F8BE15"/>
		<stop  offset="1" style="stop-color:#F9C113"/>
	</linearGradient>
	<path class="st2" d="M419.18,255.85c-6.39-12.57,0.01-21.55-7.97-29.7c-3.6-3.67-5.27-2.23-10.87-5.8
		c-13.07-8.32-17.68-24.95-21.01-36.95c-4.3-15.52-3.33-24.27-9.42-26.8c-1.55-0.65-3.18-0.73-4.72-0.52l12.34,126.87h68.53
		l0.25-2.54c-1.96-1.35-4.23-2.97-6.85-5.01C428.09,266.59,422.4,262.18,419.18,255.85z"/>
	<g>
		<g>
			<g>
				<path class="st3" d="M459.55,145.91H357.91c-4.44,0-8.05-3.61-8.05-8.05v-2.62c0-4.44,3.61-8.05,8.05-8.05h101.64
					c4.44,0,8.05,3.61,8.05,8.05v2.62C467.6,142.3,463.99,145.91,459.55,145.91z M357.91,133.95c-0.71,0-1.29,0.58-1.29,1.29v2.62
					c0,0.71,0.58,1.29,1.29,1.29h101.64c0.71,0,1.29-0.58,1.29-1.29v-2.62c0-0.71-0.58-1.29-1.29-1.29H357.91z"/>
			</g>
			<g>
				<path class="st3" d="M362.12,133.95c-1.87,0-3.38-1.51-3.38-3.38v-5.05c0-5.04,4.1-9.14,9.13-9.14h81.71
					c5.04,0,9.13,4.1,9.13,9.14v3.9c0,1.87-1.51,3.38-3.38,3.38s-3.38-1.51-3.38-3.38v-3.9c0-1.31-1.06-2.38-2.37-2.38h-81.71
					c-1.31,0-2.37,1.07-2.37,2.38v5.05C365.5,132.44,363.99,133.95,362.12,133.95z"/>
			</g>
			<g>
				<path class="st3" d="M412.53,123.14h-9.58c-1.06,0-2.07-0.5-2.7-1.35c-0.64-0.85-0.84-1.95-0.54-2.97l13.8-47.52
					c0.42-1.44,1.74-2.44,3.25-2.44h9.58c1.06,0,2.07,0.5,2.7,1.35c0.64,0.85,0.84,1.95,0.54,2.97l-13.8,47.52
					C415.35,122.14,414.03,123.14,412.53,123.14z M407.45,116.37h2.54l11.84-40.76h-2.54L407.45,116.37z"/>
			</g>
		</g>
		<g>
			<g>
				<path class="st3" d="M395.26,244.36c-8.45,0-21.66-0.73-26.45-2.86c-1.7-0.76-2.47-2.76-1.71-4.47
					c0.76-1.71,2.75-2.47,4.47-1.71c4.26,1.9,23.17,2.67,29.21,2.11c1.9-0.16,3.51,1.2,3.68,3.05c0.17,1.86-1.2,3.51-3.05,3.68
					C400.08,244.29,397.9,244.36,395.26,244.36z"/>
			</g>
			<g>
				<g>
					<path class="st3" d="M407.62,187.21c-14.37,0-28.88-0.7-43.14-2.07c-1.86-0.18-3.22-1.83-3.04-3.69
						c0.18-1.86,1.8-3.21,3.69-3.04c14.54,1.4,29.31,2.1,43.97,2.04c14.44-0.05,29.04-0.82,43.38-2.28
						c1.87-0.21,3.52,1.16,3.71,3.02c0.19,1.86-1.16,3.52-3.02,3.71c-14.56,1.49-29.38,2.26-44.04,2.32
						C408.63,187.2,408.12,187.21,407.62,187.21z"/>
				</g>
				<g>
					<path class="st3" d="M446.07,287.82H371.4l-14.46-148.67h103.58L446.07,287.82z M377.53,281.06h62.4l13.14-135.15h-88.68
						L377.53,281.06z"/>
				</g>
			</g>
		</g>
	</g>
	<g>
		<linearGradient id="SVGID_3_" gradientUnits="userSpaceOnUse" x1="432.7454" y1="293.3834" x2="506.5023" y2="219.6265">
			<stop  offset="0" style="stop-color:#E93E3A"/>
			<stop  offset="0" style="stop-color:#F3903F"/>
			<stop  offset="0.1124" style="stop-color:#ED683C"/>
			<stop  offset="0.4385" style="stop-color:#FCC114"/>
			<stop  offset="0.7191" style="stop-color:#FDC70C"/>
			<stop  offset="0.7968" style="stop-color:#FEC90F"/>
			<stop  offset="0.8697" style="stop-color:#FFD218"/>
			<stop  offset="0.9405" style="stop-color:#FFE029"/>
			<stop  offset="1" style="stop-color:#FFF33B"/>
		</linearGradient>
		<path class="st4" d="M410.11,243.99h118.5c3.16,0,5.67,2.7,5.44,5.85c-2.89,40.05-36.05,40.05-64.71,40.05
			c-28.57,0-61.63-2.23-64.68-40.04C404.41,246.7,406.94,243.99,410.11,243.99z"/>
	</g>
	<g>
		<path class="st3" d="M469.35,293.28c-24.15,0-64.57,0-68.05-43.14c-0.2-2.44,0.64-4.87,2.31-6.67c1.67-1.81,4.04-2.85,6.5-2.85
			h118.5c2.44,0,4.8,1.03,6.47,2.82c1.67,1.79,2.52,4.22,2.35,6.66C534.31,293.28,498.29,293.28,469.35,293.28z M410.11,247.37
			c-0.79,0-1.3,0.42-1.53,0.67c-0.23,0.25-0.6,0.78-0.54,1.55c2.75,34.08,31.8,36.93,61.31,36.93c28.84,0,58.67,0,61.33-36.92
			c0.06-0.78-0.32-1.32-0.55-1.57c-0.23-0.25-0.73-0.66-1.52-0.66H410.11z"/>
	</g>
	<g>
		<linearGradient id="SVGID_4_" gradientUnits="userSpaceOnUse" x1="434.4272" y1="254.0363" x2="504.2892" y2="184.1743">
			<stop  offset="0" style="stop-color:#E93E3A"/>
			<stop  offset="0" style="stop-color:#F3903F"/>
			<stop  offset="0.1124" style="stop-color:#ED683C"/>
			<stop  offset="0.4385" style="stop-color:#FCC114"/>
			<stop  offset="0.7191" style="stop-color:#FDC70C"/>
			<stop  offset="0.7968" style="stop-color:#FEC90F"/>
			<stop  offset="0.8697" style="stop-color:#FFD218"/>
			<stop  offset="0.9405" style="stop-color:#FFE029"/>
			<stop  offset="1" style="stop-color:#FFF33B"/>
		</linearGradient>
		<path class="st5" d="M524.33,229.96H414.38c-7.64,0-12.3-8.42-8.23-14.88c13.21-20.98,36.57-34.91,63.2-34.91
			c26.63,0,49.99,13.94,63.2,34.91C536.63,221.54,531.97,229.96,524.33,229.96z"/>
	</g>
	<g>
		<path class="st3" d="M524.33,233.34H414.38c-4.84,0-9.13-2.53-11.47-6.77c-2.34-4.24-2.2-9.2,0.38-13.29
			c14.39-22.85,39.09-36.49,66.06-36.49s51.67,13.64,66.06,36.49c2.58,4.09,2.72,9.06,0.38,13.29
			C533.46,230.81,529.17,233.34,524.33,233.34z M469.36,183.54c-24.64,0-47.2,12.46-60.34,33.34c-1.24,1.97-1.31,4.37-0.18,6.42
			c1.13,2.05,3.21,3.28,5.55,3.28h109.95c2.34,0,4.42-1.22,5.55-3.28c1.13-2.05,1.06-4.45-0.18-6.42
			C516.55,196,494,183.54,469.36,183.54z"/>
	</g>
	<g>
		<path class="st6" d="M532.58,241.93H406.13c-3.83,0-6.69-3.54-5.87-7.29l0,0c0.6-2.76,3.04-4.72,5.87-4.72h126.45
			c3.94,0,6.81,3.72,5.81,7.53l0,0C537.7,240.09,535.31,241.93,532.58,241.93z"/>
	</g>
	<g>
		<path class="st3" d="M532.58,245.31H406.13c-2.86,0-5.52-1.28-7.31-3.5c-1.79-2.22-2.47-5.1-1.86-7.89
			c0.93-4.28,4.79-7.38,9.17-7.38h126.45c2.93,0,5.64,1.33,7.43,3.65c1.79,2.32,2.39,5.28,1.65,8.12
			C540.58,242.44,536.84,245.31,532.58,245.31z M406.13,233.3c-1.22,0-2.3,0.87-2.57,2.07c-0.23,1.07,0.22,1.84,0.52,2.21
			c0.3,0.36,0.95,0.98,2.05,0.98h126.45c1.19,0,2.24-0.8,2.54-1.96c0.21-0.79,0.04-1.62-0.46-2.27c-0.5-0.65-1.26-1.02-2.08-1.02
			H406.13z"/>
	</g>
	<g>
		<path class="st6" d="M400.12,244.1c0,0.88,0.68,1.61,1.56,1.7c10.01,0.95,10.52,10.97,21.52,10.97
			c11.53,0,11.53-11.04,23.07-11.04c11.54,0,11.54,11.04,23.08,11.04c11.54,0,11.54-11.04,23.08-11.04
			c11.54,0,11.54,11.04,23.08,11.04c11,0,11.52-10.02,21.52-10.97c0.88-0.08,1.56-0.81,1.56-1.7l0,0c0-0.94-0.77-1.71-1.71-1.71
			H401.83C400.89,242.39,400.12,243.16,400.12,244.1L400.12,244.1z"/>
	</g>
	<g>
		<path class="st3" d="M515.51,260.15c-7.13,0-10.87-3.58-13.88-6.46c-2.68-2.56-4.79-4.58-9.2-4.58c-4.41,0-6.53,2.02-9.2,4.58
			c-3.01,2.88-6.75,6.46-13.88,6.46c-7.13,0-10.87-3.58-13.88-6.46c-2.68-2.56-4.79-4.58-9.2-4.58c-4.41,0-6.52,2.02-9.2,4.58
			c-3.01,2.88-6.75,6.46-13.87,6.46c-7.13,0-10.87-3.58-13.88-6.46c-2.44-2.34-4.37-4.19-7.96-4.53c-2.63-0.25-4.62-2.42-4.62-5.06
			c0-2.81,2.28-5.09,5.09-5.09h135.05c2.81,0,5.09,2.28,5.09,5.09c0,2.64-1.99,4.81-4.62,5.06c-3.58,0.34-5.52,2.19-7.96,4.53
			C526.38,256.57,522.64,260.15,515.51,260.15z M502.85,245.77c1.31,0.98,2.42,2.05,3.45,3.03c2.68,2.56,4.79,4.58,9.2,4.58
			c4.41,0,6.53-2.02,9.2-4.58c1.02-0.98,2.14-2.05,3.46-3.03H502.85z M456.69,245.77c1.31,0.98,2.42,2.05,3.45,3.03
			c2.68,2.56,4.79,4.58,9.2,4.58c4.41,0,6.53-2.02,9.2-4.58c1.03-0.98,2.15-2.05,3.45-3.03H456.69z M410.54,245.77
			c1.32,0.98,2.43,2.05,3.46,3.03c2.68,2.56,4.79,4.58,9.2,4.58c4.41,0,6.52-2.02,9.2-4.58c1.03-0.99,2.14-2.05,3.45-3.03H410.54z
			 M536.88,245.77h0.02H536.88z"/>
	</g>
	<g>
		<path class="st3" d="M448.02,212.17c-0.87,1.33-2.66,1.71-3.99,0.83c-1.33-0.87-1.71-2.66-0.83-3.99
			c0.87-1.33,5.07-5.39,6.41-4.52C450.93,205.37,448.89,210.84,448.02,212.17z"/>
	</g>
	<g>
		<path class="st3" d="M429.4,215.67c-1.02,1.23-2.83,1.4-4.06,0.38c-1.23-1.02-1.4-2.83-0.38-4.06c1.02-1.23,5.64-4.79,6.87-3.78
			C433.05,209.23,430.41,214.44,429.4,215.67z"/>
	</g>
	<g>
		<path class="st3" d="M470.34,217.24c-0.1,1.59-1.47,2.8-3.06,2.7s-2.8-1.47-2.7-3.06s1.75-7.19,3.34-7.09
			C469.51,209.88,470.44,215.65,470.34,217.24z"/>
	</g>
	<g>
		<path class="st3" d="M467.42,198.6c-0.64,1.46-2.34,2.13-3.8,1.49c-1.46-0.64-2.13-2.34-1.49-3.8c0.64-1.46,4.1-6.16,5.56-5.52
			C469.16,191.41,468.06,197.14,467.42,198.6z"/>
	</g>
	<g>
		<path class="st3" d="M492.98,195.14c0.99,1.25,0.78,3.06-0.47,4.05c-1.25,0.99-3.06,0.78-4.05-0.47
			c-0.99-1.25-3.51-6.52-2.26-7.51C487.44,190.23,491.99,193.89,492.98,195.14z"/>
	</g>
	<g>
		<path class="st3" d="M493.06,219.09c0.43,1.54-0.47,3.13-2,3.55c-1.53,0.43-3.13-0.47-3.55-2c-0.43-1.53-0.71-7.37,0.82-7.8
			C489.86,212.41,492.64,217.55,493.06,219.09z"/>
	</g>
	<g>
		<path class="st3" d="M512.31,208.78c0.94,1.28,0.67,3.09-0.62,4.03c-1.28,0.94-3.09,0.67-4.03-0.62
			c-0.94-1.28-3.27-6.64-1.99-7.58C506.95,203.67,511.37,207.5,512.31,208.78z"/>
	</g>
</g>
</svg>
