<?xml version="1.0" encoding="utf-8"?>
<!-- Generator: Adobe Illustrator 23.0.5, SVG Export Plug-In . SVG Version: 6.00 Build 0)  -->
<svg version="1.1" id="Layer_1" xmlns="http://www.w3.org/2000/svg" xmlns:xlink="http://www.w3.org/1999/xlink" x="0px" y="0px"
	 viewBox="0 0 883 355" style="enable-background:new 0 0 883 355;" xml:space="preserve">
<style type="text/css">
	.st0{fill:#1D4483;}
	.st1{fill:url(#SVGID_1_);}
	.st2{fill:#EFC41C;}
	.st3{fill:none;stroke:#DDE1E1;stroke-miterlimit:10;}
	.st4{fill:#F9C113;}
	.st5{display:none;fill:none;stroke:#2F3E52;stroke-width:2;stroke-linecap:round;stroke-linejoin:round;stroke-miterlimit:10;}
	.st6{display:none;fill:url(#SVGID_2_);}
	.st7{display:none;}
	.st8{display:inline;}
	.st9{fill:#DDE1E1;}
	.st10{fill:none;}
</style>
<g>
	<g>
		<path class="st0" d="M473.03,134.98c-0.05,0.59-1.32,14.63-13.81,20.62c-11.11,5.32-11.63,17.5-11.63,17.62l-2.63-0.03
			c0.02-0.58,0.61-13.94,13.13-19.94c11.11-5.32,12.29-18.05,12.3-18.18"/>
	</g>
	<g>
		<path class="st0" d="M494.85,213.29l-4.21-30.97l0,0c-1.28-8.93-8.95-15.79-18.23-15.79c-5.55,0-10.53,2.46-13.91,6.35h-24.46
			c-3.38-3.89-8.35-6.35-13.91-6.35c-9.28,0-16.95,6.86-18.23,15.79l0,0l-4.21,30.97l0.03,0.01c-0.02,0.28-0.03,0.55-0.03,0.84
			c0,6.85,5.56,12.41,12.41,12.41c4.64,0,8.69-2.55,10.82-6.33l12.96-22.28h24.79l12.96,22.28c2.13,3.78,6.17,6.33,10.82,6.33
			c6.85,0,12.41-5.56,12.41-12.41c0-0.28-0.01-0.56-0.03-0.84L494.85,213.29z"/>
		<g>
			<linearGradient id="SVGID_1_" gradientUnits="userSpaceOnUse" x1="397.4912" y1="199.3559" x2="428.4292" y2="199.3559">
				<stop  offset="0" style="stop-color:#0F1A2B"/>
				<stop  offset="1" style="stop-color:#1D4483"/>
			</linearGradient>
			<path class="st1" d="M422.3,203.15c-5.09-5.75-0.57-10.7-6.2-19.44c-3.73-5.79-6.61-5.02-9.76-11.35
				c-2.43,2.66-4.1,6.03-4.63,9.77l0,0l-4.21,30.97l0.03,0.01c-0.02,0.28-0.03,0.55-0.03,0.84c0,6.85,5.56,12.41,12.41,12.41
				c4.64,0,8.69-2.55,10.82-6.33l7.71-13.25C426.37,206.25,424.26,205.37,422.3,203.15z"/>
			<path class="st2" d="M420.23,203.78c-10.41,0-18.87-8.47-18.87-18.87c0-10.41,8.47-18.87,18.87-18.87
				c10.41,0,18.87,8.47,18.87,18.87C439.11,195.32,430.64,203.78,420.23,203.78z M420.23,167.02c-9.86,0-17.89,8.03-17.89,17.89
				s8.03,17.89,17.89,17.89s17.89-8.03,17.89-17.89S430.1,167.02,420.23,167.02z"/>
			<path class="st3" d="M413.34,200.12"/>
			<path class="st4" d="M472.43,203.78c-10.41,0-18.87-8.47-18.87-18.87c0-10.41,8.47-18.87,18.87-18.87s18.87,8.47,18.87,18.87
				C491.3,195.32,482.83,203.78,472.43,203.78z M472.43,167.02c-9.86,0-17.89,8.03-17.89,17.89s8.03,17.89,17.89,17.89
				s17.89-8.03,17.89-17.89S482.29,167.02,472.43,167.02z"/>
		</g>
	</g>
	<path class="st5" d="M467.1,208.73"/>
	
		<linearGradient id="SVGID_2_" gradientUnits="userSpaceOnUse" x1="452.3517" y1="202.6151" x2="490.5271" y2="202.6151" gradientTransform="matrix(0.9999 -0.0124 0.0124 0.9999 1.1778 7.5858)">
		<stop  offset="0" style="stop-color:#0F1A2B"/>
		<stop  offset="1" style="stop-color:#1D4483"/>
	</linearGradient>
	<path class="st6" d="M471.17,220.54c2.17,3.75,6.25,6.25,10.9,6.2c6.85-0.09,12.34-5.71,12.25-12.56c0-0.28-0.02-0.56-0.04-0.84
		l0.03-0.01l-4.6-30.91l0,0c-0.04-0.27-0.11-0.53-0.16-0.79c0.22,1.09,0.35,2.22,0.37,3.38c0.13,10.15-8.01,19.17-18.15,18.61
		c-10.31-0.57-10.33-2.08-15.91-12.34"/>
	<g class="st7">
		<g class="st8">
			<g>
				<path class="st9" d="M407.77,224.61c-1.28-0.16-2.53-0.63-3.68-1.28c-1.13-0.68-2.14-1.57-2.97-2.62
					c-0.82-1.05-1.45-2.27-1.83-3.56c-0.18-0.65-0.3-1.31-0.38-1.98l-0.05-1.01l0.03-0.94l0-0.1v0c0.31-2.18,0.63-4.35,1.02-6.52
					c0.37-2.17,0.77-4.33,1.25-6.49c-0.11,2.2-0.31,4.4-0.53,6.58c-0.2,2.19-0.48,4.37-0.76,6.55l0-0.1c0,0.23,0,0.39-0.01,0.53
					l-0.01,0.46l0.04,0.92c0.06,0.61,0.16,1.22,0.32,1.81c0.32,1.19,0.85,2.32,1.55,3.34C403.17,222.28,405.31,223.83,407.77,224.61
					z"/>
			</g>
			<g>
				<path class="st9" d="M410.09,224.86c-0.07,0.39-0.15,0.48-0.23,0.5c-0.08-0.02-0.15-0.11-0.21-0.5c0.09-0.39,0.16-0.48,0.23-0.5
					C409.95,224.37,410.01,224.46,410.09,224.86z"/>
			</g>
		</g>
		<g class="st8">
			<g>
				<path class="st10" d="M435.57,174.56"/>
			</g>
			<g>
				<path class="st10" d="M451.06,174.56"/>
			</g>
		</g>
		<g class="st8">
			<g>
				<path class="st9" d="M480.16,224.61c-1.77-0.2-3.53-0.9-4.96-2.06c-0.73-0.57-1.37-1.24-1.92-1.99
					c-0.55-0.76-0.95-1.56-1.4-2.32c-1.73-3.1-3.39-6.24-4.78-9.52c2.08,2.9,3.9,5.95,5.65,9.03c0.44,0.78,0.84,1.57,1.3,2.26
					c0.46,0.71,1.04,1.35,1.65,1.94C476.95,223.14,478.47,224.04,480.16,224.61z"/>
			</g>
			<g>
				<path class="st9" d="M482.44,224.86c-0.1,0.39-0.22,0.48-0.33,0.49c-0.11-0.02-0.22-0.11-0.3-0.51
					c0.13-0.39,0.23-0.48,0.33-0.49C482.24,224.37,482.33,224.46,482.44,224.86z"/>
			</g>
		</g>
	</g>
	<path class="st2" d="M449.53,184.91c0-1.84-1.49-3.34-3.34-3.34c-1.84,0-3.34,1.49-3.34,3.34c0,1.84,1.49,3.34,3.34,3.34
		C448.04,188.25,449.53,186.75,449.53,184.91z"/>
	<g>
		<circle class="st2" cx="472.43" cy="177.98" r="3.03"/>
		<circle class="st2" cx="472.43" cy="191.85" r="3.03"/>
		<circle class="st2" cx="465.49" cy="184.91" r="3.03"/>
		<circle class="st2" cx="479.36" cy="184.91" r="3.03"/>
	</g>
	<path class="st4" d="M427.17,182.11h-4.13v-4.13c0-1.55-1.25-2.8-2.8-2.8c-1.55,0-2.8,1.25-2.8,2.8v4.13h-4.13
		c-1.55,0-2.8,1.25-2.8,2.8c0,1.55,1.25,2.8,2.8,2.8h4.13v4.13c0,1.55,1.25,2.8,2.8,2.8c1.55,0,2.8-1.25,2.8-2.8v-4.13h4.13
		c1.55,0,2.8-1.25,2.8-2.8C429.97,183.36,428.72,182.11,427.17,182.11z"/>
</g>
</svg>
