<?xml version="1.0" encoding="utf-8"?>
<!-- Generator: Adobe Illustrator 23.0.5, SVG Export Plug-In . SVG Version: 6.00 Build 0)  -->
<svg version="1.1" id="Layer_1" xmlns="http://www.w3.org/2000/svg" xmlns:xlink="http://www.w3.org/1999/xlink" x="0px" y="0px"
	 viewBox="0 0 883 355" style="enable-background:new 0 0 883 355;" xml:space="preserve">
<style type="text/css">
	.st0{fill-rule:evenodd;clip-rule:evenodd;fill:#1D4483;}
	.st1{fill-rule:evenodd;clip-rule:evenodd;fill:#F9C113;}
	.st2{fill-rule:evenodd;clip-rule:evenodd;fill:url(#SVGID_1_);}
	.st3{fill-rule:evenodd;clip-rule:evenodd;fill:url(#SVGID_2_);}
	.st4{fill-rule:evenodd;clip-rule:evenodd;fill:url(#SVGID_3_);}
</style>
<g>
	<g>
		<path class="st0" d="M441.22,173.92c-1.48-1.24-0.95-4.6,2.04-4.6h43.17c1.41,0,2.58-0.98,2.8-2.25v-0.83
			c-0.21-1.27-1.39-2.25-2.8-2.25c-14.3,0-28.59,0-42.89,0c-1.72,0-3.12-1.32-3.12-2.93l0,0c0-1.61,1.4-2.93,3.12-2.93h42.89
			c1.41,0,2.58-0.98,2.8-2.25v-0.83c-0.21-1.27-1.39-2.25-2.8-2.25c-14.3,0-28.59,0-42.89,0c-1.72,0-3.12-1.32-3.12-2.93l0,0
			c0-1.61,1.4-2.93,3.12-2.93l42.89,0c1.41,0,2.58-0.98,2.8-2.25v-0.83c-0.21-1.27-1.39-2.25-2.8-2.25c-14.3,0-28.59,0-42.89,0
			c-1.72,0-3.12-1.32-3.12-2.93l0,0c0-1.61,1.4-2.93,3.12-2.93h42.89c1.56,0,2.83-1.2,2.83-2.66v0c0-1.46-1.28-2.66-2.83-2.66
			c-14.3,0-28.59,0-42.89,0c-1.72,0-3.12-1.32-3.12-2.93l0,0c0-1.61,1.4-2.93,3.12-2.93h42.89c1.56,0,2.83-1.2,2.83-2.66v0
			c0-1.46-1.28-2.66-2.83-2.66c-14.3,0-28.59,0-42.89,0c-1.72,0-3.12-1.32-3.12-2.93l0,0c0-1.61,1.4-2.93,3.12-2.93h42.89
			c1.56,0,2.83-1.2,2.83-2.66l0,0c0-1.47-1.28-2.66-2.83-2.66c-14.3,0-28.59,0-42.89,0c-1.72,0-3.12-1.32-3.12-2.93l0,0
			c0-1.61,1.4-2.93,3.12-2.93c14.3,0,28.59,0,42.89,0c1.56,0,2.83-1.2,2.83-2.66v0c0-1.47-1.28-2.66-2.83-2.66
			c-14.3,0-28.59,0-42.89,0c-1.72,0-3.12-1.32-3.12-2.93l0,0c0-1.61,1.4-2.93,3.12-2.93c14.3,0,28.59,0,42.89,0
			c1.56,0,2.83-1.2,2.83-2.66l0,0c0-1.46-1.28-2.66-2.83-2.66h-43.17c-3.09,0-3.34-3.47-1.79-4.81c2.65-2.3,6.52-3.84,10.77-4.45
			c16.46-2.36,47.67-9.15,55.42,8.65c5.92,13.57,3.49,82.22,0.33,90.64c-3.82,10.18-6.56,17.75-6.84,26.53
			c-0.53,17.12,5.54,39.56,5.54,54.66c0,22.54-4.74,33.5-10.83,33.07c-6.08,0.42-10.82-10.53-10.82-33.07
			c0-14.79,7.34-37.6,5.73-53.78c-0.73-7.34-4-12.57-8.74-16.27C467.63,175.64,450,181.3,441.22,173.92z"/>
		<path class="st1" d="M408.05,140.87c-4.75-0.98-9.9,6.56-9.9,17.73v27.15h15.47V158.6C413.62,151.28,410.51,141.38,408.05,140.87z
			 M412.4,174.58c0,0.81-0.66,1.47-1.47,1.47h0c-0.81,0-1.47-0.66-1.47-1.47v-17.65c0-1.39-0.06-3.98-0.83-5.58
			c0.67-1.23,0.92-2.67,0.87-4.04c0.32,0.14,0.64,0.41,0.93,0.83c1.12,1.59,1.97,6.39,1.97,8.71V174.58z"/>
		<path class="st1" d="M459.42,183.56h-22.94c-3.7,0-6.72,3.03-6.72,6.72v92.19c0,3.7,3.03,6.72,6.72,6.72h22.94
			c3.7,0,6.72-3.03,6.72-6.72v-92.19C466.14,186.59,463.12,183.56,459.42,183.56z M461.4,283.42c0,1.09-0.89,1.97-1.97,1.97
			c-1.08,0-1.97-0.89-1.97-1.97v-94.08c0-1.08,0.89-1.97,1.97-1.97c1.09,0,1.97,0.89,1.97,1.97V283.42z"/>
		<path class="st0" d="M414.12,188h-16.46c-2.65,0-4.82,2.17-4.82,4.82v50.35c0.51-0.12,1.04-0.19,1.58-0.19h22.94
			c0.54,0,1.07,0.07,1.58,0.19v-50.35C418.94,190.17,416.77,188,414.12,188z M415.6,239.35h-3.46v-45.79c0-0.95,0.78-1.73,1.73-1.73
			c0.95,0,1.73,0.78,1.73,1.73V239.35z"/>
		<path class="st0" d="M417.36,245.79h-22.94c-3.7,0-6.72,3.03-6.72,6.72v29.96c0,3.7,3.03,6.72,6.72,6.72h22.94
			c3.7,0,6.72-3.03,6.72-6.72v-29.96C424.08,248.81,421.06,245.79,417.36,245.79z M419.86,283.52c0,1.08-0.89,1.97-1.97,1.97
			c-1.09,0-1.97-0.89-1.97-1.97v-32.06c0-1.08,0.89-1.97,1.97-1.97c1.08,0,1.97,0.89,1.97,1.97V283.52z"/>
		<linearGradient id="SVGID_1_" gradientUnits="userSpaceOnUse" x1="392.8351" y1="218.7053" x2="409.7646" y2="218.7053">
			<stop  offset="0" style="stop-color:#0F1A2B"/>
			<stop  offset="1" style="stop-color:#1D4483"/>
		</linearGradient>
		<path class="st2" d="M409.76,242.98c-4.82-6.93-11.38-10.4-11.32-18.65c0.03-3.6,1.29-3.47,2.07-9.33
			c0.16-1.18,2.15-17-3.63-20.21c-1.16-0.65-2.57-0.66-4.06-0.37v48.76c0.51-0.12,1.04-0.19,1.58-0.19H409.76z"/>
		<linearGradient id="SVGID_2_" gradientUnits="userSpaceOnUse" x1="387.6917" y1="267.4933" x2="413.8361" y2="267.4933">
			<stop  offset="0" style="stop-color:#0F1A2B"/>
			<stop  offset="1" style="stop-color:#1D4483"/>
		</linearGradient>
		<path class="st3" d="M411.81,276.73c-0.7-17.14,4.48-19.86,0.52-29.03c-0.3-0.7-0.67-1.28-1.01-1.92h-16.9
			c-3.7,0-6.72,3.03-6.72,6.72v29.96c0,3.7,3.03,6.72,6.72,6.72h18.98C412.63,285.8,412.02,281.73,411.81,276.73z"/>
	</g>
	<path class="st0" d="M380.3,201.53"/>
	<linearGradient id="SVGID_3_" gradientUnits="userSpaceOnUse" x1="398.1507" y1="165.7189" x2="410.6735" y2="165.7189">
		<stop  offset="0" style="stop-color:#FFF33B"/>
		<stop  offset="0.0595" style="stop-color:#FFE029"/>
		<stop  offset="0.1303" style="stop-color:#FFD218"/>
		<stop  offset="0.2032" style="stop-color:#FEC90F"/>
		<stop  offset="0.2809" style="stop-color:#FDC70C"/>
		<stop  offset="0.6685" style="stop-color:#F3903F"/>
		<stop  offset="0.8876" style="stop-color:#ED683C"/>
		<stop  offset="1" style="stop-color:#E93E3A"/>
	</linearGradient>
	<path class="st4" d="M408.29,178.59c-3.06-7.05-6.06-6.74-7.26-11.75c-2.16-9.06,6.22-16.02,3.28-19.7
		c-0.69-0.87-1.91-1.28-3.25-1.46c-1.74,3.14-2.92,7.6-2.92,12.92v27.15h12.52C409.93,182.37,408.62,179.35,408.29,178.59z"/>
</g>
</svg>
