<?xml version="1.0" encoding="utf-8"?>
<!-- Generator: Adobe Illustrator 23.0.5, SVG Export Plug-In . SVG Version: 6.00 Build 0)  -->
<svg version="1.1" id="Layer_1" xmlns="http://www.w3.org/2000/svg" xmlns:xlink="http://www.w3.org/1999/xlink" x="0px" y="0px"
	 viewBox="0 0 883 355" style="enable-background:new 0 0 883 355;" xml:space="preserve">
<style type="text/css">
	.st0{fill:#F9C113;}
	.st1{fill:url(#SVGID_1_);}
	.st2{fill:#1D4483;}
	.st3{fill:url(#SVGID_2_);}
	.st4{fill:url(#SVGID_3_);}
</style>
<g>
	<path class="st0" d="M437.05,129.65"/>
	<path class="st0" d="M477.23,152.98h-8.01v-23.18c0-2.84-2.3-5.15-5.14-5.15h-15.43c-2.84,0-5.14,2.3-5.14,5.15v23.18h-8.01
		c-3.55,0-4.71,2.32-2.6,5.17l5.96,8c2.12,2.84,5.58,7.49,7.7,10.33l5.96,8c2.12,2.84,5.58,2.84,7.7,0l5.96-8
		c2.12-2.84,5.58-7.49,7.7-10.33l5.96-8C481.94,155.31,480.77,152.98,477.23,152.98z"/>
	<linearGradient id="SVGID_1_" gradientUnits="userSpaceOnUse" x1="431.8374" y1="154.6398" x2="454.6562" y2="154.6398">
		<stop  offset="0" style="stop-color:#FFF33B"/>
		<stop  offset="0.0595" style="stop-color:#FFE029"/>
		<stop  offset="0.1303" style="stop-color:#FFD218"/>
		<stop  offset="0.2032" style="stop-color:#FEC90F"/>
		<stop  offset="0.2809" style="stop-color:#FDC70C"/>
		<stop  offset="0.6685" style="stop-color:#F3903F"/>
		<stop  offset="0.8876" style="stop-color:#ED683C"/>
		<stop  offset="1" style="stop-color:#E93E3A"/>
	</linearGradient>
	<path class="st1" d="M450.39,158.76c0.08-6.78,3.32-7.5,2.43-13.04c-0.93-5.75-4.62-6.08-6.06-12.73
		c-0.79-3.64-0.33-6.48-0.24-8.33c-1.77,0.81-3.01,2.58-3.01,4.66v23.18h-8.01c-3.55,0-4.71,2.32-2.6,5.17l5.96,8
		c2.12,2.84,5.58,7.49,7.7,10.33l5.96,8c0.18,0.24,0.38,0.43,0.57,0.63c1.21-3.17,1.69-6.86,1.55-9.79
		C454.3,167.48,450.3,166.31,450.39,158.76z"/>
	<path class="st2" d="M367.98,117.12"/>
	<path class="st2" d="M517.22,148.78c-4.64-1.06-9.26,1.83-10.33,6.47l-9.94,43.3l-75.02-0.69l-18.08-72.3
		c-0.58-2.33-2.11-4.3-4.21-5.46l-16.41-9.02c-4.17-2.29-9.41-0.77-11.7,3.4c-2.29,4.17-0.77,9.41,3.4,11.7l13.12,7.21l18.41,73.64
		l-9.92,7.83c-1.18,0.94-1.87,2.36-1.87,3.86v12.31c0,2.69,2.16,4.89,4.85,4.92l13.9,0.2c-1.93,1.8-3.16,4.34-3.16,7.19
		c0,5.44,4.41,9.84,9.85,9.84c5.44,0,9.85-4.4,9.85-9.84c0-2.74-1.12-5.21-2.93-6.99l64.99,0.91c-1.33,1.68-2.16,3.77-2.16,6.08
		c0,5.44,4.41,9.84,9.85,9.84s9.85-4.4,9.85-9.84c0-2.2-0.75-4.22-1.98-5.86l8.47,0.12c0.02,0,0.05,0,0.07,0
		c2.68,0,4.88-2.16,4.92-4.85c0.04-2.72-2.14-4.95-4.85-4.99l-111.67-1.57v-5.07l8.19-6.46c0.76,0.23,1.56,0.38,2.39,0.39
		l88.61,0.82c0.03,0,0.06,0,0.08,0c4.01,0,7.5-2.77,8.4-6.69l11.5-50.05C524.76,154.47,521.86,149.85,517.22,148.78z"/>
	<g>
		<linearGradient id="SVGID_2_" gradientUnits="userSpaceOnUse" x1="388.657" y1="194.5587" x2="435.7052" y2="194.5587">
			<stop  offset="0" style="stop-color:#0F1A2B"/>
			<stop  offset="1" style="stop-color:#1D4483"/>
		</linearGradient>
		<path class="st3" d="M404.52,221.16l8.19-6.46c0.76,0.23,1.56,0.38,2.39,0.39l14.03,0.13c-0.28-2.65-0.5-4.8-2.12-8.4
			c-6.73-15.02-18.36-12.44-23.35-24.26c-6.37-15.09,8.57-28.82,0.61-38.81c-3.7-4.64-7.08-1.88-14.86-7.28
			c-0.27-0.19-0.5-0.39-0.76-0.59l17.8,71.2l-9.92,7.83c-1.18,0.94-1.87,2.36-1.87,3.86v12.31c0,2.69,2.16,4.89,4.85,4.92l13.9,0.2
			c-1.93,1.8-3.16,4.34-3.16,7.19c0,5.44,4.41,9.84,9.85,9.84c5.44,0,9.85-4.4,9.85-9.84c0-2.74-1.12-5.21-2.93-6.99l8.68,0.12
			c-1.35-2.55-2.77-5.72-4.13-9.91l-27.06-0.38V221.16z"/>
		<linearGradient id="SVGID_3_" gradientUnits="userSpaceOnUse" x1="370.4642" y1="121.8763" x2="383.2137" y2="121.8763">
			<stop  offset="0" style="stop-color:#0F1A2B"/>
			<stop  offset="1" style="stop-color:#1D4483"/>
		</linearGradient>
		<path class="st4" d="M383.21,130.78c-5.85-6.98-7.49-14.75-10.57-17.81c-0.42,0.47-0.8,0.98-1.12,1.56
			c-2.29,4.17-0.77,9.41,3.4,11.7L383.21,130.78z"/>
	</g>
</g>
</svg>
