<?xml version="1.0" encoding="utf-8"?>
<!-- Generator: Adobe Illustrator 23.0.5, SVG Export Plug-In . SVG Version: 6.00 Build 0)  -->
<svg version="1.1" id="Layer_1" xmlns="http://www.w3.org/2000/svg" xmlns:xlink="http://www.w3.org/1999/xlink" x="0px" y="0px"
	 viewBox="0 0 883 355" style="enable-background:new 0 0 883 355;" xml:space="preserve">
<style type="text/css">
	.st0{fill:#1D4483;}
	.st1{fill:#4086C6;}
	.st2{fill:#2569B3;}
	.st3{fill:#0D5AA4;}
	.st4{fill:#FDD800;}
	.st5{fill:#DBA827;}
	.st6{fill:#EFC41C;}
	.st7{fill:url(#SVGID_1_);}
	.st8{fill:#EA662C;}
	.st9{fill:#F9C113;}
	.st10{fill:#786328;}
</style>
<g>
	<g>
		<rect x="345.21" y="104.07" class="st0" width="98.19" height="33.27"/>
		
			<rect x="443.4" y="104.07" transform="matrix(-1 -1.224647e-16 1.224647e-16 -1 921.5732 241.4165)" class="st1" width="34.77" height="33.27"/>
		<path class="st0" d="M375.36,94.66h-18.96c-0.53,0-0.95,0.43-0.95,0.95v8.46h20.86v-8.46C376.31,95.09,375.88,94.66,375.36,94.66z
			"/>
		<path class="st0" d="M408.08,94.66h-18.96c-0.53,0-0.95,0.43-0.95,0.95v8.46h20.86v-8.46C409.03,95.09,408.61,94.66,408.08,94.66z
			"/>
		<path class="st0" d="M433.45,94.66h-18.96c-0.53,0-0.95,0.43-0.95,0.95v8.46h20.86v-8.46C434.4,95.09,433.97,94.66,433.45,94.66z"
			/>
		<path class="st0" d="M466.18,94.66h-18.96c-0.53,0-0.95,0.43-0.95,0.95v8.46h20.86v-8.46C467.13,95.09,466.7,94.66,466.18,94.66z"
			/>
	</g>
	<g>
		<rect x="292.44" y="170.35" class="st0" width="98.19" height="33.27"/>
		
			<rect x="390.63" y="170.35" transform="matrix(-1 -1.224647e-16 1.224647e-16 -1 816.0241 373.9667)" class="st1" width="34.77" height="33.27"/>
		<path class="st0" d="M322.58,160.94h-18.96c-0.53,0-0.95,0.43-0.95,0.95v8.46h20.86v-8.46
			C323.53,161.36,323.11,160.94,322.58,160.94z"/>
		<path class="st0" d="M355.31,160.94h-18.96c-0.53,0-0.95,0.43-0.95,0.95v8.46h20.86v-8.46
			C356.26,161.36,355.83,160.94,355.31,160.94z"/>
		<path class="st2" d="M352.85,160.94h-18.96c-0.53,0-0.95,0.43-0.95,0.95v8.46h20.86v-8.46
			C353.8,161.36,353.37,160.94,352.85,160.94z"/>
		<path class="st3" d="M385.58,160.94h-18.96c-0.53,0-0.95,0.43-0.95,0.95v8.46h20.86v-8.46
			C386.53,161.36,386.1,160.94,385.58,160.94z"/>
	</g>
	<g>
		<rect x="345.21" y="137.21" class="st1" width="154.91" height="33.27"/>
		
			<rect x="500.13" y="137.21" transform="matrix(-1 -1.224647e-16 1.224647e-16 -1 1032.3044 307.6915)" class="st1" width="32.05" height="33.27"/>
		<path class="st1" d="M491.54,127.8h-18.96c-0.53,0-0.95,0.43-0.95,0.95v8.46h20.86v-8.46C492.49,128.23,492.07,127.8,491.54,127.8
			z"/>
		<path class="st1" d="M524.27,127.8h-18.96c-0.53,0-0.95,0.43-0.95,0.95v8.46h20.86v-8.46C525.22,128.23,524.8,127.8,524.27,127.8z
			"/>
	</g>
	<g>
		
			<rect x="443.4" y="203.6" transform="matrix(-1 -1.224647e-16 1.224647e-16 -1 921.5732 440.4804)" class="st4" width="34.77" height="33.27"/>
		<path class="st4" d="M433.45,194.19h-18.96c-0.53,0-0.95,0.43-0.95,0.95v8.46h20.86v-8.46
			C434.4,194.62,433.97,194.19,433.45,194.19z"/>
		<path class="st5" d="M438.35,194.19h-18.96c-0.53,0-0.95,0.43-0.95,0.95v8.46h20.86v-8.46
			C439.3,194.62,438.87,194.19,438.35,194.19z"/>
	</g>
	<rect x="343.92" y="203.86" class="st6" width="98.19" height="33.27"/>
	
		<radialGradient id="SVGID_1_" cx="391.7226" cy="220.2402" r="36.3051" fx="356.5043" fy="211.4236" gradientUnits="userSpaceOnUse">
		<stop  offset="0" style="stop-color:#FFF33B"/>
		<stop  offset="0.0595" style="stop-color:#FFE029"/>
		<stop  offset="0.1303" style="stop-color:#FFD218"/>
		<stop  offset="0.2032" style="stop-color:#FEC90F"/>
		<stop  offset="0.2809" style="stop-color:#FDC70C"/>
		<stop  offset="0.6685" style="stop-color:#F3903F"/>
	</radialGradient>
	<path class="st7" d="M433.29,223.4c-4.98-6.82-10.43-10.49-13.16-12.39c-3.56-2.47-6.79-4.94-9.88-7.4h-67.1v33.27h97.15
		C438.57,232.09,436.28,227.49,433.29,223.4z"/>
	<path class="st8" d="M593.04,151.12h-31.98v-14.48h31.98c4,0,7.24,3.24,7.24,7.24l0,0C600.29,147.88,597.04,151.12,593.04,151.12z"
		/>
	
		<ellipse transform="matrix(0.2278 -0.9737 0.9737 0.2278 278.9568 631.6725)" class="st9" cx="537.74" cy="139.96" rx="42.84" ry="42.84"/>
	<path class="st9" d="M497.39,266.71h48.23c21.99,0,39.81-17.82,39.81-39.81l0,0c0-21.99-17.82-39.81-39.81-39.81H417.77l0,0
		C417.77,231.06,453.42,266.71,497.39,266.71z"/>
	
		<rect x="518.95" y="162.75" transform="matrix(0.9301 -0.3672 0.3672 0.9301 -31.8187 210.6755)" class="st9" width="37.58" height="52.42"/>
	<path class="st9" d="M499.12,240.93h28.44c12.96,0,23.47-10.51,23.47-23.47v0c0-12.96-10.51-23.47-23.47-23.47h-75.39l0,0
		C452.17,219.92,473.19,240.93,499.12,240.93z"/>
	<path class="st10" d="M466.95,193.99L466.95,193.99l-14.78,0v0c0,25.93,21.02,46.95,46.95,46.95h14.78
		C487.97,240.93,466.95,219.92,466.95,193.99z"/>
	
		<ellipse transform="matrix(0.229 -0.9734 0.9734 0.229 276.1479 650.8874)" class="st6" cx="548.96" cy="151.12" rx="16.86" ry="16.86"/>
	<circle class="st10" cx="559.25" cy="127.7" r="6.56"/>
</g>
</svg>
