<?xml version="1.0" encoding="utf-8"?>
<!-- Generator: Adobe Illustrator 23.0.5, SVG Export Plug-In . SVG Version: 6.00 Build 0)  -->
<svg version="1.1" id="Layer_1" xmlns="http://www.w3.org/2000/svg" xmlns:xlink="http://www.w3.org/1999/xlink" x="0px" y="0px"
	 viewBox="0 0 883 355" style="enable-background:new 0 0 883 355;" xml:space="preserve">
<style type="text/css">
	.st0{fill:#1D4483;}
	.st1{opacity:0.8;fill:url(#SVGID_1_);}
	.st2{fill:url(#SVGID_2_);}
</style>
<g>
	<path class="st0" d="M448.63,92.86c0.6,0.61,1.42,0.32,2.13,0.48c11.74,2.66,19.9,13.22,19.61,25.45
		c-0.29,12.45-8.8,22.57-20.75,24.67c-12.53,2.2-24.98-6.53-27.85-19.53c-3.05-13.84,5.43-27.44,19.02-30.56
		c0.72-0.17,1.53,0.04,2.16-0.51C444.84,92.86,446.73,92.86,448.63,92.86z"/>
	<linearGradient id="SVGID_1_" gradientUnits="userSpaceOnUse" x1="410.8093" y1="194.0345" x2="480.42" y2="194.0345">
		<stop  offset="0" style="stop-color:#D36127"/>
		<stop  offset="1" style="stop-color:#F9C113"/>
	</linearGradient>
	<path class="st1" d="M480.42,198.3c-4.9,5.31-10.58,8.97-17.14,11.26c-8.43,2.94-16.99,3.1-25.6,0.97
		c-2.73-0.68-5.6-1.78-6.53-4.61c-0.79-2.41-1.77-2.17-3.7-1.76c-7.57,1.6-14.9-3.4-16.35-10.94c-1.54-7.99,3.36-15.31,11.28-16.86
		c7.32-1.43,14.61,3.63,16.11,11.19c0.14,0.69,0.25,1.39,0.39,2.18c1.06-0.53,2.07-1.1,3.12-1.57c3.43-1.52,6.94-1.65,10.52-0.56
		C461.99,190.46,471.1,194.3,480.42,198.3z"/>
	<path class="st0" d="M501.87,204.73c-0.21-2.71-0.51-5.41-1.01-8.07c-2.2-11.9-5.66-23.47-9.11-35.04
		c-1.15-3.87-3.32-7.01-6.34-9.59c-6.3-5.39-13.8-7.14-21.87-7.13c-13.11,0.01-26.23,0.02-39.34,0.03c-2.85,0-5.67,0.3-8.4,1.09
		c-8.09,2.37-14.11,6.92-16.24,15.56c-0.52,2.11-1.28,4.17-1.86,6.26c-3.1,11.12-6.17,22.25-7.84,33.72
		c-0.83,5.71,0.5,10.38,5.08,14.01c0.55,0.44,1.07,0.93,1.62,1.38c4.21,3.46,8.91,6.17,13.74,8.66c0.79,0.41,1.36,0.68,0.98,1.82
		c-4.37,13.14-8.69,26.29-13.01,39.45c-0.35,1.06,0.44,2.14,1.55,2.14h94.44c1.1,0,1.88-1.06,1.56-2.12
		c-4.13-13.36-8.23-26.72-12.42-40.06c-0.5-1.59-0.26-2.31,1.25-3.12c5.11-2.73,9.95-5.88,13.97-10.15
		C500.94,211.06,502.13,208.22,501.87,204.73z M463.88,209.86c-8.43,2.94-16.99,3.1-25.6,0.97c-2.73-0.68-5.6-1.78-6.53-4.61
		c-0.79-2.41-1.77-2.17-3.7-1.76c-7.57,1.6-14.9-3.4-16.35-10.94c-1.54-7.99,3.36-15.31,11.28-16.86
		c7.32-1.43,14.61,3.63,16.11,11.19c0,0.01,0,0.01,0,0.02c0.21,1.06,1.37,1.64,2.33,1.16c0.39-0.2,0.78-0.39,1.18-0.57
		c3.43-1.52,6.94-1.65,10.52-0.56c8.73,2.65,17.15,6.11,25.71,9.77c1.08,0.46,1.33,1.87,0.48,2.69
		C474.82,204.72,469.7,207.83,463.88,209.86z"/>
	<linearGradient id="SVGID_2_" gradientUnits="userSpaceOnUse" x1="389.5584" y1="213.3488" x2="440.2452" y2="213.3488">
		<stop  offset="0" style="stop-color:#0F1A2B"/>
		<stop  offset="1" style="stop-color:#1D4483"/>
	</linearGradient>
	<path class="st2" d="M419.15,254.33c0.7-11.17,20.2-13.05,21.07-23.5c1.05-12.72-27.3-16.01-32.41-37.27
		c-3.13-13.02,5.53-19.99-0.81-29.17c-1.98-2.86-4.29-4.31-6.88-5.78c-0.23,0.66-0.44,1.34-0.62,2.06
		c-0.52,2.11-1.28,4.17-1.86,6.26c-3.1,11.12-6.17,22.25-7.84,33.72c-0.83,5.71,0.5,10.38,5.08,14.01c0.55,0.44,1.07,0.93,1.62,1.38
		c4.21,3.46,8.91,6.17,13.74,8.65c0.79,0.41,1.36,0.68,0.98,1.82c-4.37,13.14-8.69,26.29-13.01,39.45
		c-0.35,1.06,0.44,2.14,1.55,2.14h28.99C423.97,264.25,418.78,260.25,419.15,254.33z"/>
</g>
</svg>
