<?xml version="1.0" encoding="utf-8"?>
<!-- Generator: Adobe Illustrator 23.0.5, SVG Export Plug-In . SVG Version: 6.00 Build 0)  -->
<svg version="1.1" id="Layer_1" xmlns="http://www.w3.org/2000/svg" xmlns:xlink="http://www.w3.org/1999/xlink" x="0px" y="0px"
	 viewBox="0 0 883 355" style="enable-background:new 0 0 883 355;" xml:space="preserve">
<style type="text/css">
	.st0{fill:#F9C113;}
	.st1{fill:#1D4483;}
	.st2{fill:url(#SVGID_1_);}
</style>
<g>
	<rect x="387.32" y="132.55" class="st0" width="124.39" height="128.53"/>
	<g>
		<path class="st1" d="M503.32,264.29L503.32,264.29l25.51,0c8.99,0,16.3-7.31,16.3-16.3V146.53c0-8.99-7.31-16.3-16.3-16.3h-33.92
			v-10.21c0-11.98-9.74-21.72-21.72-21.72h-55.37c-11.98,0-21.72,9.75-21.72,21.72v10.21h-33.93c-8.99,0-16.3,7.31-16.3,16.3v101.45
			c0,8.99,7.31,16.3,16.3,16.3h38.05v0H503.32z M429.08,259.75h-2.74V134.76h2.74V259.75z M457.15,259.75h-23.28V134.76h23.28
			V259.75z M464.68,259.75h-2.74V134.76h2.74V259.75z M412.41,120.03c0-2.99,2.43-5.42,5.42-5.42h55.37c2.98,0,5.42,2.43,5.42,5.42
			v10.21h-13.93h-2.74h-4.79h-23.28h-4.79h-2.74h-13.93V120.03z"/>
	</g>
	<linearGradient id="SVGID_1_" gradientUnits="userSpaceOnUse" x1="345.8751" y1="197.2585" x2="437.1594" y2="197.2585">
		<stop  offset="0" style="stop-color:#0F1A2B"/>
		<stop  offset="1" style="stop-color:#1D4483"/>
	</linearGradient>
	<path class="st2" d="M435.85,264.29c0.58-1.46,1.02-2.97,1.31-4.53h-3.29v-18.88c-1.38-2.75-3.02-5.37-4.79-7.79v26.67h-2.74V229.6
		c-4.56-5.49-9.26-9.62-11.46-11.55c-18.33-16.07-29.45-10.48-38.62-22.43c-14.68-19.14,1.23-49.94,1.15-65.39h-15.24
		c-8.99,0-16.3,7.31-16.3,16.3v101.45c0,8.99,7.31,16.3,16.3,16.3h38.05v0H435.85z"/>
</g>
</svg>
