<?xml version="1.0" encoding="utf-8"?>
<!-- Generator: Adobe Illustrator 23.0.5, SVG Export Plug-In . SVG Version: 6.00 Build 0)  -->
<svg version="1.1" id="Layer_1" xmlns="http://www.w3.org/2000/svg" xmlns:xlink="http://www.w3.org/1999/xlink" x="0px" y="0px"
	 viewBox="0 0 883 355" style="enable-background:new 0 0 883 355;" xml:space="preserve">
<style type="text/css">
	.st0{fill:#1B4583;}
	.st1{fill:url(#SVGID_1_);}
	.st2{fill:#FFFFFF;}
</style>
<g>
	<path class="st0" d="M557.16,98H334.77c-14.94,0-27.05,12.11-27.05,27.05v112.53c0,14.94,12.11,27.05,27.05,27.05h222.39
		c14.94,0,27.05-12.11,27.05-27.05V125.05C584.2,110.11,572.1,98,557.16,98z M324.81,253.62c-3.74,0-6.77-3.03-6.77-6.77
		s3.03-6.77,6.77-6.77s6.77,3.03,6.77,6.77S328.55,253.62,324.81,253.62z M324.81,122.54c-3.74,0-6.77-3.03-6.77-6.77
		c0-3.74,3.03-6.77,6.77-6.77s6.77,3.03,6.77,6.77C331.58,119.51,328.55,122.54,324.81,122.54z M561.68,255.19
		c-3.74,0-6.77-3.03-6.77-6.77c0-3.74,3.03-6.77,6.77-6.77c3.74,0,6.77,3.03,6.77,6.77C568.44,252.16,565.41,255.19,561.68,255.19z
		 M561.68,124.11c-3.74,0-6.77-3.03-6.77-6.77s3.03-6.77,6.77-6.77c3.74,0,6.77,3.03,6.77,6.77S565.41,124.11,561.68,124.11z"/>
	<linearGradient id="SVGID_1_" gradientUnits="userSpaceOnUse" x1="307.7209" y1="181.501" x2="429.3996" y2="181.501">
		<stop  offset="0" style="stop-color:#379CD7"/>
		<stop  offset="1" style="stop-color:#1B4583"/>
	</linearGradient>
	<path class="st1" d="M425,264.62c3.75-7.24,5.68-14.86,3.45-21.82c-5.45-17.02-30.57-13.88-37.69-32.73
		c-8.21-21.76,19.83-40.42,9.92-61.49c-4.51-9.6-14.81-15.25-26.78-21.82c-15.14-8.31-18.61-5.09-28.76-12.89
		c-0.74-0.57-8.73-6.87-14.14-15.49c-13.14,1.85-23.28,13.02-23.28,26.67v112.53c0,14.94,12.11,27.05,27.05,27.05H425z
		 M324.81,253.62c-3.74,0-6.77-3.03-6.77-6.77s3.03-6.77,6.77-6.77s6.77,3.03,6.77,6.77S328.55,253.62,324.81,253.62z
		 M324.81,122.54c-3.74,0-6.77-3.03-6.77-6.77c0-3.74,3.03-6.77,6.77-6.77s6.77,3.03,6.77,6.77
		C331.58,119.51,328.55,122.54,324.81,122.54z"/>
	<g>
		<g>
			<path class="st2" d="M342.91,157.26h18.29c13.95,0,23.43,8.8,23.43,21.7s-9.48,21.7-23.43,21.7h-18.29V157.26z M360.82,195.26
				c10.72,0,17.61-6.57,17.61-16.3s-6.89-16.3-17.61-16.3h-11.72v32.61H360.82z"/>
			<path class="st2" d="M420.49,195.26v5.39H389.3v-4.21l17.67-17.05c4.58-4.46,5.45-7.19,5.45-9.92c0-4.46-3.16-7.19-9.24-7.19
				c-4.65,0-8.43,1.49-11.09,4.71l-4.21-3.66c3.35-4.15,9.11-6.57,15.87-6.57c9.05,0,14.88,4.65,14.88,12.09
				c0,4.22-1.24,8-7.13,13.64l-13.27,12.77H420.49z"/>
			<path class="st2" d="M455.28,187.88c0,7.31-5.39,13.27-16.43,13.27c-6.2,0-12.28-1.98-15.94-5.27l2.85-4.9
				c2.92,2.73,7.75,4.65,13.08,4.65c6.51,0,10.23-2.98,10.23-7.69c0-4.59-3.29-7.56-10.73-7.56h-3.47v-4.34l10.91-13.39H424.9v-5.39
				h28.64v4.21l-11.34,14.01C450.88,176.29,455.28,181.18,455.28,187.88z"/>
			<path class="st2" d="M498.82,189.99h-8.25v10.66h-6.01v-10.66h-24.11v-4.34l22.19-28.39h6.7l-21.27,27.4h16.68v-9.42h5.83v9.42
				h8.25V189.99z"/>
			<path class="st2" d="M537.58,195.26v5.39h-31.49v-43.4h30.62v5.39h-24.42v13.33h21.76v5.27h-21.76v14.01H537.58z"/>
		</g>
	</g>
</g>
</svg>
