<?xml version="1.0" encoding="utf-8"?>
<!-- Generator: Adobe Illustrator 23.0.5, SVG Export Plug-In . SVG Version: 6.00 Build 0)  -->
<svg version="1.1" id="Layer_1" xmlns="http://www.w3.org/2000/svg" xmlns:xlink="http://www.w3.org/1999/xlink" x="0px" y="0px"
	 viewBox="0 0 883 355" style="enable-background:new 0 0 883 355;" xml:space="preserve">
<style type="text/css">
	.st0{fill:#1D4483;}
	.st1{fill:#F9C113;}
	.st2{fill:url(#SVGID_1_);}
</style>
<g>
	<path class="st0" d="M402.36,83.76l-58.17,14.4l-45.46,50.68l38.43,21.89l15.96-13.01l0.66,4.38l1.28,110.58
		c0,0,13.11,10.69,18.36,13.08c11.46,5.22,48.66,7.65,48.66,7.65V83.76H402.36z"/>
	<polygon class="st1" points="422.08,69.76 422.08,83.76 400.45,83.58 393.41,69.76 	"/>
	<polygon class="st1" points="393.41,69.76 385.1,89.92 393.41,114.69 411.96,92.22 	"/>
	<path class="st0" d="M499.96,98.17l-58.17-14.4h-19.71v209.64c0,0,36.84-0.58,48.3-5.81c5.25-2.39,18.72-14.92,18.72-14.92
		l1.28-110.58L499.96,98.17z"/>
	<polygon class="st0" points="499.96,98.17 491.03,157.72 507,170.73 545.43,148.85 	"/>
	<polygon class="st1" points="422.08,69.76 422.08,83.76 443.71,83.58 450.74,69.76 	"/>
	<polygon class="st1" points="450.74,69.76 459.05,89.92 450.74,114.69 432.2,92.22 	"/>
	<polygon class="st1" points="411.96,92.22 422.08,98.17 422.08,105.14 407.75,97.32 	"/>
	<polygon class="st1" points="422.08,98.17 432.2,92.22 436.41,97.32 422.08,105.14 	"/>
	<polygon class="st1" points="418.38,103.12 418.38,293.13 422.08,293.41 422.08,105.14 	"/>
	<path class="st1" d="M429.25,109.29c-2.34,0-4.22,1.71-4.22,3.81c0,2.1,1.89,3.81,4.22,3.81c2.33,0,4.23-1.7,4.23-3.81
		C433.47,111,431.57,109.29,429.25,109.29z M427.75,113.86c-0.47,0-0.85-0.34-0.85-0.76c0-0.42,0.38-0.76,0.85-0.76
		c0.47,0,0.85,0.34,0.85,0.76C428.59,113.52,428.21,113.86,427.75,113.86z M430.79,113.9c-0.47,0-0.85-0.34-0.85-0.77
		c0-0.42,0.38-0.77,0.85-0.77c0.46,0,0.85,0.34,0.85,0.77C431.64,113.56,431.26,113.9,430.79,113.9z"/>
	<path class="st1" d="M429.25,144.68c-2.34,0-4.22,1.7-4.22,3.81c0,2.1,1.89,3.8,4.22,3.8c2.33,0,4.23-1.7,4.23-3.8
		C433.47,146.38,431.57,144.68,429.25,144.68z M427.75,149.25c-0.47,0-0.85-0.34-0.85-0.76c0-0.43,0.38-0.77,0.85-0.77
		c0.47,0,0.85,0.34,0.85,0.77C428.59,148.91,428.21,149.25,427.75,149.25z M430.79,149.28c-0.47,0-0.85-0.34-0.85-0.76
		c0-0.42,0.38-0.77,0.85-0.77c0.46,0,0.85,0.34,0.85,0.77C431.64,148.94,431.26,149.28,430.79,149.28z"/>
	<path class="st1" d="M429.25,180.06c-2.34,0-4.22,1.71-4.22,3.81c0,2.1,1.89,3.81,4.22,3.81c2.33,0,4.23-1.71,4.23-3.81
		C433.47,181.77,431.57,180.06,429.25,180.06z M427.75,184.63c-0.47,0-0.85-0.34-0.85-0.77c0-0.42,0.38-0.77,0.85-0.77
		c0.47,0,0.85,0.35,0.85,0.77C428.59,184.29,428.21,184.63,427.75,184.63z M430.79,184.67c-0.47,0-0.85-0.34-0.85-0.77
		c0-0.43,0.38-0.77,0.85-0.77c0.46,0,0.85,0.34,0.85,0.77C431.64,184.33,431.26,184.67,430.79,184.67z"/>
	<path class="st1" d="M429.25,215.44c-2.34,0-4.22,1.71-4.22,3.81c0,2.1,1.89,3.8,4.22,3.8c2.33,0,4.23-1.7,4.23-3.8
		C433.47,217.15,431.57,215.44,429.25,215.44z M427.75,220.01c-0.47,0-0.85-0.34-0.85-0.76c0-0.42,0.38-0.77,0.85-0.77
		c0.47,0,0.85,0.34,0.85,0.77C428.59,219.67,428.21,220.01,427.75,220.01z M430.79,220.05c-0.47,0-0.85-0.34-0.85-0.77
		c0-0.42,0.38-0.76,0.85-0.76c0.46,0,0.85,0.34,0.85,0.76C431.64,219.71,431.26,220.05,430.79,220.05z"/>
	<path class="st1" d="M429.25,250.83c-2.34,0-4.22,1.7-4.22,3.8c0,2.1,1.89,3.81,4.22,3.81c2.33,0,4.23-1.71,4.23-3.81
		C433.47,252.53,431.57,250.83,429.25,250.83z M427.75,255.4c-0.47,0-0.85-0.34-0.85-0.76c0-0.42,0.38-0.77,0.85-0.77
		c0.47,0,0.85,0.34,0.85,0.77C428.59,255.05,428.21,255.4,427.75,255.4z M430.79,255.44c-0.47,0-0.85-0.34-0.85-0.77
		c0-0.42,0.38-0.77,0.85-0.77c0.46,0,0.85,0.34,0.85,0.77C431.64,255.09,431.26,255.44,430.79,255.44z"/>
	<g>
		<polygon class="st1" points="461.02,135.97 441.22,135.97 443.17,164.21 461.02,168.61 478.56,164.94 480.82,135.97 		"/>
		<polygon class="st0" points="480.29,142.7 441.69,142.7 441.49,139.77 480.52,139.77 		"/>
	</g>
	<linearGradient id="SVGID_1_" gradientUnits="userSpaceOnUse" x1="298.7239" y1="199.2373" x2="384.2914" y2="199.2373">
		<stop  offset="0" style="stop-color:#0F1A2B"/>
		<stop  offset="1" style="stop-color:#1D4483"/>
	</linearGradient>
	<path class="st2" d="M378.97,287.68c6.19-8.33,5.48-21.16,5.06-28.71c-1.33-23.72-12.3-25.59-14.48-46.89
		c-2.51-24.59,11.1-31.89,3.95-47.52c-6.17-13.47-17.05-9.75-29.61-25.98c-8.43-10.9-9.44-20.22-10.99-27.79l-34.17,38.09
		l38.43,21.89l15.96-13.01l0.66,4.38l1.28,110.58c0,0,13.11,10.69,18.36,13.08C374.89,286.48,376.78,287.1,378.97,287.68z"/>
</g>
</svg>
