<?xml version="1.0" encoding="utf-8"?>
<!-- Generator: Adobe Illustrator 23.0.5, SVG Export Plug-In . SVG Version: 6.00 Build 0)  -->
<svg version="1.1" id="Layer_1" xmlns="http://www.w3.org/2000/svg" xmlns:xlink="http://www.w3.org/1999/xlink" x="0px" y="0px"
	 viewBox="0 0 883 355" style="enable-background:new 0 0 883 355;" xml:space="preserve">
<style type="text/css">
	.st0{fill:#1D4483;}
	.st1{fill:#F9C113;}
	.st2{fill:#F9C113;stroke:#1C4583;stroke-width:0.2;stroke-miterlimit:10;}
	.st3{opacity:0.6;fill:url(#SVGID_1_);}
</style>
<g>
	<path class="st0" d="M428.71,252.1c-3.3,0-6.27,1.33-8.43,3.49c-2.16,2.16-3.49,5.13-3.49,8.43c0,3.29,1.33,6.27,3.49,8.43
		c2.16,2.16,5.13,3.49,8.43,3.49c3.29,0,6.26-1.33,8.42-3.49c2.16-2.16,3.49-5.13,3.49-8.43c0-3.3-1.33-6.27-3.49-8.43
		C434.97,253.43,432,252.1,428.71,252.1z M428.7,273.54c-5.16,0-9.34-4.18-9.34-9.34c0-5.16,4.18-9.34,9.34-9.34
		c5.16,0,9.34,4.18,9.34,9.34C438.04,269.35,433.86,273.54,428.7,273.54z"/>
	<path class="st0" d="M499.72,16.99H357.69c-10.32,0-18.68,8.36-18.68,18.68v232.27c0,10.32,8.36,18.68,18.68,18.68h142.04
		c10.31,0,18.68-8.36,18.68-18.68V35.67C518.4,25.35,510.04,16.99,499.72,16.99z M428.71,23.28c1.44,0,2.61,1.16,2.61,2.61
		c0,1.45-1.17,2.62-2.61,2.62c-1.45,0-2.62-1.17-2.62-2.62C426.09,24.44,427.26,23.28,428.71,23.28z M418.91,33.83h19.59
		c1.44,0,2.6,1.17,2.6,2.6s-1.17,2.61-2.6,2.61h-19.59c-1.44,0-2.6-1.17-2.6-2.61S417.48,33.83,418.91,33.83z M410.16,34.4
		c1.12,0,2.03,0.91,2.03,2.03c0,1.12-0.91,2.03-2.03,2.03c-1.12,0-2.03-0.91-2.03-2.03C408.13,35.31,409.04,34.4,410.16,34.4z
		 M428.71,277.09c-7.23,0-13.08-5.85-13.08-13.08c0-7.23,5.86-13.08,13.08-13.08c7.22,0,13.08,5.86,13.08,13.08
		C441.79,271.24,435.93,277.09,428.71,277.09z M495.33,244.89H362.07V47.49h133.26V244.89z"/>
	<rect x="361" y="47.34" class="st1" width="133.26" height="197.4"/>
	<circle class="st2" cx="508.72" cy="143.06" r="40.32"/>
	<linearGradient id="SVGID_1_" gradientUnits="userSpaceOnUse" x1="359.9814" y1="145.015" x2="492.9692" y2="145.015">
		<stop  offset="0" style="stop-color:#D36127"/>
		<stop  offset="1" style="stop-color:#F9C113"/>
	</linearGradient>
	<path class="st3" d="M360.23,64.7c0-6.21,0.29-12.34,0.85-18.39h-1.1v197.4h132.99C417.02,225.39,360.23,152.23,360.23,64.7z"/>
	<g>
		<path class="st0" d="M516.21,158.03c0,3.18-2.57,5.75-5.75,5.75c-3.18,0-5.75-2.58-5.75-5.75c0-3.18,2.58-5.75,5.75-5.75
			C513.63,152.28,516.21,154.86,516.21,158.03z"/>
		<g>
			<path class="st0" d="M519.45,153.57c-1.71-3.43-5.16-5.57-8.99-5.57c-3.65,0-7.02,1.99-8.79,5.19l-4.5-2.48
				c2.67-4.84,7.77-7.85,13.29-7.85c5.79,0,11,3.22,13.59,8.41L519.45,153.57z"/>
		</g>
		<g>
			<path class="st0" d="M494.15,148.1l-4.39-2.68c4.44-7.27,12.18-11.61,20.69-11.61c8.06,0,15.57,3.99,20.09,10.68l-4.26,2.88
				c-3.56-5.27-9.48-8.42-15.83-8.42C503.75,138.94,497.65,142.36,494.15,148.1z"/>
		</g>
		<g>
			<path class="st0" d="M487.71,142.72l-4.26-2.88c6.07-9,16.16-14.37,27-14.37c10.37,0,19.87,4.77,26.09,13.08l-4.12,3.08
				c-5.23-7-13.24-11.02-21.97-11.02C501.33,130.62,492.83,135.15,487.71,142.72z"/>
		</g>
	</g>
</g>
</svg>
