<?xml version="1.0" encoding="utf-8"?>
<!-- Generator: Adobe Illustrator 23.0.5, SVG Export Plug-In . SVG Version: 6.00 Build 0)  -->
<svg version="1.1" id="Layer_1" xmlns="http://www.w3.org/2000/svg" xmlns:xlink="http://www.w3.org/1999/xlink" x="0px" y="0px"
	 viewBox="0 0 883 355" style="enable-background:new 0 0 883 355;" xml:space="preserve">
<style type="text/css">
	.st0{fill:#1B4583;}
	.st1{fill:#FBD011;}
	.st2{fill:url(#SVGID_1_);}
</style>
<g>
	<path class="st0" d="M394.94,168.92c6.94,4.8,8.85,11.28,11.26,16.72c9.85-4.63,8.03-10.41,0.67-16.02
		c2.4-2.82,4.98-1.54,7.14-1.55c46.11-0.1,92.23,0.06,138.34-0.23c6.41-0.04,8.19,1.63,8.04,8.04c-0.44,18.92-0.1,37.86-0.18,56.8
		c-0.04,11.03-5.68,17.03-16.79,17.07c-47.64,0.14-95.28-0.05-142.92,0.21c-5.58,0.03-5.63-2.46-5.61-6.52
		C394.99,219.03,394.94,194.61,394.94,168.92z"/>
	<path class="st0" d="M410.18,156.7c4.96-0.8,9.29-3.09,12.91-6.38c5.16-4.69,4.53-9.69-1.84-12.32c-2.28-0.94-2.08-1.94-2.67-3.61
		c-2.34-6.62-6.95-7.66-12.45-2.79c-5.12,4.54-7.46,10.85-11.19,17.06c0-10.37,0.01-20.74,0-31.12c-0.01-6.04,4.63-3.63,7.31-3.65
		c29.64-0.16,59.28-0.1,88.91-0.1c17.42,0,34.83-0.07,52.25,0.03c11.71,0.07,16.72,5.06,16.8,16.63c0.06,9.16-0.11,18.33-0.17,27.49
		c-2.48,1.78-5.32,0.98-7.98,0.98c-44.79,0.05-89.58,0.09-134.37-0.1C415.27,158.81,411.5,161.4,410.18,156.7z"/>
	<path class="st1" d="M374.93,168.01c-6.42,7.06-12,12.95-0.41,17.65c2.5-5.18,4.44-11.91,11.29-16.97
		c0,26.24-0.09,51.19,0.09,76.13c0.03,4.1-1.25,5.18-5.2,5.09c-10.7-0.25-21.41,0.14-32.1-0.15c-10.53-0.29-16.1-6.24-16.14-16.82
		c-0.08-19.26,0.16-38.53-0.14-57.78c-0.09-5.39,0.96-7.57,6.94-7.29C350.47,168.38,361.72,168.01,374.93,168.01z"/>
	<path class="st1" d="M332.66,157.92c-0.07-9.75-0.34-19.51-0.16-29.26c0.17-9.32,5.47-14.6,14.83-14.8
		c10.97-0.23,21.95,0,32.93-0.11c3.35-0.03,5.8-0.02,5.65,4.62c-0.31,9.59-0.09,19.19-0.09,31.15c-4.16-7.88-6.09-14.43-11.6-18.45
		c-5.19-3.79-9.58-3.81-11.87,3.29c-0.33,1.03,1.1,2.85-0.69,3.06c-4.49,0.51-7.98,1.92-6.94,7.23c0.97,4.93,5.08,7.38,9.15,9.5
		c2.11,1.1,4.53,1.62,6.81,2.4c-0.18,0.77,0.39,2.03-1.01,2.05C357.32,158.79,344.96,159.99,332.66,157.92z"/>
	<path class="st1" d="M381.93,153.94c-5.35,0.9-9-1.29-12.74-3.04c-2.29-1.07-4.7-2.83-3.69-5.36c0.94-2.37,3.11-4.74,5.36-5.95
		c2.46-1.32,4.62,0.96,5.78,3.07C378.57,146.17,380.08,149.93,381.93,153.94z"/>
	<path class="st0" d="M400.41,154.47c-0.54-4.87,1.96-8.04,3.75-11.4c1.17-2.18,3.23-4.76,5.6-3.61c2.57,1.25,5.2,3.85,6.15,6.46
		c0.71,1.94-2.09,4.04-4.37,5.19C408.05,152.87,404.52,154.32,400.41,154.47z"/>
	<linearGradient id="SVGID_1_" gradientUnits="userSpaceOnUse" x1="400.9196" y1="208.9824" x2="560.27" y2="208.9824">
		<stop  offset="0" style="stop-color:#0F1A2B"/>
		<stop  offset="1" style="stop-color:#1D4483"/>
	</linearGradient>
	<path class="st2" d="M560.26,175.97c0.14-6.24-1.55-7.99-7.56-8.04c-6.53,2.64-13.53,6.54-20.1,12.43
		c-5.95,5.33-15.26,13.67-14.68,24.12c0.44,8.13,6.62,13.21,5.24,14.68c-2.99,3.2-28.9-24.28-41.95-17.83
		c-9.58,4.74-2.76,23.08-13.64,30.42c-12.39,8.36-29.09-10.17-47.2-3.15c-8.82,3.43-16.35,12.29-19.46,21.44
		c47.46-0.25,94.92-0.07,142.38-0.21c11.11-0.03,16.75-6.04,16.79-17.07C560.16,213.83,559.82,194.89,560.26,175.97z"/>
</g>
</svg>
