<?xml version="1.0" encoding="utf-8"?>
<!-- Generator: Adobe Illustrator 23.0.5, SVG Export Plug-In . SVG Version: 6.00 Build 0)  -->
<svg version="1.1" id="Layer_1" xmlns="http://www.w3.org/2000/svg" xmlns:xlink="http://www.w3.org/1999/xlink" x="0px" y="0px"
	 viewBox="0 0 883 355" style="enable-background:new 0 0 883 355;" xml:space="preserve">
<style type="text/css">
	.st0{fill:#F9C113;}
	.st1{opacity:0.8;fill:url(#SVGID_1_);}
	.st2{fill:#1D4483;}
	.st3{fill:none;stroke:#1D4483;stroke-miterlimit:10;}
</style>
<g>
	<rect x="418.3" y="179.59" class="st0" width="69.24" height="36.34"/>
	<linearGradient id="SVGID_1_" gradientUnits="userSpaceOnUse" x1="418.2975" y1="197.5165" x2="450.8351" y2="197.5165">
		<stop  offset="0" style="stop-color:#D36127"/>
		<stop  offset="1" style="stop-color:#F9C113"/>
	</linearGradient>
	<path class="st1" d="M429.75,203.34c-0.48-1.78,1.61-10.65-2.42-11.78c-3.64-1.02-3.74-8.2-9.03-11.97v35.86h32.53
		c0.05-0.68-0.06-1.33-0.41-1.94C446.22,206.08,430.24,205.11,429.75,203.34z"/>
	<path class="st2" d="M487.04,171.4h-68.25c-3.03,0-5.49,2.46-5.49,5.49v41.74c0,2.73,2,4.95,4.61,5.37h70.01
		c2.6-0.43,4.6-2.64,4.6-5.37v-41.74C492.53,173.86,490.08,171.4,487.04,171.4z M487.54,215.93H418.3v-36.34h69.24V215.93z"/>
	<path class="st3" d="M453.35,138.18c6.71,12.52,13.41,25.04,20.12,37.57"/>
	<path class="st3" d="M484.97,150.19c-3.86,7.94-7.73,15.87-11.59,23.81"/>
	<g>
		<path class="st0" d="M419.93,170.86c-1.96-0.7-4.12-0.25-5.64,1.2c-1.45,1.38-2.06,3.42-1.57,5.35l-2.71,0.72
			c-0.73-2.91,0.18-6,2.37-8.08c2.31-2.18,5.57-2.87,8.53-1.81L419.93,170.86z"/>
	</g>
	<g>
		<path class="st0" d="M407.84,178.24l-2.74,0.6c-0.93-4.53,0.53-9.14,3.92-12.35c3.21-3.03,7.68-4.29,11.96-3.37l-0.63,2.73
			c-3.37-0.73-6.9,0.26-9.43,2.65C408.26,171.03,407.1,174.67,407.84,178.24z"/>
	</g>
	<g>
		<path class="st0" d="M403.28,178.55l-2.76,0.47c-0.93-5.82,1.1-11.72,5.41-15.8c4.12-3.9,9.68-5.61,15.24-4.68l-0.5,2.76
			c-4.68-0.78-9.36,0.66-12.83,3.94C404.2,168.67,402.5,173.65,403.28,178.55z"/>
	</g>
</g>
</svg>
