<?xml version="1.0" encoding="utf-8"?>
<!-- Generator: Adobe Illustrator 23.0.5, SVG Export Plug-In . SVG Version: 6.00 Build 0)  -->
<svg version="1.1" id="Layer_1" xmlns="http://www.w3.org/2000/svg" xmlns:xlink="http://www.w3.org/1999/xlink" x="0px" y="0px"
	 viewBox="0 0 883 355" style="enable-background:new 0 0 883 355;" xml:space="preserve">
<style type="text/css">
	.st0{opacity:0.8;fill:url(#SVGID_1_);}
	.st1{fill:#50423A;}
	.st2{fill:#1D4483;}
	.st3{fill:url(#SVGID_2_);}
</style>
<g>
	<linearGradient id="SVGID_1_" gradientUnits="userSpaceOnUse" x1="322.448" y1="123.4678" x2="569.7085" y2="123.4678">
		<stop  offset="0" style="stop-color:#D36127"/>
		<stop  offset="1" style="stop-color:#F9C113"/>
	</linearGradient>
	<path class="st0" d="M569,147.87c0,0,6.99-23.98-22.99-21.99c0,0-16.99-32.98-54.97-16.99c0,0-34.98-23.99-62.96,3
		c0,0-29.99-24.99-44.98-2c0,0-34.98,2-30.99,19.99c0,0-34.98-5-28.98,17.99H569z"/>
	<path class="st1" d="M441.78,195.15c-1.3,0-2.37,1.06-2.37,2.37c0,1.31,1.06,2.37,2.37,2.37c1.31,0,2.37-1.06,2.37-2.37
		C444.15,196.21,443.09,195.15,441.78,195.15z"/>
	<path class="st1" d="M459.46,195.15c-1.32,0-2.38,1.06-2.38,2.37c0,1.31,1.07,2.37,2.38,2.37c1.3,0,2.37-1.06,2.37-2.37
		C461.82,196.21,460.76,195.15,459.46,195.15z"/>
	<path class="st2" d="M601.75,262.22l-31.45-102.47c-0.99-3.17-4.45-5.73-7.76-5.73H328.66c-3.31,0-6.76,2.57-7.71,5.74
		L290.4,262.21c-0.95,3.17,0.97,5.74,4.28,5.74H597.5C600.82,267.95,602.72,265.38,601.75,262.22z M407.44,201.4
		c-6.27-3.04-8.1-12.21-1.33-26.17c2.6-5.36,8.93-9.89,14.24-10.36c0.96-0.08,2.54-0.01,3.48,0.19c2.76,0.59,8.46,2.97,14.58,12.36
		c0.53,0.81,0.22,1.8-0.66,2.2l-0.86,0.39c-0.88,0.4-2.17,0.18-2.88-0.48l-2.33-2.2c-0.7-0.66-1.19-0.42-1.17,0.55
		c0.06,2.91-0.48,5.87-1.69,8.36C422.05,200.21,413.72,204.45,407.44,201.4z M448.94,256.34c0.1,0.01,0.18-0.01,0.27-0.01
		c0.09,0,0.17,0.01,0.27,0.01H448.94z M449.21,256.33c-8,0.2-8.39-10.16-8.21-14.37c0.03-0.97,0.9-1.69,1.87-1.63
		c1.74,0.12,4.37,0.27,5.98,0.23c2.19-0.05,4.94-0.18,6.7-0.26c0.97-0.05,1.84,0.69,1.87,1.65
		C457.59,246.17,457.2,256.53,449.21,256.33z M468.22,238.36c-9.37,2.4-17.37-1.47-17.37-5.6c0-4.14,0-7.48,0-7.48
		c0-1.96,1.41-4.29,3-5.43c1.24-0.89,2.32-1.86,2.47-2.56c0.07-0.31,0.01-0.59-0.18-0.81c-0.1-0.12-0.22-0.21-0.36-0.27
		c-0.23-0.1-1.96-0.57-3.91-0.72c-0.84-0.06-1.72-0.09-2.61-0.08h-0.12c-0.88-0.01-1.77,0.02-2.61,0.08
		c-1.95,0.14-3.69,0.62-3.92,0.72c-0.14,0.06-0.26,0.15-0.35,0.27c-0.19,0.22-0.25,0.51-0.18,0.81c0.16,0.7,1.24,1.67,2.48,2.56
		c1.59,1.15,2.99,3.47,2.99,5.43v7.48c0,4.13-8,8-17.37,5.6c-10.72-2.75-17.9-9.07-17.9-22.5c0-1.72,0.18-3.45,0.51-5.19
		c0.54-2.83,7.4-6.47,12.1-11.89c2.27-2.62,4.59-6.19,6.81-11.01c0.36-0.79,0.67-1.61,0.92-2.47c0.41-1.4,0.98-2.22,1.47-1.77
		c0.49,0.44,2.82-0.12,5.2-1.26c2.39-1.14,3.94-2.66,3.46-3.42c-0.48-0.75-0.86-1.36-0.86-1.36c-0.59-0.94-1.19-1.82-1.78-2.65
		c-1.03-1.43,0.42-4.83,3.46-7.51c3.04-2.69,8.32-2.69,11.48,0.01c3.15,2.71,4.7,6.12,3.68,7.54c-0.58,0.81-1.17,1.68-1.76,2.61
		l-0.86,1.36c-0.48,0.75,1.07,2.28,3.46,3.42c2.39,1.13,4.71,1.7,5.2,1.26c0.49-0.44,1.06,0.38,1.47,1.77
		c0.26,0.86,0.56,1.68,0.92,2.47c2.18,4.73,4.45,8.25,6.68,10.86c4.59,5.37,11.28,9.16,11.77,12.01c0.31,1.74,0.48,3.48,0.48,5.22
		C486.12,229.29,478.94,235.61,468.22,238.36z M491.5,201.41c-6.27,3.04-14.61-1.2-21.38-15.15c-1.21-2.49-1.75-5.45-1.69-8.36
		c0.02-0.97-0.46-1.21-1.17-0.55l-2.34,2.2c-0.7,0.66-1.99,0.88-2.87,0.48l-0.86-0.39c-0.88-0.4-1.2-1.39-0.67-2.2
		c6.11-9.39,11.82-11.77,14.58-12.36c0.94-0.2,2.52-0.28,3.48-0.19c5.31,0.47,11.64,5,14.24,10.36
		C499.6,189.19,497.78,198.36,491.5,201.41z"/>
	<linearGradient id="SVGID_2_" gradientUnits="userSpaceOnUse" x1="290.6294" y1="210.9823" x2="415.294" y2="210.9823">
		<stop  offset="0" style="stop-color:#0F1A2B"/>
		<stop  offset="1" style="stop-color:#1D4483"/>
	</linearGradient>
	<path class="st3" d="M413.69,261.63c0.8-2.09,2.89-7.55,0.5-12.43c-7.58-15.46-50.76,0.24-57.17-16.4
		c-3.91-10.16,6.21-20.99,0-29.33c-7.23-9.7-27.22-3.5-29.83-10.94c-1.39-3.96,4.1-6.22,5.97-14.91c1.84-8.55-0.78-18.87-5.92-23.45
		c-2.64,0.74-5.04,2.88-5.81,5.45l-30.55,102.45c-0.95,3.17,0.97,5.74,4.28,5.74h114.68C411.45,265.99,412.79,263.96,413.69,261.63z
		"/>
</g>
</svg>
