<?xml version="1.0" encoding="utf-8"?>
<!-- Generator: Adobe Illustrator 23.0.5, SVG Export Plug-In . SVG Version: 6.00 Build 0)  -->
<svg version="1.1" id="Layer_1" xmlns="http://www.w3.org/2000/svg" xmlns:xlink="http://www.w3.org/1999/xlink" x="0px" y="0px"
	 viewBox="0 0 883 355" style="enable-background:new 0 0 883 355;" xml:space="preserve">
<style type="text/css">
	.st0{fill:none;}
	.st1{fill:#1D4483;}
	.st2{fill:#F9C113;}
	.st3{fill:#F9C113;stroke:#1C4583;stroke-width:0.2;stroke-miterlimit:10;}
	.st4{opacity:0.6;fill:url(#SVGID_1_);}
</style>
<g>
	<path class="st0" d="M429.24,288.85c-5.01,0-9.08,4.06-9.08,9.07c0,5.01,4.06,9.08,9.08,9.08c5.01,0,9.08-4.06,9.08-9.08
		C438.31,292.91,434.25,288.85,429.24,288.85z"/>
	<rect x="364.5" y="87.39" class="st0" width="129.47" height="191.79"/>
	<path class="st1" d="M429.24,286.18c-3.2,0-6.09,1.29-8.19,3.39c-2.1,2.1-3.39,4.99-3.39,8.19c0,3.2,1.3,6.09,3.39,8.19
		c2.1,2.1,4.99,3.39,8.19,3.39c3.2,0,6.09-1.29,8.18-3.39c2.1-2.09,3.39-4.99,3.39-8.19c0-3.2-1.29-6.09-3.39-8.19
		C435.33,287.47,432.44,286.18,429.24,286.18z M429.24,307c-5.01,0-9.08-4.06-9.08-9.08c0-5.02,4.06-9.07,9.08-9.07
		c5.01,0,9.08,4.06,9.08,9.07C438.31,302.94,434.25,307,429.24,307z"/>
	<path class="st1" d="M498.24,57.75h-138c-10.02,0-18.15,8.12-18.15,18.15v225.66c0,10.03,8.13,18.15,18.15,18.15h138
		c10.02,0,18.15-8.12,18.15-18.15V75.9C516.39,65.87,508.26,57.75,498.24,57.75z M429.24,63.86c1.4,0,2.54,1.13,2.54,2.53
		c0,1.41-1.14,2.54-2.54,2.54c-1.4,0-2.55-1.14-2.55-2.54C426.7,64.99,427.84,63.86,429.24,63.86z M419.73,74.11h19.03
		c1.4,0,2.53,1.13,2.53,2.53s-1.13,2.53-2.53,2.53h-19.03c-1.39,0-2.53-1.14-2.53-2.53S418.33,74.11,419.73,74.11z M411.22,74.67
		c1.09,0,1.97,0.88,1.97,1.97c0,1.09-0.88,1.97-1.97,1.97c-1.09,0-1.97-0.88-1.97-1.97C409.25,75.55,410.13,74.67,411.22,74.67z
		 M429.24,310.46c-7.02,0-12.71-5.68-12.71-12.7c0-7.02,5.69-12.71,12.71-12.71c7.02,0,12.71,5.69,12.71,12.71
		C441.95,304.78,436.26,310.46,429.24,310.46z M493.98,279.17H364.5V87.39h129.47V279.17z"/>
	<rect x="363.46" y="87.23" class="st2" width="129.47" height="191.79"/>
	<circle class="st3" cx="506.98" cy="180.24" r="39.17"/>
	<linearGradient id="SVGID_1_" gradientUnits="userSpaceOnUse" x1="363.4631" y1="183.1274" x2="492.6699" y2="183.1274">
		<stop  offset="0" style="stop-color:#D36127"/>
		<stop  offset="1" style="stop-color:#F9C113"/>
	</linearGradient>
	<path class="st4" d="M363.71,105.1c0-6.03,0.29-11.99,0.83-17.87h-1.07v191.79h129.21C418.88,261.21,363.71,190.13,363.71,105.1z"
		/>
	<path class="st1" d="M543.46,177.37c-0.14-0.69-0.09-1.41-0.17-2.1c-0.59-4.75-2.19-9.21-4.6-13.42c-1.45-2.53-3.2-4.87-5.24-6.95
		c-5.65-5.77-12.33-9.34-20.06-10.74c-1.16-0.21-2.35-0.19-3.51-0.36c-0.1,0.03-0.24,0.07-0.34,0.1c-0.09,0.09-0.24,0.01-0.36,0.01
		l0,0l0,0c-0.14,0.02-0.29,0.06-0.4-0.06c-0.22-0.03-0.37-0.04-0.59-0.07c-0.29,0.23-0.58,0.23-0.87,0.01c-0.34,0-0.66,0-1,0
		c-0.29,0.21-0.58,0.23-0.87-0.02c-0.17,0.03-0.26,0.04-0.44,0.07c-0.08,0.13-0.17,0.13-0.25-0.05h-0.71
		c-0.07,0.07-0.17,0.07-0.26,0.07c-2.64,0.02-5.17,0.62-7.66,1.41c-5.87,1.87-10.97,4.99-15.28,9.41c-3.81,3.9-6.55,8.44-8.41,13.54
		c-1.86,5.09-2.19,10.37-1.79,15.7c0.38,5.04,1.97,9.75,4.44,14.14c3.05,5.41,7.19,9.79,12.45,13.12c4.02,2.54,8.36,4.24,13.04,5.08
		c2.98,0.53,5.98,0.47,8.99,0.41c2.8-0.06,5.51-0.61,8.16-1.43c6.73-2.09,12.42-5.81,17.02-11.15c4.49-5.21,7.28-11.22,8.43-17.99
		 M497.61,151.41c1.99-2.14,4.3-3.75,7.21-4.41c0.68-0.15,0.73,0.06,0.73,0.63c-0.02,2.84-0.01,5.69-0.01,8.53
		c0,2.82-0.02,5.64,0.02,8.46c0.01,0.58-0.17,0.69-0.71,0.66c-4.46-0.19-8.85-0.82-13.15-2.03c-0.25-0.07-0.63-0.04-0.45-0.55
		C492.71,158.56,494.6,154.66,497.61,151.41z M505.55,179.4c0,0.47-0.17,0.53-0.58,0.53c-2.68-0.02-5.36-0.01-8.04-0.01
		c-2.61,0-5.22-0.01-7.82,0.01c-0.51,0.01-0.62-0.14-0.61-0.63c0.05-4.33,0.62-8.59,1.62-12.8c0.13-0.54,0.32-0.59,0.81-0.44
		c4.59,1.36,9.29,2.03,14.07,2.19c0.42,0.01,0.56,0.1,0.56,0.55C505.53,172.33,505.53,175.86,505.55,179.4z M481.84,158.27
		c3.74-4.23,8.22-7.38,13.51-9.37c0.21-0.08,0.42-0.21,0.7-0.06c-2.33,2.39-4.13,5.12-5.58,8.09c-0.75,1.53-1.42,3.09-1.95,4.71
		c-0.13,0.39-0.24,0.5-0.68,0.33c-2.04-0.82-4.02-1.78-5.9-2.92C481.52,158.78,481.53,158.62,481.84,158.27z M479.43,161.4
		c0.24-0.35,0.4-0.33,0.72-0.12c2.12,1.39,4.39,2.51,6.76,3.41c0.43,0.17,0.58,0.33,0.45,0.81c-1.2,4.48-1.8,9.05-1.82,13.69
		c0,0.58-0.14,0.76-0.74,0.75c-1.75-0.04-3.51-0.01-5.26-0.01c-1.78,0-3.56-0.01-5.33,0.01c-0.43,0-0.62-0.05-0.6-0.56
		C473.82,172.82,475.76,166.83,479.43,161.4z M480.25,199.08c-0.42,0.32-0.57,0.33-0.81-0.02c-2.99-4.42-4.87-9.27-5.55-14.57
		c-0.06-0.5-0.39-1.16-0.05-1.48c0.27-0.25,0.94-0.09,1.43-0.09c1.47-0.01,2.94,0,4.41,0c1.78,0,3.55,0.02,5.33-0.01
		c0.43-0.01,0.54,0.11,0.57,0.54c0.22,3.91,0.75,7.77,1.79,11.55c0.13,0.46-0.04,0.62-0.54,0.78
		C484.47,196.52,482.23,197.6,480.25,199.08z M489.4,208.58c-2.81-1.76-5.29-3.91-7.5-6.38c-0.37-0.41-0.36-0.57,0.13-0.87
		c1.83-1.09,3.73-2.03,5.71-2.83c0.47-0.19,0.64-0.16,0.82,0.36c1.36,3.91,3.2,7.58,5.82,10.81c0.57,0.71,1.2,1.38,1.88,2.16
		C493.77,211,491.53,209.91,489.4,208.58z M504.88,213.44c-3.36-0.73-5.89-2.72-8.03-5.28c-2.57-3.07-4.27-6.62-5.59-10.37
		c-0.12-0.34-0.06-0.46,0.31-0.57c3.56-1.02,7.19-1.63,10.88-1.92c0.85-0.07,1.7-0.08,2.55-0.15c0.31-0.03,0.55,0.2,0.55,0.51
		c-0.02,2.9-0.01,5.8-0.01,8.7c0,2.84-0.01,5.68,0.01,8.52C505.56,213.27,505.25,213.52,504.88,213.44z M505.56,183.75
		c-0.04,2.56-0.03,5.12,0,7.68c0.01,0.55-0.09,0.75-0.71,0.77c-4.73,0.15-9.38,0.83-13.92,2.18c-0.54,0.16-0.7,0.04-0.83-0.49
		c-0.83-3.42-1.3-6.88-1.54-10.38c-0.04-0.53,0.12-0.62,0.6-0.61c2.63,0.02,5.26,0.01,7.89,0.01c2.56,0,5.12,0.03,7.68-0.02
		C505.45,182.88,505.57,183.1,505.56,183.75z M520.48,149.62c4.48,1.98,8.32,4.84,11.6,8.48c0.5,0.56,0.4,0.75-0.19,1.09
		c-1.86,1.09-3.79,2.02-5.78,2.82c-0.45,0.18-0.58,0.07-0.73-0.35c-1.39-3.97-3.24-7.7-5.92-10.99c-0.55-0.68-1.14-1.31-1.84-2.11
		C518.73,148.84,519.61,149.24,520.48,149.62z M508.52,168.88c0-0.5,0.13-0.62,0.62-0.63c4.7-0.15,9.33-0.82,13.85-2.14
		c0.53-0.15,0.67-0.05,0.79,0.46c1.01,4.21,1.55,8.47,1.62,12.8c0.01,0.49-0.15,0.58-0.59,0.57c-2.63-0.02-5.26-0.01-7.89-0.01
		c-2.58,0-5.17-0.02-7.75,0.01c-0.55,0.01-0.66-0.16-0.65-0.68C508.54,175.8,508.54,172.34,508.52,168.88z M509.19,147.03
		c2.93,0.68,5.25,2.35,7.23,4.52c2.95,3.24,4.81,7.1,6.26,11.2c0.14,0.38-0.09,0.44-0.34,0.51c-3.02,0.84-6.08,1.44-9.2,1.73
		c-1.34,0.13-2.7,0.18-4.04,0.29c-0.49,0.04-0.58-0.13-0.58-0.58c0.02-2.87,0.01-5.74,0.01-8.61c0-2.84,0.02-5.69-0.01-8.53
		C508.51,146.99,508.64,146.9,509.19,147.03z M509.17,182.9c2.61,0.02,5.22,0.01,7.82,0.01c2.58,0,5.17,0.01,7.75-0.01
		c0.5,0,0.61,0.1,0.58,0.62c-0.2,3.49-0.71,6.92-1.51,10.32c-0.12,0.51-0.26,0.66-0.83,0.49c-4.52-1.32-9.15-1.99-13.86-2.14
		c-0.57-0.02-0.68-0.15-0.55-1.15c0.3-2.32,0.3-4.66-0.01-6.98C508.42,183,508.58,182.9,509.17,182.9z M509.11,213.42
		c-0.53,0.12-0.58-0.04-0.58-0.49c0.01-2.89,0.01-5.78,0.01-8.67c0-2.84,0.01-5.68-0.01-8.53c0-0.45,0.09-0.6,0.58-0.58
		c4.46,0.18,8.85,0.79,13.16,2.01c0.22,0.06,0.6,0.01,0.43,0.49c-1.53,4.34-3.51,8.42-6.77,11.76
		C514.01,211.36,511.81,212.82,509.11,213.42z M532.3,202.06c-3.91,4.46-8.63,7.71-14.21,9.71c-0.1,0.04-0.23,0.03-0.45,0.05
		c0.86-0.92,1.63-1.77,2.33-2.68c2.38-3.12,4.09-6.58,5.38-10.26c0.19-0.54,0.36-0.61,0.87-0.4c2.04,0.84,4.02,1.77,5.9,2.94
		C532.39,201.57,532.66,201.66,532.3,202.06z M540.32,183.47c-0.6,5.63-2.46,10.81-5.64,15.5c-0.27,0.39-0.38,0.51-1.05-0.04
		c-1.81-1.49-3.93-2.54-6.2-3.12c-0.95-0.24-1.06-0.42-0.78-1.22c1.17-3.34,1.71-6.87,1.62-10.41c-0.03-1.05,0.15-1.32,0.98-1.29
		c1.7,0.06,3.41,0.02,5.12,0.02c1.8,0,3.6,0.01,5.4-0.01C540.2,182.9,540.37,182.97,540.32,183.47z M539.88,179.93
		c-1.82-0.02-3.65-0.01-5.48-0.01c-1.83,0-3.65-0.01-5.48,0.01c-0.44,0.01-0.55-0.11-0.56-0.55c-0.05-4.68-0.62-9.3-1.82-13.83
		c-0.11-0.41-0.04-0.59,0.4-0.76c2.46-0.94,4.81-2.08,7.02-3.52c0.3-0.19,0.44-0.2,0.66,0.12c2.81,4.16,4.65,8.7,5.43,13.66
		c0.23,1.43,0.33,2.87,0.41,4.31C540.5,179.83,540.34,179.94,539.88,179.93z"/>
</g>
</svg>
