<?xml version="1.0" encoding="utf-8"?>
<!-- Generator: Adobe Illustrator 23.0.5, SVG Export Plug-In . SVG Version: 6.00 Build 0)  -->
<svg version="1.1" id="Layer_1" xmlns="http://www.w3.org/2000/svg" xmlns:xlink="http://www.w3.org/1999/xlink" x="0px" y="0px"
	 viewBox="0 0 883 355" style="enable-background:new 0 0 883 355;" xml:space="preserve">
<style type="text/css">
	.st0{fill:#1D4483;}
	.st1{fill:#F9C113;}
	.st2{fill:url(#SVGID_1_);}
</style>
<g>
	<path class="st0" d="M404.38,165.57l6.9-7.63c5.69-6.29,8.59-14.42,8.16-22.89c-0.42-8.47-4.12-16.27-10.41-21.95l-11.65-10.53
		c-5.85-5.3-13.41-8.21-21.29-8.21c-8.96,0-17.55,3.81-23.56,10.44l-6.9,7.64c-0.88,0.97-1.74,2.05-2.54,3.21l-0.32,0.35
		c-6.52,5.57-12.06,19.14-8.85,35.75c14.84,77.27,79.94,136.15,158.31,143.18c10.28,0.94,19.96-1.19,27.3-5.7
		c2.94-1.7,5.53-3.79,7.75-6.25l6.91-7.64c11.74-12.99,10.73-33.1-2.25-44.84l-11.65-10.54c-5.85-5.29-13.41-8.21-21.29-8.21
		c-8.96,0-17.55,3.82-23.55,10.46l-6.91,7.63c-2.95,3.26-5.15,7.02-6.55,11.16l-0.62,1.85l-1.81-0.72
		c-30.81-12.16-55.91-35.2-70.69-64.87l-0.98-1.96l2.1-0.63C395.53,173.01,400.5,169.86,404.38,165.57z"/>
	<path class="st1" d="M443.15,73.99c0,4.08,3.31,7.4,7.4,7.4c51.88,0,94.08,42.21,94.08,94.08c0,4.08,3.31,7.4,7.4,7.4
		c4.09,0,7.4-3.31,7.4-7.4c0-60.04-48.85-108.89-108.88-108.89C446.46,66.58,443.15,69.9,443.15,73.99z"/>
	<path class="st1" d="M441.96,110.2c0,4.09,3.31,7.4,7.4,7.4c32.57,0,59.06,26.49,59.06,59.06c0,4.09,3.31,7.4,7.4,7.4
		c4.09,0,7.4-3.31,7.4-7.4c0-40.72-33.13-73.86-73.86-73.86C445.27,102.8,441.96,106.11,441.96,110.2z"/>
	<linearGradient id="SVGID_1_" gradientUnits="userSpaceOnUse" x1="334.3672" y1="220.6291" x2="453.9486" y2="220.6291">
		<stop  offset="0" style="stop-color:#0F1A2B"/>
		<stop  offset="1" style="stop-color:#1D4483"/>
	</linearGradient>
	<path class="st2" d="M334.37,155.4c0.17,0.98,0.27,1.94,0.51,2.94c14.3,61.62,60.64,110.04,119.07,128.78
		c-8.19-18.49-28.77-27.42-30.38-28.09c-7.58-6.11-17.91-16.11-25.14-30.97c-13.13-26.99-3.5-44.25-16.25-59.25
		C371.73,156.52,351.13,151.6,334.37,155.4z"/>
</g>
</svg>
