<?xml version="1.0" encoding="utf-8"?>
<!-- Generator: Adobe Illustrator 23.0.5, SVG Export Plug-In . SVG Version: 6.00 Build 0)  -->
<svg version="1.1" id="Layer_1" xmlns="http://www.w3.org/2000/svg" xmlns:xlink="http://www.w3.org/1999/xlink" x="0px" y="0px"
	 viewBox="0 0 883 355" style="enable-background:new 0 0 883 355;" xml:space="preserve">
<style type="text/css">
	.st0{fill:#F79421;}
	.st1{opacity:0.3;fill:#FBE831;}
	.st2{fill:#F7CC1A;}
	.st3{fill:#F05425;}
	.st4{fill:#1B4583;}
	.st5{fill:#1A3866;}
	.st6{fill:url(#SVGID_1_);}
	.st7{fill:#FBD011;}
</style>
<g>
	<g>
		<circle class="st0" cx="438.11" cy="153.81" r="19.03"/>
		<path class="st1" d="M437.26,138.23c-8.59,0.47-15.19,7.83-14.72,16.42c0.47,8.59,7.83,15.19,16.42,14.72
			c8.59-0.47,15.19-7.84,14.72-16.42C453.21,144.37,445.84,137.77,437.26,138.23z"/>
		<path class="st2" d="M437.07,134.81c-10.47,0.57-18.53,9.56-17.96,20.04c0.57,10.48,9.56,18.54,20.04,17.96
			c10.48-0.57,18.54-9.56,17.96-20.04C456.53,142.29,447.54,134.23,437.07,134.81z M422.54,154.65
			c-0.47-8.59,6.13-15.95,14.72-16.42c8.59-0.47,15.95,6.13,16.42,14.72c0.47,8.59-6.14,15.95-14.72,16.42
			C430.37,169.85,423,163.24,422.54,154.65z"/>
		<g>
			<path class="st3" d="M441.98,148.6c-1.17-0.96-2.16-1.44-3.47-1.37c-1.49,0.08-2.26,0.71-2.19,2.11
				c0.16,2.95,8.33,2.25,8.66,8.18c0.16,2.98-1.35,5.36-4.51,6.22l0.18,3.23l-3.01,0.16l-0.17-3.1c-1.84-0.12-4.06-0.81-5.59-2.06
				l1.82-3.18c1.65,1.09,3.04,1.64,4.53,1.56c1.74-0.09,2.47-0.85,2.4-2.28c-0.17-3.2-8.36-2.69-8.66-8.27
				c-0.17-3.04,1.52-5.25,4.4-6l-0.17-3.19l3.01-0.16l0.17,3.13c2,0.17,3.48,1.09,4.76,2.29L441.98,148.6z"/>
		</g>
	</g>
	<path class="st4" d="M495.3,112.18l-5.07,1.97l-35.57-5.56l-22.59,19.78l-3.8,9.15c5.62-3.24,13.23-4.28,20.77,0.7
		c6.5-2.88,12.02-4.8,17.25-2.02c3.08,1.64,2.94,4.32,1.84,6.8c-1.63,3.67-5.44,5.87-9.45,5.88l-0.3,0l-3.7,0.01l-1.6,0
		c0,0-8.67-3.35-14.03,2.6c-3.15,3.5,0.5,7.84,0.5,7.84s7.1-1.59,11.26-1.05c1.35,0.18,2.84,0.71,4.53,1.34
		c0.99,0.37,2.05,0.77,3.21,1.17c2.93,1.01,6.42,1.95,10.81,2.04c5.74,0.12,27.09-20.08,42.14-25.41c15.06-5.33,19.45-6.3,19.45-6.3
		L495.3,112.18z"/>
	<polygon class="st5" points="456.62,110.85 455.38,113.17 490.17,116.43 	"/>
	<path class="st5" d="M453.48,116.76c3.47,2.13,1.47,4.81,1.47,4.81l-2.51,0.96l46.7-1.34L453.48,116.76z"/>
	<linearGradient id="SVGID_1_" gradientUnits="userSpaceOnUse" x1="367.3141" y1="178.9402" x2="509.9781" y2="178.9402">
		<stop  offset="0" style="stop-color:#FDDB0E"/>
		<stop  offset="1" style="stop-color:#F89920"/>
	</linearGradient>
	<path class="st6" d="M509.35,181.48H367.94c-0.35,0-0.63-0.28-0.63-0.63v-3.83c0-0.35,0.28-0.63,0.63-0.63h141.41
		c0.35,0,0.63,0.28,0.63,0.63v3.83C509.98,181.2,509.7,181.48,509.35,181.48z"/>
	<path class="st7" d="M501.82,226.57H382.71c-0.94,0-1.71-0.76-1.71-1.71v-40.51h122.52v40.51
		C503.53,225.81,502.76,226.57,501.82,226.57z"/>
	<path class="st3" d="M504.39,222.12v-38.4h-61.26v42.22h57.44C502.68,225.94,504.39,224.23,504.39,222.12z"/>
	<g>
		<path class="st4" d="M436.28,214.63v2.96h-13.87v-2.34l7.47-7.1c1.83-1.75,2.15-2.85,2.15-3.9c0-1.72-1.18-2.72-3.5-2.72
			c-1.83,0-3.36,0.62-4.41,1.96l-2.45-1.88c1.45-1.96,4.06-3.12,7.15-3.12c4.09,0,6.72,2.07,6.72,5.4c0,1.83-0.51,3.49-3.12,5.94
			l-5.03,4.79H436.28z"/>
		<path class="st4" d="M442.88,215.54c0,0.59-0.13,1.08-0.62,2.31l-1.37,3.79h-2.18l1.07-4.11c-0.75-0.32-1.26-1.02-1.26-1.99
			c0-1.34,0.94-2.23,2.18-2.23C441.96,213.31,442.88,214.23,442.88,215.54z"/>
		<path class="st4" d="M458.82,211.81c0,3.31-2.39,6.05-7.45,6.05c-2.66,0-5.35-0.81-7.07-2.18l1.48-2.72
			c1.37,1.13,3.41,1.86,5.54,1.86c2.5,0,3.98-1.1,3.98-2.88c0-1.8-1.16-2.93-5.05-2.93h-4.54l0.97-10.24h11.05v2.93h-8.09l-0.4,4.36
			h1.8C456.59,206.05,458.82,208.47,458.82,211.81z"/>
		<path class="st4" d="M460.29,203.74c0-3.09,1.8-5.16,4.49-5.16c2.69,0,4.52,2.04,4.52,5.16c0,3.12-1.83,5.16-4.52,5.16
			C462.09,208.9,460.29,206.83,460.29,203.74z M467.09,203.74c0-2.1-0.86-3.28-2.31-3.28c-1.4,0-2.31,1.21-2.31,3.28
			c0,2.07,0.92,3.28,2.31,3.28C466.23,207.02,467.09,205.84,467.09,203.74z M476.07,198.77h2.64l-12.85,18.82h-2.63L476.07,198.77z
			 M472.62,212.61c0-3.09,1.8-5.16,4.49-5.16s4.52,2.07,4.52,5.16c0,3.09-1.83,5.16-4.52,5.16S472.62,215.7,472.62,212.61z
			 M479.43,212.61c0-2.07-0.89-3.28-2.31-3.28s-2.31,1.18-2.31,3.28s0.89,3.28,2.31,3.28S479.43,214.68,479.43,212.61z"/>
	</g>
</g>
</svg>
