<?xml version="1.0" encoding="utf-8"?>
<!-- Generator: Adobe Illustrator 23.0.5, SVG Export Plug-In . SVG Version: 6.00 Build 0)  -->
<svg version="1.1" id="Layer_1" xmlns="http://www.w3.org/2000/svg" xmlns:xlink="http://www.w3.org/1999/xlink" x="0px" y="0px"
	 viewBox="0 0 883 355" style="enable-background:new 0 0 883 355;" xml:space="preserve">
<style type="text/css">
	.st0{fill:#1D4483;}
	.st1{fill:#F9C113;}
	.st2{fill:url(#SVGID_1_);}
</style>
<g>
	<path class="st0" d="M431,139.7c0,0-25.1,29.7-25.1,52.54c0,16.4,11.24,29.7,25.1,29.7c13.86,0,25.1-13.3,25.1-29.7
		C456.1,167.11,431,139.7,431,139.7z M430.89,219.2c-12.14,0-21.98-11.65-21.98-26.02c0-20.01,3.6-19.07,3.6-4
		c0,14.37,9.84,26.02,21.99,26.02C439.41,215.2,437.59,219.2,430.89,219.2z"/>
	<path class="st0" d="M467.16,205.08c0.08,0.44,0.26,0.88,0.59,1.26c0.55,0.65,1.51,1.11,3.02,1.15h0c0.61,0.01,1.12-0.04,1.55-0.15
		c1.25-0.3,1.85-1.02,2.26-1.8c0.04-0.07,0.08-0.15,0.11-0.23c0.04-0.08,0.07-0.15,0.11-0.23h3c-0.32,0.4-1,0.55-1.41,0.6
		c-0.06,0.01-0.12,0.01-0.17,0.02c-0.1,0.01-0.17,0.01-0.17,0.01l0.36,1.75l0.06,0.3c0.39-0.02,0.74-0.07,1.06-0.14
		c0.7-0.15,1.23-0.4,1.63-0.7c0.22-0.17,0.41-0.36,0.55-0.56c0.15-0.21,0.26-0.43,0.34-0.66c0.07-0.2,0.12-0.4,0.14-0.61h1v-0.98
		h-1.03c-0.05-0.28-0.13-0.55-0.24-0.79c-0.16-0.37-0.36-0.68-0.58-0.88c-1.16-1.06-3.93-1.49-5.55-0.48
		c-0.24,0.15-0.44,0.31-0.62,0.48c-0.26,0.25-0.47,0.51-0.64,0.78c-0.2,0.3-0.35,0.61-0.48,0.89l-2.42,0
		c0.36-0.42,1.11-0.51,1.11-0.51l-0.15-0.5l-0.13-0.44l-0.32-1.05c-1.28,0.17-2.22,0.78-2.69,1.65c-0.02,0.03-0.03,0.06-0.04,0.1
		c-0.12,0.24-0.21,0.49-0.25,0.76h-0.94v0.98h0.75H467.16z M475.57,203.74c0.22-0.22,0.47-0.33,0.82-0.38
		c0.6-0.1,1.27,0.14,1.5,0.74h-1.12h-1.48C475.38,203.95,475.47,203.83,475.57,203.74z M471.54,205.08
		c-0.03,0.04-0.06,0.08-0.1,0.12c-0.5,0.53-1.51,0.46-1.87-0.12H471.54z"/>
	<path class="st0" d="M443.86,189.3c0.08,0.45,0.26,0.88,0.58,1.26c0.55,0.65,1.51,1.12,3.02,1.15h0c0.61,0.01,1.12-0.04,1.55-0.15
		c1.25-0.3,1.85-1.02,2.26-1.8c0.04-0.07,0.08-0.15,0.11-0.23c0.04-0.08,0.07-0.15,0.11-0.23h3c-0.32,0.4-1,0.55-1.41,0.6
		c-0.06,0.01-0.12,0.01-0.17,0.02c-0.1,0.01-0.17,0.01-0.17,0.01l0.36,1.75l0.06,0.3c0.39-0.02,0.74-0.07,1.06-0.14
		c0.7-0.15,1.23-0.4,1.64-0.71c0.22-0.17,0.41-0.36,0.55-0.56c0.15-0.21,0.26-0.43,0.34-0.66c0.07-0.2,0.12-0.4,0.14-0.61h1v-0.98
		h-1.03c-0.05-0.28-0.13-0.55-0.24-0.79c-0.16-0.37-0.36-0.68-0.58-0.88c-1.16-1.06-3.94-1.49-5.55-0.48
		c-0.24,0.15-0.44,0.31-0.62,0.48c-0.26,0.25-0.47,0.51-0.64,0.78c-0.2,0.3-0.35,0.61-0.48,0.89l-2.42,0
		c0.36-0.42,1.11-0.51,1.11-0.51l-0.15-0.5l-0.13-0.44l-0.32-1.05c-1.28,0.17-2.22,0.79-2.69,1.65c-0.02,0.03-0.03,0.06-0.04,0.1
		c-0.12,0.24-0.21,0.49-0.25,0.76h-0.94v0.98h0.75H443.86z M452.27,187.96c0.22-0.22,0.47-0.33,0.82-0.38
		c0.6-0.1,1.27,0.14,1.5,0.74h-1.12h-1.48C452.08,188.17,452.17,188.06,452.27,187.96z M448.23,189.3c-0.03,0.04-0.06,0.08-0.1,0.12
		c-0.5,0.53-1.51,0.46-1.87-0.12H448.23z"/>
	<g>
		<path class="st1" d="M485.21,211.56c-0.81,1.14-2.16,2.12-3.89,2.87c-2,2.32-6.34,3.93-11.38,3.93c-0.78,0-1.55-0.04-2.3-0.12
			c1.75,0.5,3.73,0.78,5.84,0.78c6.38,0,11.65-2.58,12.45-5.91c0.07-0.29,0.11-0.59,0.11-0.89c0-0.53-0.12-1.05-0.33-1.55
			C485.58,210.97,485.41,211.27,485.21,211.56z"/>
		<path class="st1" d="M461.13,206.13c0.06,0.16,0.12,0.33,0.19,0.49c0.07,0.14,0.14,0.27,0.22,0.4c0.33,0.55,0.79,1.07,1.36,1.55
			c0.37,0.31,0.79,0.61,1.24,0.89c2.3,1.38,5.63,2.25,9.34,2.25c3.33,0,6.36-0.7,8.61-1.85c0.13-0.07,0.26-0.14,0.39-0.21
			c0.11-0.06,0.22-0.13,0.33-0.19c0.46-0.28,0.87-0.57,1.25-0.89c0.57-0.48,1.03-1,1.36-1.55c0.17-0.29,0.31-0.58,0.41-0.89
			c0.04-0.11,0.07-0.22,0.1-0.33c0.07-0.29,0.11-0.59,0.11-0.89c0-3.75-5.62-6.8-12.56-6.8c-6.94,0-12.56,3.04-12.56,6.8
			c0,0.05,0.01,0.09,0.01,0.14c-2.2,1.22-3.55,2.89-3.55,4.73c0,0.3,0.04,0.6,0.11,0.89c0.36,1.5,1.62,2.84,3.48,3.87
			c0.36,0.2,0.73,0.38,1.13,0.55c2.15,0.93,4.87,1.49,7.84,1.49c2.11,0,4.1-0.28,5.84-0.78c-0.74,0.08-1.51,0.12-2.29,0.12
			c-5.35,0-9.91-1.81-11.72-4.36c-0.2-0.29-0.37-0.58-0.5-0.89c-0.22-0.5-0.33-1.02-0.33-1.55c0-0.3,0.04-0.6,0.11-0.89
			c0.13,0.54,0.38,1.06,0.73,1.55c0.22,0.31,0.48,0.6,0.77,0.89c2.15,2.07,6.25,3.47,10.95,3.47c2.96,0,5.69-0.56,7.84-1.49
			c0.4-0.17,0.78-0.36,1.13-0.55c0.77-0.43,1.44-0.91,1.98-1.43c0.3-0.28,0.55-0.58,0.77-0.89c0.35-0.49,0.6-1.01,0.73-1.55
			c0.07-0.29,0.11-0.59,0.11-0.89c0-0.11-0.01-0.22-0.02-0.33c-0.03,0.3-0.09,0.6-0.19,0.89c-0.18,0.54-0.48,1.06-0.89,1.55
			c-0.25,0.31-0.55,0.61-0.88,0.89c-0.46,0.39-0.99,0.75-1.58,1.08c-0.16,0.09-0.32,0.18-0.49,0.26c-2.24,1.12-5.23,1.8-8.52,1.8
			c-4.45,0-8.35-1.25-10.58-3.14c-0.33-0.28-0.63-0.58-0.88-0.89c-0.4-0.49-0.7-1.01-0.89-1.55c-0.1-0.29-0.16-0.58-0.19-0.89
			c0.01-0.07,0.02-0.14,0.03-0.21c-0.01,0.01-0.02,0.02-0.04,0.02c0-0.05-0.01-0.09-0.01-0.14c0-0.3,0.04-0.6,0.11-0.89
			C461.06,205.91,461.1,206.02,461.13,206.13z M465.98,204h0.94c0.04-0.27,0.13-0.52,0.25-0.76c0.01-0.03,0.03-0.06,0.04-0.1
			c0.47-0.86,1.41-1.47,2.69-1.65l0.32,1.05l0.13,0.44l0.15,0.5c0,0-0.75,0.09-1.11,0.51l2.42,0c0.13-0.28,0.28-0.59,0.48-0.89
			c0.17-0.27,0.38-0.53,0.64-0.78c0.18-0.17,0.39-0.33,0.62-0.48c1.62-1.01,4.39-0.58,5.55,0.48c0.22,0.2,0.43,0.51,0.58,0.88
			c0.1,0.24,0.19,0.51,0.24,0.79h1.03v0.98h-1c-0.02,0.21-0.07,0.41-0.14,0.61c-0.08,0.23-0.19,0.45-0.34,0.66
			c-0.15,0.2-0.33,0.39-0.55,0.56c-0.4,0.31-0.94,0.56-1.63,0.7c-0.32,0.07-0.67,0.12-1.06,0.14l-0.06-0.3l-0.36-1.75
			c0,0,0.07,0,0.17-0.01c0.05,0,0.11-0.01,0.17-0.02c0.41-0.05,1.09-0.19,1.41-0.6h-3c-0.03,0.08-0.07,0.15-0.11,0.23
			c-0.04,0.08-0.07,0.15-0.11,0.23c-0.41,0.78-1.01,1.5-2.26,1.8c-0.43,0.1-0.94,0.16-1.55,0.15h0c-1.52-0.03-2.47-0.5-3.02-1.15
			c-0.32-0.38-0.51-0.81-0.59-1.26h-0.2h-0.75V204z"/>
		<path class="st1" d="M476.16,203.26c-0.35,0.06-0.6,0.16-0.82,0.38c-0.1,0.1-0.19,0.21-0.28,0.36h1.48h1.12
			C477.43,203.41,476.76,203.17,476.16,203.26z"/>
		<path class="st1" d="M471.21,205.1c0.03-0.04,0.07-0.08,0.1-0.12h-1.97C469.7,205.56,470.71,205.64,471.21,205.1z"/>
		<path class="st1" d="M461.9,195.78c-0.81,1.14-2.16,2.12-3.88,2.87c-2,2.32-6.34,3.92-11.38,3.92c-0.78,0-1.55-0.04-2.29-0.12
			c1.74,0.5,3.73,0.78,5.84,0.78c6.38,0,11.64-2.57,12.45-5.91c0.07-0.29,0.11-0.59,0.11-0.89c0-0.53-0.12-1.05-0.33-1.55
			C462.28,195.2,462.11,195.5,461.9,195.78z"/>
		<path class="st1" d="M437.83,190.35c0.06,0.16,0.12,0.33,0.19,0.49c0.06,0.14,0.14,0.27,0.22,0.4c0.33,0.55,0.79,1.07,1.36,1.55
			c0.37,0.31,0.79,0.61,1.24,0.89c2.3,1.38,5.63,2.25,9.34,2.25c3.34,0,6.36-0.7,8.61-1.85c0.13-0.07,0.26-0.14,0.39-0.21
			c0.11-0.06,0.23-0.13,0.33-0.19c0.46-0.28,0.87-0.57,1.24-0.89c0.57-0.48,1.03-1,1.36-1.55c0.17-0.29,0.31-0.58,0.41-0.89
			c0.04-0.11,0.07-0.22,0.1-0.33c0.07-0.29,0.11-0.59,0.11-0.89c0-3.75-5.62-6.8-12.56-6.8c-6.94,0-12.56,3.04-12.56,6.8
			c0,0.05,0,0.09,0.01,0.14c-2.2,1.22-3.55,2.89-3.55,4.73c0,0.3,0.04,0.6,0.11,0.89c0.36,1.5,1.62,2.84,3.48,3.87
			c0.36,0.2,0.73,0.38,1.13,0.55c2.15,0.93,4.87,1.49,7.84,1.49c2.11,0,4.1-0.28,5.84-0.78c-0.74,0.08-1.51,0.12-2.29,0.12
			c-5.35,0-9.91-1.81-11.72-4.36c-0.2-0.29-0.37-0.58-0.5-0.89c-0.22-0.5-0.33-1.02-0.33-1.55c0-0.3,0.04-0.6,0.11-0.89
			c0.13,0.54,0.38,1.06,0.73,1.55c0.22,0.31,0.48,0.6,0.77,0.89c2.15,2.07,6.25,3.47,10.95,3.47c2.96,0,5.69-0.56,7.84-1.49
			c0.4-0.17,0.77-0.36,1.13-0.55c0.77-0.43,1.44-0.91,1.98-1.43c0.3-0.28,0.55-0.58,0.77-0.89c0.35-0.49,0.6-1.01,0.73-1.55
			c0.07-0.29,0.11-0.58,0.11-0.89c0-0.11-0.01-0.22-0.02-0.33c-0.03,0.3-0.09,0.6-0.19,0.89c-0.18,0.54-0.48,1.06-0.89,1.55
			c-0.26,0.31-0.55,0.6-0.88,0.89c-0.46,0.39-0.99,0.75-1.58,1.08c-0.16,0.09-0.32,0.18-0.49,0.26c-2.24,1.12-5.23,1.8-8.52,1.8
			c-4.45,0-8.35-1.25-10.58-3.14c-0.33-0.28-0.63-0.58-0.88-0.89c-0.4-0.49-0.71-1.01-0.89-1.55c-0.1-0.29-0.16-0.58-0.19-0.89
			c0.01-0.07,0.02-0.14,0.03-0.21c-0.01,0.01-0.02,0.01-0.04,0.02c0-0.05-0.01-0.09-0.01-0.14c0-0.3,0.04-0.6,0.11-0.89
			C437.76,190.13,437.79,190.24,437.83,190.35z M442.68,188.23h0.94c0.04-0.27,0.13-0.52,0.25-0.76c0.02-0.03,0.03-0.06,0.04-0.1
			c0.47-0.86,1.41-1.47,2.69-1.65l0.32,1.05l0.13,0.44l0.15,0.5c0,0-0.75,0.09-1.11,0.51l2.42,0c0.13-0.28,0.29-0.59,0.48-0.89
			c0.17-0.27,0.38-0.53,0.64-0.78c0.18-0.17,0.39-0.33,0.62-0.48c1.62-1.01,4.39-0.58,5.55,0.48c0.22,0.2,0.43,0.51,0.58,0.88
			c0.1,0.24,0.19,0.51,0.24,0.79h1.03v0.98h-1c-0.02,0.2-0.07,0.41-0.14,0.61c-0.08,0.23-0.19,0.45-0.34,0.66
			c-0.15,0.2-0.33,0.39-0.55,0.56c-0.4,0.31-0.94,0.56-1.64,0.71c-0.32,0.07-0.67,0.12-1.06,0.14l-0.06-0.3l-0.36-1.75
			c0,0,0.07,0,0.17-0.01c0.05,0,0.11-0.01,0.17-0.02c0.41-0.05,1.09-0.19,1.41-0.6h-3c-0.03,0.08-0.07,0.15-0.11,0.23
			c-0.04,0.08-0.07,0.15-0.11,0.23c-0.41,0.78-1.01,1.5-2.26,1.8c-0.43,0.1-0.94,0.16-1.55,0.15h0c-1.52-0.03-2.47-0.5-3.02-1.15
			c-0.32-0.37-0.51-0.81-0.58-1.26h-0.2h-0.75V188.23z"/>
		<path class="st1" d="M452.85,187.49c-0.35,0.06-0.6,0.16-0.82,0.38c-0.1,0.1-0.19,0.21-0.28,0.36h1.48h1.12
			C454.13,187.63,453.45,187.39,452.85,187.49z"/>
		<path class="st1" d="M447.9,189.33c0.03-0.04,0.07-0.08,0.1-0.12h-1.97C446.4,189.79,447.4,189.86,447.9,189.33z"/>
	</g>
	<linearGradient id="SVGID_1_" gradientUnits="userSpaceOnUse" x1="405.8809" y1="190.3803" x2="445.8425" y2="190.3803">
		<stop  offset="0" style="stop-color:#0F1A2B"/>
		<stop  offset="1" style="stop-color:#1D4483"/>
	</linearGradient>
	<path class="st2" d="M441.18,204.13c-4.34-2.48-8.84,3.04-15.01,0.48c-6.7-2.78-10.36-12.99-9.69-21.31
		c0.77-9.57,6.92-12.25,5.33-18.4c-0.61-2.37-2.17-4.43-4.2-6.11c-5.99,10.06-11.73,22.55-11.73,33.47c0,16.4,11.24,29.7,25.1,29.7
		c5.57,0,10.7-2.17,14.86-5.81C445.69,210.54,444.15,205.83,441.18,204.13z M430.86,219.23c-12.14,0-21.98-11.65-21.98-26.02
		c0-20.01,3.6-19.07,3.6-4c0,14.37,9.84,26.02,21.99,26.02C439.39,215.23,437.57,219.23,430.86,219.23z"/>
</g>
</svg>
