<?xml version="1.0" encoding="utf-8"?>
<!-- Generator: Adobe Illustrator 23.0.5, SVG Export Plug-In . SVG Version: 6.00 Build 0)  -->
<svg version="1.1" id="Layer_1" xmlns="http://www.w3.org/2000/svg" xmlns:xlink="http://www.w3.org/1999/xlink" x="0px" y="0px"
	 viewBox="0 0 883 355" style="enable-background:new 0 0 883 355;" xml:space="preserve">
<style type="text/css">
	.st0{fill:#1D4483;}
	.st1{opacity:0.6;fill:url(#SVGID_1_);}
	.st2{fill:#F9C113;}
	.st3{fill:url(#SVGID_2_);}
</style>
<g>
	<g>
		<g>
			<path class="st0" d="M570.31,150.57H562c-6.74-14.63-26.99-54.78-51.72-67.78c-8.36-4.39-38.64-18.69-77.26-17.82
				c-30.31,0.66-70.36,9.31-88.28,24.59c-14.09,12.03-32.35,44.96-38.31,61.01h-8.19c-0.68,1.09-62.51,12.83-80.68,31.33
				c-19.28,19.61-21.91,72.17-3.55,72.17c5.12,0,25.47,0,58.22,0c-0.1,1.17-0.17,2.37-0.17,3.58c0,22.22,18,40.22,40.21,40.22
				c22.21,0,40.21-18,40.21-40.22c0-1.21-0.07-2.41-0.17-3.58c29.59,0,63.23,0,100.29,0c5.85,0,11.74,0,17.77,0
				c16.3,0,32.6,0,48.4,0c-0.11,1.17-0.19,2.37-0.19,3.58c0,22.22,18.01,40.22,40.22,40.22c22.21,0,40.22-18,40.22-40.22
				c0-1.21-0.08-2.41-0.18-3.58c29.5,0,50.49,0,55.69,0c18.36,0,15.74-52.56-3.55-72.17C632.82,163.39,570.99,151.66,570.31,150.57z
				 M416.27,150.57H343.5c6.57-12.8,16.98-29.91,23.23-35.24c6.82-5.82,27.03-12.42,49.53-15.2V150.57z M470.38,150.57h-17.77h-2.48
				V99.52c22.4,2.46,39.07,10.43,44.38,13.25c8.85,4.65,20.57,21.5,29.55,37.8H470.38z"/>
			<linearGradient id="SVGID_1_" gradientUnits="userSpaceOnUse" x1="202.5087" y1="194.7716" x2="453.8457" y2="194.7716">
				<stop  offset="0" style="stop-color:#0F1A2B"/>
				<stop  offset="1" style="stop-color:#1D4483"/>
			</linearGradient>
			<path class="st1" d="M453.85,253.98c-10.43-38.01-28.04-73.02-51.33-103.5h-58.09c6.57-12.8,16.98-29.91,23.23-35.24
				c0.51-0.43,1.23-0.88,1.89-1.32c-8.31-7.85-17.02-15.28-26.18-22.15c-13.72,13.39-30.36,43.52-36,58.71h-8.19
				c-0.68,1.1-62.51,12.83-80.68,31.33c-19.28,19.61-21.9,72.17-3.55,72.17c5.12,0,25.47,0,58.22,0c-0.1,1.17-0.17,2.37-0.17,3.58
				c0,22.22,18,40.22,40.21,40.22c22.21,0,40.21-18,40.21-40.22c0-1.21-0.07-2.41-0.17-3.58c29.59,0,63.23,0,100.29,0
				C453.64,253.98,453.74,253.98,453.85,253.98z"/>
			<path class="st2" d="M595.7,161.54l-6.61-6.57l39.07-39.32l7.44-1.7l13.83-20.91l-6.99-6.95l-20.82,13.96l-1.66,7.45
				l-39.07,39.32l-6.61-6.57c-0.9-0.89-2.45-0.79-3.46,0.24l-3.15,3.17c-1.02,1.02-1.11,2.57-0.22,3.47l0.37,0.36
				c-3.39,0.9-6.69,2.75-9.45,5.52l-43.97,44.24c-7.44,7.48-8.14,18.84-1.57,25.37l0.89,0.88c6.57,6.53,17.93,5.75,25.36-1.73
				l43.97-44.24c2.76-2.78,4.59-6.09,5.46-9.48l0.37,0.36c0.9,0.89,2.45,0.79,3.47-0.24l3.15-3.17
				C596.51,163.99,596.6,162.44,595.7,161.54z M515.85,207.46l-2.66-2.64l48.34-48.65l2.66,2.64L515.85,207.46z M523.54,215.1
				l-2.66-2.64l48.34-48.65l2.66,2.64L523.54,215.1z M531.24,222.74l-2.66-2.64l48.34-48.65l2.66,2.64L531.24,222.74z"/>
			<path class="st2" d="M650.92,178.07c10.45,4.13,22.81,2.07,31.37-6.29c6.91-6.74,9.77-16.05,8.59-24.94
				c-0.17-1.31-1.78-1.85-2.72-0.92l-14.46,14.46l-17.47-4.18l-4.17-17.47l14.46-14.46c0.93-0.93,0.39-2.54-0.91-2.71
				c-8.65-1.15-17.71,1.52-24.44,8.08c-8.75,8.54-11.05,21.2-6.82,31.9l-58.78,58.78c-10.46-4.13-22.81-2.07-31.37,6.29
				c-6.91,6.74-9.77,16.05-8.59,24.94c0.17,1.31,1.78,1.85,2.72,0.92l14.46-14.46l17.47,4.18l4.17,17.46l-14.46,14.46
				c-0.93,0.93-0.39,2.54,0.91,2.71c8.65,1.15,17.71-1.52,24.44-8.08c8.75-8.54,11.05-21.2,6.82-31.9"/>
		</g>
	</g>
	<linearGradient id="SVGID_2_" gradientUnits="userSpaceOnUse" x1="516.1503" y1="140.6289" x2="644.8472" y2="140.6289">
		<stop  offset="0" style="stop-color:#FFF33B"/>
		<stop  offset="0.0595" style="stop-color:#FFE029"/>
		<stop  offset="0.1303" style="stop-color:#FFD218"/>
		<stop  offset="0.2032" style="stop-color:#FEC90F"/>
		<stop  offset="0.2809" style="stop-color:#FDC70C"/>
		<stop  offset="0.6685" style="stop-color:#F3903F"/>
		<stop  offset="0.8876" style="stop-color:#ED683C"/>
		<stop  offset="1" style="stop-color:#E93E3A"/>
	</linearGradient>
	<path class="st3" d="M633.5,96.71c5.04,0.41,11.35-8.19,11.35-8.19s-0.38-0.34-0.87-0.9l-1.65-1.64l-20.82,13.96l-1.66,7.45
		l-39.07,39.32l-6.61-6.57c-0.9-0.89-2.45-0.79-3.46,0.24l-3.15,3.17c-1.02,1.02-1.11,2.57-0.22,3.47l0.37,0.36
		c-3.39,0.9-6.69,2.75-9.45,5.52l-42.11,42.37c3.64-0.07,7.22-0.83,8.61-3.42c0.89-1.68,3.1-3.37,6.13-5.07l30.54-30.73l2.66,2.64
		l-23.58,23.73c4.42-1.69,9.52-3.37,14.98-5.01l13.63-13.72l2.66,2.64l-8.86,8.91c1.66-0.47,3.32-0.94,5.01-1.4
		c20.92-5.67,19.85-18,19.85-18l7.49-20.89c0,0,13.93-18.18,21.3-19c7.37-0.82,5.57-8.6,5.57-8.6S628.46,96.3,633.5,96.71z"/>
</g>
</svg>
