<?xml version="1.0" encoding="utf-8"?>
<!-- Generator: Adobe Illustrator 23.0.5, SVG Export Plug-In . SVG Version: 6.00 Build 0)  -->
<svg version="1.1" id="Layer_1" xmlns="http://www.w3.org/2000/svg" xmlns:xlink="http://www.w3.org/1999/xlink" x="0px" y="0px"
	 viewBox="0 0 883 355" style="enable-background:new 0 0 883 355;" xml:space="preserve">
<style type="text/css">
	.st0{fill:#1D4483;}
	.st1{fill:url(#SVGID_1_);}
	.st2{fill:#92B5C4;}
	.st3{fill:url(#SVGID_2_);}
	.st4{fill:#FFCC7E;}
	.st5{fill:#F9C113;}
	.st6{fill:#FFFFFF;}
	.st7{opacity:0.8;fill:url(#SVGID_3_);}
</style>
<g>
	<path class="st0" d="M463.49,302.02h-76.66c-9.03,0-16.78-6.47-18.36-15.36c-10.4-58.57,8.92-122.55,28.9-180.27
		c1.34-3.88,5-6.47,9.11-6.47h37.37c4.11,0,7.77,2.59,9.11,6.47c19.98,57.72,39.3,121.7,28.9,180.27
		C480.28,295.55,472.52,302.02,463.49,302.02z"/>
	<linearGradient id="SVGID_1_" gradientUnits="userSpaceOnUse" x1="386.2257" y1="200.9678" x2="464.094" y2="200.9678">
		<stop  offset="0" style="stop-color:#0F1A2B"/>
		<stop  offset="0.9421" style="stop-color:#0F182A"/>
		<stop  offset="1" style="stop-color:#0F182A"/>
	</linearGradient>
	<path class="st1" d="M386.81,267.44c-3.54-44.24,9.4-92.47,24.06-136.62c2.03-6.12,7.73-10.25,14.18-10.25h0.22
		c6.44,0,12.15,4.14,14.18,10.25c14.66,44.15,27.6,92.39,24.06,136.62c-0.63,7.83-7.05,13.92-14.9,13.92h-46.89
		C393.86,281.36,387.44,275.27,386.81,267.44z"/>
	<path class="st0" d="M447.82,94.78H402.5V79.44c0-12.39,10.04-22.43,22.43-22.43h0.45c12.39,0,22.43,10.04,22.43,22.43V94.78z"/>
	<rect x="406.79" y="94.78" class="st2" width="36.74" height="5.14"/>
	<linearGradient id="SVGID_2_" gradientUnits="userSpaceOnUse" x1="396.1311" y1="231.9772" x2="454.1885" y2="231.9772">
		<stop  offset="0" style="stop-color:#0F1A2B"/>
		<stop  offset="1" style="stop-color:#1D4483"/>
	</linearGradient>
	<ellipse class="st3" cx="425.16" cy="231.98" rx="29.03" ry="39.66"/>
	<rect x="414.51" y="245.48" class="st4" width="110.26" height="8.61"/>
	<path class="st5" d="M424.81,221.96h89.67c8.24,0,14.92,6.68,14.92,14.92v9.29h-119.5v-9.29
		C409.89,228.64,416.57,221.96,424.81,221.96z"/>
	<rect x="409.89" y="260.91" class="st4" width="119.5" height="24.15"/>
	<ellipse class="st6" cx="469.64" cy="271.77" rx="44.96" ry="6.24"/>
	<path class="st5" d="M514.47,305.43h-89.67c-8.24,0-14.92-6.68-14.92-14.92v-39.93h119.5v39.93
		C529.39,298.75,522.71,305.43,514.47,305.43z"/>
	<linearGradient id="SVGID_3_" gradientUnits="userSpaceOnUse" x1="409.892" y1="278.0065" x2="526.5164" y2="278.0065">
		<stop  offset="0" style="stop-color:#D36127"/>
		<stop  offset="1" style="stop-color:#F9C113"/>
	</linearGradient>
	<path class="st7" d="M522.23,303.2c2.46-3.17,5.11-6.45,4.04-8.32c-1.9-3.32-12.17,3.58-20.65-0.74
		c-8.79-4.47-4.85-15.49-14.75-24.34c-9.35-8.35-23-7.6-25.82-7.38c-14.49,1.15-18.28,10.34-26.31,7.38
		c-7.96-2.94-7.8-13.29-17.21-15.24c-4.2-0.87-6.99,0.62-9.83-1.72c-0.82-0.68-1.34-1.45-1.71-2.25h-0.1v39.93
		c0,8.24,6.68,14.92,14.92,14.92h89.67C517.33,305.43,519.97,304.59,522.23,303.2z"/>
</g>
</svg>
