<?xml version="1.0" encoding="utf-8"?>
<!-- Generator: Adobe Illustrator 23.0.5, SVG Export Plug-In . SVG Version: 6.00 Build 0)  -->
<svg version="1.1" id="Layer_1" xmlns="http://www.w3.org/2000/svg" xmlns:xlink="http://www.w3.org/1999/xlink" x="0px" y="0px"
	 viewBox="0 0 883 355" style="enable-background:new 0 0 883 355;" xml:space="preserve">
<style type="text/css">
	.st0{fill:url(#SVGID_1_);}
	.st1{fill:url(#SVGID_2_);}
	.st2{fill:url(#SVGID_3_);}
	.st3{fill:url(#SVGID_4_);}
	.st4{fill:url(#SVGID_5_);}
	.st5{fill:url(#SVGID_6_);}
	.st6{fill:#1D4483;}
	.st7{fill:url(#SVGID_7_);}
</style>
<g>
	<linearGradient id="SVGID_1_" gradientUnits="userSpaceOnUse" x1="344.9757" y1="186.1898" x2="425.8189" y2="186.1898">
		<stop  offset="0" style="stop-color:#D36127"/>
		<stop  offset="0.0141" style="stop-color:#D56827"/>
		<stop  offset="0.0737" style="stop-color:#DD7E25"/>
		<stop  offset="0.1412" style="stop-color:#E59223"/>
		<stop  offset="0.2174" style="stop-color:#EBA220"/>
		<stop  offset="0.3065" style="stop-color:#F1B01C"/>
		<stop  offset="0.4166" style="stop-color:#F6B918"/>
		<stop  offset="0.5711" style="stop-color:#F8BF14"/>
		<stop  offset="1" style="stop-color:#F9C113"/>
	</linearGradient>
	<path class="st0" d="M345.65,171.29c2.32-7.28,10.13-11.35,17.32-9.03l40.08,13.48c2.18,0.95,9.8,3.79,22.77,3.59v31.45
		c-1.91-0.18-3.73-0.5-5.21-0.97l-65.97-21.08c-3.54-1.13-6.43-3.57-8.11-6.86C344.82,178.56,344.51,174.8,345.65,171.29z"/>
	<linearGradient id="SVGID_2_" gradientUnits="userSpaceOnUse" x1="344.2893" y1="230.4842" x2="425.8189" y2="230.4842">
		<stop  offset="0" style="stop-color:#D36127"/>
		<stop  offset="0.0141" style="stop-color:#D56827"/>
		<stop  offset="0.0737" style="stop-color:#DD7E25"/>
		<stop  offset="0.1412" style="stop-color:#E59223"/>
		<stop  offset="0.2174" style="stop-color:#EBA220"/>
		<stop  offset="0.3065" style="stop-color:#F1B01C"/>
		<stop  offset="0.4166" style="stop-color:#F6B918"/>
		<stop  offset="0.5711" style="stop-color:#F8BF14"/>
		<stop  offset="1" style="stop-color:#F9C113"/>
	</linearGradient>
	<path class="st1" d="M344.95,215.53c2.35-7.3,10.16-11.29,17.46-9c0-0.03,40.9,13.03,57.56,18.35c1.63,0.53,3.7,0.88,5.84,1.04
		v29.16c-2.16-0.16-4.24-0.51-5.87-1.03l-66-21.08c-3.51-1.13-6.39-3.57-8.11-6.86C344.15,222.81,343.82,219.05,344.95,215.53z"/>
	<linearGradient id="SVGID_3_" gradientUnits="userSpaceOnUse" x1="344.2893" y1="275.0078" x2="425.8189" y2="275.0078">
		<stop  offset="0" style="stop-color:#D36127"/>
		<stop  offset="0.0141" style="stop-color:#D56827"/>
		<stop  offset="0.0737" style="stop-color:#DD7E25"/>
		<stop  offset="0.1412" style="stop-color:#E59223"/>
		<stop  offset="0.2174" style="stop-color:#EBA220"/>
		<stop  offset="0.3065" style="stop-color:#F1B01C"/>
		<stop  offset="0.4166" style="stop-color:#F6B918"/>
		<stop  offset="0.5711" style="stop-color:#F8BF14"/>
		<stop  offset="1" style="stop-color:#F9C113"/>
	</linearGradient>
	<path class="st2" d="M353.95,277.49c-3.51-1.13-6.39-3.57-8.11-6.86c-1.69-3.29-2.02-7.06-0.89-10.57c2.35-7.3,10.16-11.29,17.46-9
		c0.03-0.08,40.37,12.82,56.9,18.07c1.79,0.57,4.12,0.93,6.5,1.07v29.4c-2.16-0.16-4.24-0.5-5.87-1.03L353.95,277.49z"/>
	<linearGradient id="SVGID_4_" gradientUnits="userSpaceOnUse" x1="428.1062" y1="272.5753" x2="556.194" y2="272.5753">
		<stop  offset="0" style="stop-color:#D36127"/>
		<stop  offset="0.0141" style="stop-color:#D56827"/>
		<stop  offset="0.0737" style="stop-color:#DD7E25"/>
		<stop  offset="0.1412" style="stop-color:#E59223"/>
		<stop  offset="0.2174" style="stop-color:#EBA220"/>
		<stop  offset="0.3065" style="stop-color:#F1B01C"/>
		<stop  offset="0.4166" style="stop-color:#F6B918"/>
		<stop  offset="0.5711" style="stop-color:#F8BF14"/>
		<stop  offset="1" style="stop-color:#F9C113"/>
	</linearGradient>
	<path class="st3" d="M556.19,275.03l-122.21,24.14c-1.66,0.38-3.74,0.55-5.87,0.53v-29.44c1.91-0.01,3.74-0.18,5.24-0.52
		l122.85-24.29V275.03z"/>
	<linearGradient id="SVGID_5_" gradientUnits="userSpaceOnUse" x1="428.1062" y1="228.267" x2="556.194" y2="228.267">
		<stop  offset="0" style="stop-color:#D36127"/>
		<stop  offset="0.0141" style="stop-color:#D56827"/>
		<stop  offset="0.0737" style="stop-color:#DD7E25"/>
		<stop  offset="0.1412" style="stop-color:#E59223"/>
		<stop  offset="0.2174" style="stop-color:#EBA220"/>
		<stop  offset="0.3065" style="stop-color:#F1B01C"/>
		<stop  offset="0.4166" style="stop-color:#F6B918"/>
		<stop  offset="0.5711" style="stop-color:#F8BF14"/>
		<stop  offset="1" style="stop-color:#F9C113"/>
	</linearGradient>
	<path class="st4" d="M556.19,230.53l-122.21,24.13c-1.66,0.37-3.74,0.54-5.87,0.51v-29.16c2.15,0.02,4.24-0.15,5.9-0.52
		l122.18-24.14V230.53z"/>
	<linearGradient id="SVGID_6_" gradientUnits="userSpaceOnUse" x1="428.1062" y1="183.8005" x2="556.194" y2="183.8005">
		<stop  offset="0" style="stop-color:#D36127"/>
		<stop  offset="0.0141" style="stop-color:#D56827"/>
		<stop  offset="0.0737" style="stop-color:#DD7E25"/>
		<stop  offset="0.1412" style="stop-color:#E59223"/>
		<stop  offset="0.2174" style="stop-color:#EBA220"/>
		<stop  offset="0.3065" style="stop-color:#F1B01C"/>
		<stop  offset="0.4166" style="stop-color:#F6B918"/>
		<stop  offset="0.5711" style="stop-color:#F8BF14"/>
		<stop  offset="1" style="stop-color:#F9C113"/>
	</linearGradient>
	<path class="st5" d="M556.19,186.43l-121.55,23.95c-1.83,0.43-4.18,0.59-6.54,0.52v-31.65c6.14-0.25,13.36-1.18,21.67-3.24
		c23.02-5.7,78.73-14.15,106.42-19.34V186.43z"/>
	<path class="st6" d="M559.48,156.05c2.07-0.4,3.57-2.22,3.57-4.33v-8.15c0-2.24-1.68-4.13-3.91-4.38l-73.3-7.96
		c-7.97-1.11-20.81-0.8-28.73,0.75l-96.8,15.23c-12.59-0.64-24.55,7.08-28.56,19.65c-2.32,7.22-1.69,14.94,1.8,21.66
		c1.8,3.46,4.21,6.43,7.11,8.86c-4.37,3.41-7.78,8.08-9.61,13.73c-2.3,7.22-1.66,14.94,1.83,21.69c1.88,3.66,4.51,6.73,7.64,9.19
		c-4.29,3.38-7.67,8.05-9.46,13.62c-2.3,7.25-1.66,14.94,1.83,21.7c3.49,6.75,9.38,11.73,16.61,14.06l69.79,22.3
		c3.82,1.22,10.09,1.49,14.03,0.58l126.2-24.95c2.06-0.42,3.53-2.23,3.53-4.32v-5.93c0-2.55-2.14-4.51-4.6-4.4V245l1.06-0.21
		c2.06-0.42,3.53-2.23,3.53-4.32v-5.93c0-2.55-2.14-4.51-4.6-4.4v-29.23l1.06-0.21c2.06-0.42,3.53-2.23,3.53-4.32v-5.93
		c0-2.55-2.14-4.51-4.6-4.4v-29.79C558.8,156.18,559.14,156.12,559.48,156.05z M345.61,171.29c2.32-7.28,10.13-11.35,17.32-9.03
		l40.08,13.48c2.18,0.95,9.8,3.79,22.77,3.59v31.45c-1.91-0.18-3.73-0.5-5.21-0.97l-65.97-21.08c-3.54-1.13-6.43-3.57-8.11-6.86
		C344.79,178.56,344.48,174.8,345.61,171.29z M344.92,215.54c2.35-7.3,10.16-11.29,17.46-9c0-0.03,40.9,13.03,57.56,18.35
		c1.63,0.53,3.7,0.88,5.84,1.04v29.16c-2.16-0.16-4.24-0.51-5.87-1.03l-66-21.08c-3.51-1.13-6.39-3.57-8.11-6.86
		C344.12,222.81,343.79,219.05,344.92,215.54z M353.92,277.5c-3.51-1.13-6.39-3.57-8.11-6.86c-1.69-3.29-2.02-7.06-0.89-10.57
		c2.35-7.3,10.16-11.29,17.46-9c0.03-0.08,40.37,12.82,56.9,18.07c1.79,0.57,4.12,0.93,6.5,1.07v29.4c-2.16-0.16-4.24-0.5-5.87-1.03
		L353.92,277.5z M556.16,275.03l-122.21,24.14c-1.66,0.38-3.74,0.55-5.87,0.53v-29.44c1.91-0.01,3.74-0.18,5.24-0.52l122.85-24.29
		V275.03z M556.16,230.53l-122.21,24.13c-1.66,0.37-3.74,0.54-5.87,0.51v-29.16c2.15,0.02,4.24-0.15,5.9-0.52l122.18-24.14V230.53z
		 M556.16,186.43l-121.55,23.95c-1.83,0.43-4.18,0.59-6.54,0.52v-31.65c6.14-0.25,13.36-1.18,21.67-3.24
		c23.02-5.7,78.73-14.15,106.42-19.34V186.43z"/>
	<linearGradient id="SVGID_7_" gradientUnits="userSpaceOnUse" x1="466.9428" y1="153.6008" x2="563.0776" y2="153.6008">
		<stop  offset="0" style="stop-color:#1D4483"/>
		<stop  offset="1" style="stop-color:#0F1A2B"/>
	</linearGradient>
	<path class="st7" d="M559.17,139.19l-73.3-7.96c-4.69-0.65-11.07-0.81-17.13-0.52c-1.14,1.95-2.23,3.95-1.6,6.86
		c1.38,6.37,9.43,9.85,17.26,13.12c10.23,4.27,18.68,5.43,19.33,5.52c8.56,1.19,15.28,3.4,21.05,5.95
		c11.93-2.02,22.99-3.9,31.43-5.49v19.62c0.74,0.13,1.51,0.24,2.29,0.33v-20.39c0.35-0.07,0.69-0.13,1.03-0.2
		c2.07-0.4,3.57-2.22,3.57-4.33v-8.15C563.08,141.33,561.39,139.44,559.17,139.19z"/>
</g>
</svg>
