<?xml version="1.0" encoding="utf-8"?>
<!-- Generator: Adobe Illustrator 23.0.5, SVG Export Plug-In . SVG Version: 6.00 Build 0)  -->
<svg version="1.1" id="Layer_1" xmlns="http://www.w3.org/2000/svg" xmlns:xlink="http://www.w3.org/1999/xlink" x="0px" y="0px"
	 viewBox="0 0 883 355" style="enable-background:new 0 0 883 355;" xml:space="preserve">
<style type="text/css">
	.st0{fill:#FEBE10;}
	.st1{fill:url(#SVGID_1_);}
	.st2{fill:url(#SVGID_2_);}
</style>
<g>
	<polygon class="st0" points="533.32,223.74 520.62,145.85 280.31,185.07 279.97,223.66 281.57,226.13 283.27,223.65 284.91,226.16 
		286.61,223.68 288.25,226.19 289.95,223.71 291.6,226.23 293.28,223.74 294.93,226.26 296.62,223.79 298.26,226.29 299.95,223.82 
		301.59,226.33 303.28,223.86 304.92,226.36 306.61,223.88 308.25,226.4 309.94,223.92 311.58,226.44 313.28,223.96 314.93,226.47 
		316.62,223.99 318.26,226.5 319.95,224.02 321.59,226.54 323.28,224.06 324.93,226.57 326.62,224.1 328.26,226.62 329.96,224.13 
		331.6,226.65 333.3,224.16 334.94,226.68 336.63,224.19 338.27,226.71 339.97,224.23 341.6,226.75 343.31,224.27 344.95,226.78 
		346.65,224.3 348.29,226.81 349.99,224.33 351.62,226.85 353.32,224.37 354.96,226.88 356.66,224.41 358.3,226.91 360,224.44 
		361.64,226.95 363.34,224.47 364.98,226.99 366.68,224.51 368.32,227.03 370.02,224.55 371.67,227.06 373.36,224.57 375.01,227.08 
		376.7,224.61 378.34,227.11 380.04,224.64 381.69,227.16 383.37,224.68 385.03,227.19 386.72,224.72 388.36,227.23 390.06,224.75 
		391.71,227.26 393.4,224.79 395.04,227.3 396.75,224.82 398.39,227.33 400.08,224.86 401.73,227.36 403.43,224.89 405.08,227.4 
		406.71,225.02 408.3,227.44 409.99,224.96 411.64,227.46 413.33,224.99 414.98,227.5 416.66,225.02 418.31,227.54 420.01,225.06 
		421.64,227.58 423.34,225.09 424.97,227.61 426.67,225.13 428.3,227.64 429.99,225.16 431.64,227.68 433.33,225.2 434.97,227.71 
		436.66,225.23 438.3,227.74 440,225.27 441.65,227.78 443.34,225.31 444.98,227.81 446.67,225.33 448.31,227.85 450.01,225.37 
		451.65,227.88 453.34,225.41 454.99,227.92 456.68,225.43 458.31,227.95 460.02,225.47 461.66,227.99 463.35,225.51 464.99,228.02 
		466.68,225.55 468.33,228.05 470.02,225.58 471.67,228.09 473.37,225.61 475,228.13 476.71,225.64 478.34,228.16 480.03,225.68 
		481.69,228.2 483.38,225.71 485.02,228.23 486.72,225.74 488.37,228.26 490.06,225.78 491.7,228.3 493.4,225.82 495.05,228.33 
		496.74,225.86 498.39,228.36 500.09,225.89 501.72,228.4 503.42,225.92 505.07,228.43 506.75,225.96 508.4,228.46 510.1,225.99 
		511.74,228.5 513.44,226.02 515.08,228.54 516.77,226.06 518.43,228.57 520.12,226.1 521.77,228.61 523.47,226.13 525.1,228.64 
		526.8,226.16 528.46,228.68 530.16,226.19 531.8,228.71 533.46,226.29 533.48,223.74 	"/>
	<linearGradient id="SVGID_1_" gradientUnits="userSpaceOnUse" x1="280.1796" y1="180.3052" x2="529.8132" y2="180.3052">
		<stop  offset="0" style="stop-color:#FFF33B"/>
		<stop  offset="0.037" style="stop-color:#FFE029"/>
		<stop  offset="0.081" style="stop-color:#FFD218"/>
		<stop  offset="0.1264" style="stop-color:#FEC90F"/>
		<stop  offset="0.1748" style="stop-color:#FDC70C"/>
		<stop  offset="0.7423" style="stop-color:#F3903F"/>
		<stop  offset="0.9882" style="stop-color:#ED683C"/>
		<stop  offset="1" style="stop-color:#E93E3A"/>
	</linearGradient>
	<path class="st1" d="M330.73,196.93c4.4,3.14,3.38,5.27,7.41,7.41c17.24,9.17,40.64-27.27,62.54-20.57
		c13.72,4.19,10.61,20.35,28.8,27.98c17.49,7.34,36.28-0.93,37.85-1.65c16.59-7.58,16.81-19.34,28.8-22.22
		c12.19-2.92,24.73,6.16,33.67,14.24l-9.17-56.26l-240.31,39.21l-0.14,16.46C297.52,191.92,319.46,188.87,330.73,196.93z"/>
	<linearGradient id="SVGID_2_" gradientUnits="userSpaceOnUse" x1="481.6922" y1="180.3691" x2="612.2857" y2="180.3691">
		<stop  offset="0" style="stop-color:#0F1A2B"/>
		<stop  offset="1" style="stop-color:#1D4483"/>
	</linearGradient>
	<path class="st2" d="M612.28,217.89c0.24-27.6-26.9-59.36-31.31-65.15c-4.41-5.79,3.53-10.24,3.48-15.21
		c-0.04-5.18-12.23-4.13-12.23-4.13l-84.14,13.87c-6.67,1.53-7.33,3.89-5.55,8.41c2.8,7.09,4.83,10.97,10,20.56
		c3.61,6.69,13.18-11.67,27.83,28.77c9.55,26.36,59.33,22.09,75.72,22.24C612.49,227.39,612.28,217.89,612.28,217.89z
		 M579.14,215.85l-4.42,1.92c-4.62,2.01-10-0.11-12.01-4.73l-22.26-51.19c-2-4.62,0.11-10,4.74-12.01l4.42-1.92
		c4.63-2.01,10,0.11,12.01,4.73l22.25,51.19C585.88,208.46,583.77,213.84,579.14,215.85z"/>
</g>
</svg>
