<?xml version="1.0" encoding="utf-8"?>
<!-- Generator: Adobe Illustrator 23.0.5, SVG Export Plug-In . SVG Version: 6.00 Build 0)  -->
<svg version="1.1" id="Layer_1" xmlns="http://www.w3.org/2000/svg" xmlns:xlink="http://www.w3.org/1999/xlink" x="0px" y="0px"
	 viewBox="0 0 883 355" style="enable-background:new 0 0 883 355;" xml:space="preserve">
<style type="text/css">
	.st0{fill:#F9C113;}
	.st1{fill:#1D4483;}
	.st2{fill:url(#SVGID_1_);}
</style>
<g>
	<path class="st0" d="M289.09,148.38c-21.5,0-38.93,9.07-38.93,20.25v1.39h233.18v-1.39c0-11.18-17.43-20.25-38.93-20.25h-67.69
		v-9.87c4.78-1.91,7.94-5.2,7.95-8.93v-0.62c0-5.9-7.88-10.69-17.6-10.69h-0.36c-9.72,0-17.6,4.79-17.6,10.69l0,0.62
		c0,3.74,3.16,7.03,7.95,8.94v9.87H289.09z"/>
	<path class="st1" d="M628.6,178.02h-4.64h-53.81h-86.8H250.16v27.85c0,21.5,17.43,38.93,38.93,38.93h155.33
		c21.5,0,38.93-17.43,38.93-38.93v-11.29h74.46c1.52,5.4,6.46,9.36,12.34,9.36h58.45c7.09,0,12.83-5.75,12.83-12.83v-0.26
		C641.43,183.77,635.68,178.02,628.6,178.02z"/>
	<linearGradient id="SVGID_1_" gradientUnits="userSpaceOnUse" x1="271.6296" y1="217.739" x2="483.1259" y2="217.739">
		<stop  offset="0" style="stop-color:#0F1A2B"/>
		<stop  offset="1" style="stop-color:#1D4483"/>
	</linearGradient>
	<path class="st2" d="M473.13,206.44c-15.47-3.56-25.1,22.47-48.74,20.89c-19.95-1.33-21.88-20.44-43.52-22.63
		c-22.42-2.27-33.11,16.94-48.74,10.44c-13.64-5.67-11.81-22.91-20.89-24.37c-12.54-2.01-26.34,29.18-39.61,49.46
		c5.39,2.82,11.43,4.56,17.93,4.56h155.33c19.17,0,35.02-13.89,38.24-32.14C479.99,209.44,476.59,207.24,473.13,206.44z"/>
</g>
</svg>
