<?xml version="1.0" encoding="utf-8"?>
<!-- Generator: Adobe Illustrator 23.0.5, SVG Export Plug-In . SVG Version: 6.00 Build 0)  -->
<svg version="1.1" id="Layer_1" xmlns="http://www.w3.org/2000/svg" xmlns:xlink="http://www.w3.org/1999/xlink" x="0px" y="0px"
	 viewBox="0 0 883 355" style="enable-background:new 0 0 883 355;" xml:space="preserve">
<style type="text/css">
	.st0{fill:#1D4483;}
	.st1{fill:#F9C113;}
	.st2{opacity:0.6;fill:url(#SVGID_1_);}
	.st3{font-family:'Montserrat-Bold';}
	.st4{font-size:72.8479px;}
</style>
<g>
	<path class="st0" d="M506.19,116.92l-162.83-0.54c-7.82-0.03-14.18,6.29-14.21,14.11l-0.32,99.12c-0.03,7.82,6.29,14.18,14.11,14.2
		l162.83,0.54c7.82,0.03,14.18-6.29,14.2-14.11l0.33-99.11C520.33,123.31,514.01,116.95,506.19,116.92z M354.8,194.15l53.05-0.06
		l0,4l-53.05,0.06L354.8,194.15z M354.82,213.08l-0.01-3.99l106.11-0.12l0,3.99L354.82,213.08z M460.16,185.15l-0.05-49.59
		l39.59-0.04l0.06,49.59L460.16,185.15z"/>
	<g>
		<path class="st0" d="M510.23,244.12c0.18,1.03,0.62,2.05,1.36,2.92c1.28,1.5,3.51,2.59,7.03,2.67h0c1.42,0.03,2.6-0.1,3.61-0.34
			c2.9-0.7,4.31-2.37,5.26-4.18c0.09-0.17,0.18-0.35,0.26-0.53c0.08-0.18,0.17-0.36,0.25-0.54h6.97c-0.74,0.94-2.32,1.27-3.29,1.39
			c-0.15,0.02-0.28,0.03-0.4,0.04c-0.24,0.02-0.4,0.02-0.4,0.02l0.83,4.07l0.15,0.71c0.91-0.06,1.72-0.17,2.47-0.33
			c1.62-0.35,2.87-0.92,3.8-1.64c0.52-0.4,0.94-0.84,1.28-1.31c0.35-0.48,0.61-0.99,0.8-1.53c0.16-0.46,0.27-0.93,0.33-1.41h2.33
			v-2.28h-2.4c-0.12-0.66-0.31-1.28-0.55-1.84c-0.36-0.85-0.84-1.57-1.36-2.04c-2.7-2.48-9.15-3.47-12.92-1.12
			c-0.55,0.35-1.03,0.72-1.45,1.12c-0.61,0.58-1.09,1.19-1.49,1.81c-0.46,0.71-0.81,1.42-1.12,2.08l-5.63,0
			c0.84-0.98,2.59-1.18,2.59-1.18l-0.35-1.17l-0.3-1.02l-0.74-2.45c-2.97,0.4-5.17,1.83-6.26,3.83c-0.04,0.07-0.07,0.15-0.1,0.22
			c-0.27,0.55-0.48,1.14-0.58,1.76h-2.19v2.29h1.75H510.23z M529.79,241c0.52-0.52,1.1-0.76,1.92-0.89c1.4-0.22,2.96,0.33,3.49,1.72
			h-2.61h-3.45C529.36,241.49,529.57,241.22,529.79,241z M520.41,244.12c-0.07,0.1-0.15,0.19-0.23,0.27
			c-1.16,1.24-3.5,1.07-4.35-0.27H520.41z"/>
		<path class="st0" d="M456.01,207.41c0.18,1.04,0.61,2.05,1.36,2.92c1.28,1.5,3.51,2.59,7.03,2.67h0c1.42,0.03,2.6-0.1,3.61-0.34
			c2.9-0.7,4.31-2.37,5.26-4.18c0.09-0.17,0.18-0.35,0.26-0.53c0.08-0.18,0.17-0.36,0.25-0.54h6.97c-0.75,0.94-2.32,1.27-3.29,1.39
			c-0.15,0.02-0.29,0.03-0.4,0.04c-0.24,0.02-0.4,0.02-0.4,0.02l0.84,4.07l0.15,0.71c0.91-0.05,1.72-0.17,2.47-0.33
			c1.62-0.35,2.87-0.92,3.81-1.64c0.52-0.4,0.94-0.84,1.28-1.31c0.35-0.48,0.61-1,0.8-1.53c0.16-0.46,0.28-0.94,0.33-1.41h2.32
			v-2.29h-2.4c-0.12-0.65-0.31-1.27-0.55-1.84c-0.37-0.85-0.84-1.57-1.36-2.04c-2.7-2.48-9.16-3.47-12.92-1.12
			c-0.55,0.34-1.03,0.72-1.45,1.11c-0.61,0.58-1.09,1.19-1.49,1.81c-0.46,0.71-0.81,1.42-1.12,2.08l-5.63,0
			c0.84-0.98,2.58-1.18,2.58-1.18l-0.35-1.17l-0.31-1.02l-0.73-2.45c-2.97,0.4-5.17,1.83-6.26,3.83c-0.04,0.07-0.07,0.15-0.1,0.22
			c-0.27,0.55-0.48,1.14-0.58,1.76h-2.19v2.29h1.75H456.01z M475.56,204.3c0.52-0.52,1.1-0.76,1.92-0.89
			c1.4-0.22,2.96,0.33,3.49,1.72h-2.6h-3.45C475.13,204.79,475.34,204.52,475.56,204.3z M466.18,207.41
			c-0.07,0.1-0.15,0.19-0.23,0.28c-1.16,1.24-3.5,1.06-4.35-0.28H466.18z"/>
		<g>
			<path class="st1" d="M552.22,259.19c-1.88,2.64-5.03,4.94-9.04,6.68c-4.65,5.39-14.76,9.13-26.49,9.13
				c-1.83,0-3.61-0.1-5.34-0.27c4.06,1.16,8.68,1.82,13.59,1.82c14.85,0,27.1-5.99,28.97-13.75c0.16-0.67,0.26-1.36,0.26-2.06
				c0-1.24-0.27-2.45-0.77-3.61C553.09,257.84,552.69,258.53,552.22,259.19z"/>
			<path class="st1" d="M496.2,246.56c0.13,0.38,0.27,0.76,0.45,1.13c0.15,0.32,0.32,0.63,0.51,0.93c0.77,1.28,1.84,2.49,3.16,3.61
				c0.86,0.73,1.83,1.42,2.9,2.06c5.35,3.22,13.1,5.24,21.73,5.24c7.76,0,14.81-1.64,20.04-4.31c0.31-0.16,0.62-0.32,0.91-0.49
				c0.26-0.15,0.52-0.29,0.77-0.45c1.06-0.64,2.03-1.33,2.9-2.06c1.32-1.11,2.39-2.33,3.16-3.61c0.4-0.67,0.73-1.36,0.96-2.06
				c0.09-0.26,0.16-0.51,0.22-0.77c0.16-0.68,0.26-1.36,0.26-2.06c0-8.73-13.08-15.81-29.22-15.81c-16.14,0-29.22,7.08-29.22,15.81
				c0,0.11,0.01,0.22,0.02,0.33c-5.12,2.85-8.27,6.73-8.27,11.02c0,0.7,0.09,1.39,0.26,2.06c0.84,3.48,3.77,6.61,8.1,9
				c0.83,0.46,1.71,0.89,2.63,1.29c5,2.16,11.34,3.46,18.24,3.46c4.91,0,9.53-0.66,13.59-1.82c-1.73,0.18-3.51,0.27-5.34,0.27
				c-12.44,0-23.06-4.21-27.28-10.14c-0.47-0.67-0.86-1.36-1.17-2.06c-0.5-1.16-0.77-2.37-0.77-3.61c0-0.7,0.09-1.39,0.26-2.06
				c0.3,1.25,0.88,2.46,1.69,3.61c0.51,0.71,1.11,1.4,1.79,2.06c5.01,4.82,14.54,8.08,25.49,8.08c6.9,0,13.24-1.3,18.24-3.46
				c0.92-0.4,1.8-0.83,2.63-1.29c1.79-0.99,3.35-2.11,4.61-3.33c0.69-0.66,1.28-1.35,1.79-2.06c0.81-1.14,1.39-2.35,1.69-3.61
				c0.16-0.68,0.26-1.36,0.26-2.06c0-0.26-0.01-0.52-0.04-0.77c-0.06,0.7-0.22,1.39-0.44,2.06c-0.42,1.26-1.12,2.47-2.06,3.61
				c-0.59,0.72-1.28,1.41-2.06,2.06c-1.07,0.9-2.3,1.74-3.67,2.51c-0.37,0.21-0.75,0.41-1.14,0.6c-5.21,2.6-12.17,4.19-19.82,4.19
				c-10.35,0-19.44-2.91-24.63-7.31c-0.78-0.66-1.46-1.35-2.06-2.06c-0.94-1.14-1.64-2.35-2.06-3.61c-0.22-0.67-0.38-1.36-0.44-2.06
				c0.01-0.17,0.04-0.33,0.07-0.49c-0.03,0.02-0.06,0.04-0.08,0.05c0-0.11-0.02-0.22-0.02-0.33c0-0.7,0.09-1.39,0.26-2.06
				C496.04,246.04,496.11,246.3,496.2,246.56z M507.47,241.62h2.19c0.1-0.63,0.31-1.21,0.58-1.76c0.03-0.07,0.06-0.15,0.1-0.22
				c1.09-2.01,3.29-3.43,6.26-3.83l0.74,2.45l0.3,1.02l0.35,1.17c0,0-1.74,0.2-2.59,1.18l5.63,0c0.31-0.66,0.66-1.37,1.12-2.08
				c0.4-0.62,0.88-1.24,1.49-1.81c0.42-0.39,0.9-0.77,1.45-1.12c3.76-2.34,10.22-1.35,12.92,1.12c0.51,0.47,0.99,1.19,1.36,2.04
				c0.24,0.56,0.44,1.18,0.55,1.84h2.4v2.28h-2.33c-0.06,0.48-0.17,0.95-0.33,1.41c-0.19,0.53-0.45,1.04-0.8,1.53
				c-0.34,0.47-0.76,0.92-1.28,1.31c-0.94,0.72-2.18,1.29-3.8,1.64c-0.75,0.16-1.56,0.28-2.47,0.33l-0.15-0.71l-0.83-4.07
				c0,0,0.15,0,0.4-0.02c0.12-0.01,0.25-0.02,0.4-0.04c0.96-0.11,2.54-0.44,3.29-1.39h-6.97c-0.08,0.18-0.16,0.36-0.25,0.54
				c-0.08,0.18-0.17,0.35-0.26,0.53c-0.95,1.82-2.35,3.49-5.26,4.18c-1.01,0.24-2.19,0.37-3.61,0.34h0
				c-3.53-0.08-5.75-1.16-7.03-2.67c-0.75-0.88-1.18-1.89-1.36-2.92h-0.46h-1.75V241.62z"/>
			<path class="st1" d="M531.16,239.9c-0.82,0.13-1.4,0.37-1.92,0.89c-0.22,0.22-0.43,0.49-0.65,0.83h3.45h2.61
				C534.12,240.23,532.56,239.68,531.16,239.9z"/>
			<path class="st1" d="M519.64,244.18c0.08-0.08,0.15-0.18,0.23-0.27h-4.58C516.13,245.24,518.48,245.42,519.64,244.18z"/>
			<path class="st1" d="M497.99,222.49c-1.88,2.64-5.02,4.94-9.04,6.68c-4.65,5.39-14.76,9.13-26.49,9.13
				c-1.82,0-3.61-0.09-5.34-0.27c4.06,1.16,8.68,1.82,13.59,1.82c14.85,0,27.1-5.99,28.97-13.75c0.16-0.68,0.26-1.36,0.26-2.06
				c0-1.24-0.27-2.45-0.78-3.61C498.86,221.13,498.47,221.82,497.99,222.49z"/>
			<path class="st1" d="M441.97,209.85c0.13,0.38,0.27,0.76,0.45,1.13c0.15,0.32,0.32,0.62,0.51,0.93c0.77,1.28,1.84,2.49,3.16,3.61
				c0.86,0.73,1.83,1.42,2.9,2.06c5.35,3.22,13.1,5.24,21.73,5.24c7.76,0,14.81-1.64,20.04-4.31c0.31-0.16,0.61-0.32,0.91-0.49
				c0.26-0.15,0.52-0.29,0.78-0.44c1.06-0.64,2.03-1.33,2.9-2.06c1.32-1.12,2.39-2.33,3.16-3.61c0.4-0.67,0.72-1.36,0.96-2.06
				c0.09-0.26,0.16-0.51,0.22-0.77c0.16-0.68,0.26-1.36,0.26-2.06c0-8.74-13.08-15.81-29.22-15.81c-16.14,0-29.22,7.08-29.22,15.81
				c0,0.11,0.01,0.22,0.01,0.33c-5.11,2.85-8.27,6.73-8.27,11.02c0,0.7,0.09,1.39,0.26,2.06c0.84,3.48,3.77,6.61,8.1,9
				c0.83,0.46,1.71,0.89,2.63,1.29c5,2.16,11.34,3.46,18.24,3.46c4.91,0,9.53-0.66,13.59-1.82c-1.73,0.18-3.51,0.27-5.34,0.27
				c-12.44,0-23.06-4.21-27.28-10.14c-0.47-0.67-0.86-1.36-1.17-2.06c-0.5-1.16-0.77-2.37-0.77-3.61c0-0.7,0.09-1.39,0.26-2.06
				c0.3,1.26,0.88,2.47,1.69,3.61c0.51,0.71,1.11,1.4,1.79,2.06c5.01,4.82,14.54,8.08,25.49,8.08c6.9,0,13.24-1.3,18.24-3.46
				c0.92-0.4,1.8-0.83,2.63-1.29c1.79-0.99,3.35-2.11,4.61-3.33c0.69-0.66,1.29-1.35,1.79-2.06c0.81-1.14,1.39-2.36,1.69-3.61
				c0.16-0.67,0.26-1.36,0.26-2.06c0-0.26-0.01-0.52-0.04-0.77c-0.06,0.7-0.22,1.39-0.44,2.06c-0.42,1.26-1.12,2.47-2.06,3.61
				c-0.59,0.72-1.28,1.41-2.06,2.06c-1.07,0.9-2.3,1.74-3.67,2.51c-0.37,0.21-0.75,0.41-1.14,0.6c-5.21,2.6-12.17,4.2-19.82,4.2
				c-10.35,0-19.44-2.91-24.63-7.31c-0.78-0.66-1.46-1.34-2.06-2.06c-0.94-1.14-1.64-2.35-2.06-3.61c-0.22-0.68-0.38-1.36-0.44-2.06
				c0.01-0.17,0.04-0.33,0.07-0.49c-0.03,0.02-0.06,0.03-0.09,0.05c0-0.11-0.01-0.22-0.01-0.33c0-0.7,0.09-1.39,0.26-2.06
				C441.81,209.34,441.89,209.6,441.97,209.85z M453.25,204.91h2.19c0.1-0.62,0.31-1.21,0.58-1.76c0.04-0.08,0.06-0.15,0.1-0.22
				c1.09-2.01,3.29-3.43,6.26-3.83l0.73,2.45l0.31,1.02l0.35,1.17c0,0-1.74,0.2-2.58,1.18l5.63,0c0.31-0.66,0.66-1.37,1.12-2.08
				c0.4-0.62,0.88-1.23,1.49-1.81c0.42-0.39,0.9-0.77,1.45-1.11c3.76-2.35,10.22-1.35,12.92,1.12c0.51,0.47,0.99,1.19,1.36,2.04
				c0.24,0.56,0.43,1.18,0.55,1.84h2.4v2.29h-2.32c-0.06,0.48-0.17,0.95-0.33,1.41c-0.18,0.53-0.45,1.04-0.8,1.53
				c-0.34,0.47-0.77,0.91-1.28,1.31c-0.94,0.72-2.18,1.29-3.81,1.64c-0.74,0.16-1.56,0.28-2.47,0.33l-0.15-0.71l-0.84-4.07
				c0,0,0.15,0,0.4-0.02c0.11-0.01,0.25-0.02,0.4-0.04c0.96-0.12,2.54-0.44,3.29-1.39h-6.97c-0.08,0.18-0.16,0.36-0.25,0.54
				c-0.08,0.18-0.17,0.36-0.26,0.53c-0.95,1.82-2.36,3.49-5.26,4.18c-1.01,0.24-2.19,0.37-3.61,0.34h0
				c-3.53-0.07-5.75-1.17-7.03-2.67c-0.75-0.87-1.18-1.89-1.36-2.92h-0.47h-1.75V204.91z"/>
			<path class="st1" d="M476.93,203.19c-0.82,0.13-1.4,0.37-1.92,0.89c-0.22,0.22-0.44,0.49-0.65,0.83h3.45h2.6
				C479.89,203.53,478.33,202.97,476.93,203.19z"/>
			<path class="st1" d="M465.41,207.47c0.08-0.09,0.15-0.18,0.23-0.28h-4.58C461.91,208.54,464.25,208.71,465.41,207.47z"/>
		</g>
	</g>
	<linearGradient id="SVGID_1_" gradientUnits="userSpaceOnUse" x1="329.6143" y1="180.5046" x2="436.8715" y2="180.5046">
		<stop  offset="0" style="stop-color:#0F1A2B"/>
		<stop  offset="1" style="stop-color:#1D4483"/>
	</linearGradient>
	<path class="st2" d="M436.87,243.63c-4.82-8.57-16.2-15.6-27.47-22.54c-5.93-3.65-11.32-6.38-16.25-8.54l-37.56,0.04l-0.01-3.99
		l27.38-0.03c-11.85-4.12-19.95-5.47-24.77-10.91l-2.62,0l0-4c-6.83-14.63,10.11-25.47,4.25-48.07
		c-2.85-10.98-11.14-24.98-21.92-28.21c-4.69,2.3-7.95,7.05-7.97,12.62l-0.32,99.12c-0.03,7.82,6.29,14.18,14.11,14.2L436.87,243.63
		z"/>
	<text transform="matrix(1 0 0 1 354.7954 180.3398)" class="st1 st3 st4">e</text>
	<g>
		<g>
			<g>
				<path class="st1" d="M365.29,140.47c-2.63-1.02-5.56-0.47-7.65,1.43c-1.99,1.81-2.83,4.57-2.2,7.19l-3.68,0.88
					c-0.95-3.96,0.33-8.12,3.33-10.86c3.15-2.87,7.58-3.7,11.56-2.17L365.29,140.47z"/>
			</g>
			<g>
				<path class="st1" d="M348.82,150.04l-3.71,0.72c-1.19-6.16,0.86-12.36,5.49-16.58c4.38-4,10.45-5.55,16.22-4.16l-0.89,3.68
					c-4.55-1.1-9.33,0.12-12.78,3.28C349.5,140.3,347.88,145.19,348.82,150.04z"/>
			</g>
			<g>
				<path class="st1" d="M342.66,150.31l-3.74,0.55c-1.16-7.9,1.66-15.83,7.56-21.21c5.64-5.14,13.17-7.27,20.67-5.83l-0.71,3.72
					c-6.32-1.21-12.67,0.58-17.41,4.91C344.06,136.98,341.68,143.66,342.66,150.31z"/>
			</g>
		</g>
	</g>
</g>
</svg>
