<?xml version="1.0" encoding="utf-8"?>
<!-- Generator: Adobe Illustrator 23.0.5, SVG Export Plug-In . SVG Version: 6.00 Build 0)  -->
<svg version="1.1" id="Layer_1" xmlns="http://www.w3.org/2000/svg" xmlns:xlink="http://www.w3.org/1999/xlink" x="0px" y="0px"
	 viewBox="0 0 883 355" style="enable-background:new 0 0 883 355;" xml:space="preserve">
<style type="text/css">
	.st0{fill:#1D4483;}
	.st1{fill:#F9C113;}
	.st2{opacity:0.6;fill:url(#SVGID_1_);}
</style>
<g>
	<path class="st0" d="M358.18,50.77c-6.65,0-12.04,5.39-12.04,12.05v235.72c0,6.65,5.39,12.04,12.04,12.04h175.01
		c6.65,0,12.04-5.39,12.04-12.04V62.81c0-6.65-5.39-12.05-12.04-12.05H358.18z M447.02,56.5c1.53,0,2.77,1.25,2.77,2.78
		c0,1.53-1.24,2.77-2.77,2.77c-1.53,0-2.78-1.24-2.78-2.77C444.24,57.75,445.48,56.5,447.02,56.5z M437.45,67.02h19.13
		c1.33,0,2.41,1.12,2.41,2.5c0,1.38-1.08,2.49-2.41,2.49h-19.13c-1.33,0-2.41-1.12-2.41-2.49
		C435.04,68.14,436.12,67.02,437.45,67.02z M428.93,67.35c1.2,0,2.17,0.97,2.17,2.17c0,1.2-0.97,2.17-2.17,2.17
		c-1.2,0-2.17-0.97-2.17-2.17C426.76,68.32,427.73,67.35,428.93,67.35z M445.68,301.33c-6.83,0-12.36-5.53-12.36-12.35
		c0-6.83,5.53-12.36,12.36-12.36c6.83,0,12.36,5.53,12.36,12.36C458.04,295.8,452.51,301.33,445.68,301.33z M525.34,270.37H366.03
		V80.16h159.31V270.37z"/>
	<rect x="364.58" y="76.62" class="st1" width="168.94" height="195.64"/>
	<g>
		<path class="st0" d="M478.73,135.11l-61.55,61.55c-1.01,1.01-1.01,2.66,0,3.67c1.02,1.02,2.66,1.02,3.68,0l61.54-61.54
			c1.02-1.02,1.02-2.66,0-3.68C481.38,134.1,479.74,134.1,478.73,135.11z"/>
		<path class="st0" d="M470.91,175.09l-31.29,31.29c-0.52,0.51-0.4,1.47,0.26,2.13c0.66,0.66,1.61,0.77,2.13,0.25l31.29-31.29
			c0.52-0.51,0.4-1.47-0.26-2.13C472.38,174.7,471.43,174.58,470.91,175.09z"/>
	</g>
	<linearGradient id="SVGID_1_" gradientUnits="userSpaceOnUse" x1="364.5843" y1="174.4354" x2="533.5281" y2="174.4354">
		<stop  offset="0" style="stop-color:#D36127"/>
		<stop  offset="1" style="stop-color:#F9C113"/>
	</linearGradient>
	<path class="st2" d="M364.9,95.85c0-6.12,0.42-13.27,1.13-19.23h-1.45v195.64h168.94c-65.19-21.61-138.85-50.94-135.23-75.06
		c0.19-1.26,0.39-1.17,1.05-3.36C409.99,158.55,364.9,112.18,364.9,95.85z"/>
</g>
</svg>
