<?xml version="1.0" encoding="utf-8"?>
<!-- Generator: Adobe Illustrator 23.0.5, SVG Export Plug-In . SVG Version: 6.00 Build 0)  -->
<svg version="1.1" id="Layer_1" xmlns="http://www.w3.org/2000/svg" xmlns:xlink="http://www.w3.org/1999/xlink" x="0px" y="0px"
	 viewBox="0 0 883 355" style="enable-background:new 0 0 883 355;" xml:space="preserve">
<style type="text/css">
	.st0{fill:#1D4483;}
	.st1{fill:#F9C113;}
	.st2{fill:url(#SVGID_1_);}
	.st3{fill:url(#SVGID_2_);}
	.st4{fill:url(#SVGID_3_);}
	.st5{fill:url(#SVGID_4_);}
</style>
<g>
	<path class="st0" d="M435.11,175.26c0,0-2.9-22.62-5.64-27.61l3.81-1.37c0,0,4.45,6.34,13.05,6.21v22.77H435.11z"/>
	<path class="st0" d="M435.11,175.26c0,0-10.06,0-8.99,37.64c0,0,5.94,3.62,12.95,0c0,0,4.91,2.05,7.25,1.61v-39.25H435.11z"/>
	<path class="st1" d="M429.47,147.65c0,0-7.47-0.85-6.55,5.88l1.22,2.85c0,0,4.94-2.2,7.88,0
		C432.02,156.38,434.35,150.06,429.47,147.65z"/>
	<path class="st0" d="M457.54,175.26c0,0,2.9-22.62,5.64-27.61l-3.81-1.37c0,0-4.45,6.34-13.04,6.21v22.77H457.54z"/>
	<path class="st0" d="M457.54,175.26c0,0,10.06,0,8.99,37.64c0,0-5.94,3.62-12.95,0c0,0-4.9,2.05-7.25,1.61v-39.25H457.54z"/>
	<polygon class="st1" points="457.54,175.26 435.11,175.26 434.76,172.66 457.9,172.66 	"/>
	<linearGradient id="SVGID_1_" gradientUnits="userSpaceOnUse" x1="436.4745" y1="198.648" x2="439.743" y2="198.648">
		<stop  offset="0" style="stop-color:#0F1A2B"/>
		<stop  offset="1" style="stop-color:#1D4483"/>
	</linearGradient>
	<path class="st2" d="M436.81,213.84c0,0-1.25-23.84,1.1-30.39c0,0,2.46,21.71,1.69,29.65C439.59,213.11,439.16,212.5,436.81,213.84
		z"/>
	<path class="st1" d="M463.22,147.69c0,0,7.47-0.85,6.55,5.88l-1.22,2.85c0,0-4.94-2.2-7.88,0
		C460.67,156.41,458.34,150.09,463.22,147.69z"/>
	<linearGradient id="SVGID_2_" gradientUnits="userSpaceOnUse" x1="422.9376" y1="152.7671" x2="427.0788" y2="152.7671">
		<stop  offset="0" style="stop-color:#FFF33B"/>
		<stop  offset="0.0595" style="stop-color:#FFE029"/>
		<stop  offset="0.1303" style="stop-color:#FFD218"/>
		<stop  offset="0.2032" style="stop-color:#FEC90F"/>
		<stop  offset="0.2809" style="stop-color:#FDC70C"/>
		<stop  offset="0.6685" style="stop-color:#F3903F"/>
		<stop  offset="0.8876" style="stop-color:#ED683C"/>
		<stop  offset="1" style="stop-color:#E93E3A"/>
	</linearGradient>
	<path class="st3" d="M427.01,155.56c-0.1-0.17-0.2-0.35-0.27-0.57c-0.66-1.92,0.93-3.15,0.09-4.49c-0.49-0.79-1.15-0.53-2.67-1.35
		c-0.89,0.88-1.44,2.24-1.15,4.37l1.22,2.85C424.23,156.38,425.44,155.84,427.01,155.56z"/>
	<linearGradient id="SVGID_3_" gradientUnits="userSpaceOnUse" x1="460.0821" y1="151.9984" x2="464.4244" y2="151.9984">
		<stop  offset="0" style="stop-color:#FFF33B"/>
		<stop  offset="0.0595" style="stop-color:#FFE029"/>
		<stop  offset="0.1303" style="stop-color:#FFD218"/>
		<stop  offset="0.2032" style="stop-color:#FEC90F"/>
		<stop  offset="0.2809" style="stop-color:#FDC70C"/>
		<stop  offset="0.6685" style="stop-color:#F3903F"/>
		<stop  offset="0.8876" style="stop-color:#ED683C"/>
		<stop  offset="1" style="stop-color:#E93E3A"/>
	</linearGradient>
	<path class="st4" d="M463.19,147.65c-4.88,2.4-2.55,8.72-2.55,8.72c1.1-0.82,2.49-1.03,3.79-0.97c-0.99-1.11-1.84-2.27-1.52-3.69
		c0.34-1.52,1.84-2.49,1.4-4.02c-0.01-0.03-0.02-0.05-0.03-0.08C463.63,147.61,463.19,147.65,463.19,147.65z"/>
	<linearGradient id="SVGID_4_" gradientUnits="userSpaceOnUse" x1="452.9146" y1="198.648" x2="456.1848" y2="198.648">
		<stop  offset="0" style="stop-color:#0F1A2B"/>
		<stop  offset="1" style="stop-color:#1D4483"/>
	</linearGradient>
	<path class="st5" d="M455.85,213.84c0,0,1.25-23.84-1.09-30.39c0,0-2.47,21.71-1.7,29.65C453.06,213.11,453.5,212.5,455.85,213.84z
		"/>
</g>
</svg>
