<?xml version="1.0" encoding="utf-8"?>
<!-- Generator: Adobe Illustrator 23.0.5, SVG Export Plug-In . SVG Version: 6.00 Build 0)  -->
<svg version="1.1" id="Layer_1" xmlns="http://www.w3.org/2000/svg" xmlns:xlink="http://www.w3.org/1999/xlink" x="0px" y="0px"
	 viewBox="0 0 883 355" style="enable-background:new 0 0 883 355;" xml:space="preserve">
<style type="text/css">
	.st0{fill:#1D4483;}
	.st1{fill:#F9C113;}
</style>
<g>
	<path class="st0" d="M566.88,169.3c0.09,9-7.14,16.37-16.13,16.46l-211.09,2.1c-9,0.09-16.37-7.13-16.46-16.13l-0.67-66.93
		c-0.09-9,7.13-16.36,16.14-16.45l211.09-2.1c9-0.09,16.37,7.13,16.46,16.13L566.88,169.3z"/>
	
		<rect x="320.97" y="184.38" transform="matrix(1 -9.949597e-03 9.949597e-03 1 -2.1715 4.4538)" class="st1" width="251.14" height="72.18"/>
	<path class="st1" d="M340.42,267.8c0.09,8.89-19.83,9.08-19.92,0.2l-1.03-103.84c-0.09-8.88,4.3-16.13,9.8-16.18l0,0
		c5.5-0.05,10.03,7.1,10.12,15.98L340.42,267.8z"/>
	<path class="st1" d="M572.57,265.79c0.09,8.91-19.83,9.11-19.92,0.2l-1.04-104.1c-0.09-8.91,4.3-16.17,9.8-16.23l0,0
		c5.5-0.05,10.03,7.12,10.12,16.03L572.57,265.79z"/>
	<path class="st0" d="M572.13,222.42c0.09,9-7.35,16.37-16.63,16.46l-217.54,2.16c-9.28,0.09-16.87-7.13-16.96-16.13l-0.18-18.57
		c-0.09-9,7.35-16.37,16.63-16.46L555,187.73c9.28-0.09,16.86,7.12,16.95,16.13L572.13,222.42z"/>
	<g>
		<path class="st1" d="M354.27,112.87c0.02,2-1.69,3.63-3.81,3.65c-2.13,0.02-3.86-1.58-3.88-3.58c-0.02-2,1.68-3.64,3.81-3.66
			C352.51,109.26,354.25,110.87,354.27,112.87z"/>
		<path class="st1" d="M400.66,112.41c0.02,2-1.69,3.63-3.81,3.65c-2.12,0.02-3.86-1.58-3.88-3.58c-0.02-2,1.69-3.64,3.81-3.66
			C398.9,108.8,400.64,110.41,400.66,112.41z"/>
		<path class="st1" d="M354.55,141.57c0.02,1.99-1.69,3.64-3.81,3.66c-2.13,0.02-3.86-1.59-3.88-3.58c-0.02-2,1.68-3.64,3.81-3.66
			C352.79,137.96,354.53,139.57,354.55,141.57z"/>
		<path class="st1" d="M400.95,141.11c0.02,1.99-1.69,3.64-3.81,3.66c-2.12,0.02-3.86-1.59-3.88-3.58c-0.02-2,1.69-3.64,3.81-3.66
			C399.19,137.5,400.93,139.11,400.95,141.11z"/>
		<path class="st1" d="M354.86,172.16c0.02,2-1.69,3.64-3.81,3.66c-2.13,0.02-3.86-1.58-3.88-3.58c-0.02-2,1.68-3.63,3.81-3.65
			C353.1,168.56,354.84,170.16,354.86,172.16z"/>
		<path class="st1" d="M401.25,171.7c0.02,2-1.69,3.64-3.81,3.66c-2.12,0.02-3.86-1.58-3.88-3.58c-0.02-2,1.69-3.63,3.81-3.65
			C399.49,168.1,401.23,169.7,401.25,171.7z"/>
		<path class="st1" d="M448.55,111.93c0.02,2-1.68,3.63-3.81,3.65c-2.13,0.02-3.86-1.58-3.88-3.58c-0.02-2,1.69-3.64,3.81-3.66
			C446.8,108.32,448.54,109.93,448.55,111.93z"/>
		<path class="st1" d="M497.98,111.44c0.02,2-1.69,3.63-3.81,3.65c-2.12,0.02-3.86-1.58-3.88-3.58c-0.02-2,1.69-3.64,3.81-3.66
			C496.22,107.83,497.96,109.44,497.98,111.44z"/>
		<path class="st1" d="M541.44,111.01c0.02,2-1.69,3.63-3.81,3.65c-2.12,0.02-3.86-1.58-3.88-3.58c-0.02-2,1.69-3.64,3.81-3.66
			C539.68,107.4,541.42,109.01,541.44,111.01z"/>
		<path class="st1" d="M448.84,140.63c0.02,1.99-1.68,3.64-3.81,3.66c-2.13,0.02-3.86-1.59-3.88-3.58c-0.02-2,1.69-3.64,3.81-3.66
			C447.08,137.02,448.82,138.63,448.84,140.63z"/>
		<path class="st1" d="M498.27,140.14c0.02,1.99-1.69,3.64-3.81,3.66c-2.12,0.02-3.86-1.59-3.88-3.58c-0.02-2,1.69-3.64,3.81-3.66
			C496.51,136.53,498.25,138.14,498.27,140.14z"/>
		<path class="st1" d="M541.72,139.71c0.02,1.99-1.69,3.64-3.81,3.66c-2.12,0.02-3.86-1.59-3.88-3.58c-0.02-2,1.69-3.64,3.81-3.66
			C539.97,136.1,541.71,137.71,541.72,139.71z"/>
		<path class="st1" d="M449.14,171.22c0.02,2-1.68,3.64-3.81,3.66c-2.13,0.02-3.86-1.58-3.88-3.58c-0.02-2,1.69-3.63,3.81-3.65
			C447.39,167.62,449.13,169.22,449.14,171.22z"/>
		<path class="st1" d="M498.57,170.73c0.02,2-1.69,3.64-3.81,3.66c-2.12,0.02-3.86-1.58-3.88-3.58c-0.02-2,1.69-3.63,3.81-3.65
			C496.81,167.13,498.55,168.73,498.57,170.73z"/>
		<path class="st1" d="M542.03,170.3c0.02,2-1.69,3.64-3.81,3.66c-2.12,0.02-3.86-1.58-3.88-3.58c-0.02-2,1.69-3.63,3.81-3.65
			C540.27,166.7,542.01,168.3,542.03,170.3z"/>
	</g>
</g>
</svg>
