<?xml version="1.0" encoding="utf-8"?>
<!-- Generator: Adobe Illustrator 23.0.5, SVG Export Plug-In . SVG Version: 6.00 Build 0)  -->
<svg version="1.1" id="Layer_1" xmlns="http://www.w3.org/2000/svg" xmlns:xlink="http://www.w3.org/1999/xlink" x="0px" y="0px"
	 viewBox="0 0 883 355" style="enable-background:new 0 0 883 355;" xml:space="preserve">
<style type="text/css">
	.st0{fill:none;}
	.st1{fill:#1D4483;}
	.st2{fill:#F9C113;}
	.st3{fill:#F9C113;stroke:#1C4583;stroke-width:0.2;stroke-miterlimit:10;}
	.st4{opacity:0.6;fill:url(#SVGID_1_);}
</style>
<g>
	<path class="st0" d="M434.24,298.91c-3.84,0-6.95,3.11-6.95,6.95c0,3.84,3.11,6.95,6.95,6.95c3.84,0,6.95-3.11,6.95-6.95
		C441.19,302.02,438.08,298.91,434.24,298.91z"/>
	<rect x="384.69" y="144.69" class="st0" width="99.11" height="146.82"/>
	<path class="st1" d="M434.24,296.87c-2.45,0-4.67,0.99-6.27,2.59c-1.6,1.61-2.6,3.82-2.6,6.27c0,2.45,0.99,4.66,2.6,6.27
		c1.6,1.61,3.82,2.6,6.27,2.6c2.45,0,4.66-0.99,6.27-2.6c1.61-1.6,2.6-3.82,2.6-6.27c0-2.45-0.99-4.66-2.6-6.27
		C438.9,297.85,436.69,296.87,434.24,296.87z M434.24,312.81c-3.84,0-6.95-3.11-6.95-6.95c0-3.84,3.11-6.95,6.95-6.95
		c3.84,0,6.95,3.11,6.95,6.95C441.19,309.7,438.08,312.81,434.24,312.81z"/>
	<path class="st1" d="M487.06,122H381.42c-7.67,0-13.89,6.22-13.89,13.89v172.75c0,7.67,6.22,13.89,13.89,13.89h105.64
		c7.67,0,13.89-6.22,13.89-13.89V135.89C500.96,128.22,494.73,122,487.06,122z M434.24,126.68c1.07,0,1.94,0.87,1.94,1.94
		c0,1.08-0.87,1.95-1.94,1.95c-1.08,0-1.95-0.87-1.95-1.95C432.3,127.54,433.17,126.68,434.24,126.68z M426.96,134.53h14.57
		c1.07,0,1.94,0.87,1.94,1.94c0,1.07-0.87,1.94-1.94,1.94h-14.57c-1.07,0-1.94-0.87-1.94-1.94
		C425.02,135.4,425.89,134.53,426.96,134.53z M420.45,134.95c0.84,0,1.51,0.68,1.51,1.51c0,0.83-0.67,1.51-1.51,1.51
		c-0.84,0-1.51-0.68-1.51-1.51C418.94,135.63,419.61,134.95,420.45,134.95z M434.24,315.46c-5.37,0-9.73-4.35-9.73-9.72
		c0-5.38,4.36-9.73,9.73-9.73c5.37,0,9.73,4.36,9.73,9.73C443.97,311.1,439.62,315.46,434.24,315.46z M483.8,291.5h-99.11V144.69
		h99.11V291.5z"/>
	<rect x="383.89" y="144.57" class="st2" width="99.11" height="146.82"/>
	<circle class="st3" cx="493.75" cy="215.77" r="29.99"/>
	<g>
		<path class="st1" d="M492.25,197.32c-6.11,0.6-11.87,3.36-12.13,10.04c-0.29,7.51,5.97,9.71,12.13,11.21l0,8.33
			c-3.04-1.33-3.14-4.88-3.14-4.88l-10.36,1.17c0.8,7.27,7.07,9.96,13.5,10.38l0,2.78h2.16v-41.68h-2.16V197.32z M492.25,209.49
			c-0.21-0.09-0.41-0.18-0.6-0.27c-2.69-1.39-2.32-4.2,0.6-5.21L492.25,209.49z"/>
		<path class="st1" d="M508.07,215.76c-3.09-2.74-7.31-3.95-10.86-4.86v-6.74c2.12,1.01,2.55,3.09,2.55,3.09l10.07-1.66
			c-1.14-4.64-6.04-7.73-12.62-8.3l0-2.62h-1.74v41.68h1.75v-2.87c3.57-0.35,6.72-1.26,8.42-2.28
			C511.01,227.98,513.16,220.26,508.07,215.76z M497.22,227.17l0-7.24c2.47,0.85,3.33,1.67,3.73,3.07
			C501.42,224.67,500.21,226.53,497.22,227.17z"/>
	</g>
	<linearGradient id="SVGID_1_" gradientUnits="userSpaceOnUse" x1="383.1293" y1="217.2216" x2="482.0391" y2="217.2216">
		<stop  offset="0" style="stop-color:#D36127"/>
		<stop  offset="1" style="stop-color:#F9C113"/>
	</linearGradient>
	<path class="st4" d="M383.32,157.49c0-4.62,0.22-9.18,0.63-13.68h-0.82v146.82h98.91C425.55,277,383.32,222.59,383.32,157.49z"/>
</g>
</svg>
