<?xml version="1.0" encoding="utf-8"?>
<!-- Generator: Adobe Illustrator 23.0.5, SVG Export Plug-In . SVG Version: 6.00 Build 0)  -->
<svg version="1.1" id="Layer_1" xmlns="http://www.w3.org/2000/svg" xmlns:xlink="http://www.w3.org/1999/xlink" x="0px" y="0px"
	 viewBox="0 0 883 355" style="enable-background:new 0 0 883 355;" xml:space="preserve">
<style type="text/css">
	.st0{fill:#1D4483;}
	.st1{opacity:0.8;fill:url(#SVGID_1_);}
	.st2{fill:url(#SVGID_2_);}
</style>
<g>
	<path class="st0" d="M523.82,146.62c0-2.89-1.64-4.76-4.49-5.2c-1.07-0.17-2.18-0.18-3.27-0.18c-11.63-0.01-23.25-0.03-34.88,0.03
		c-1.41,0.01-2-0.39-2.41-1.76c-1.1-3.63-2.4-7.21-3.62-10.8c-1.42-2.7-3.8-2.94-6.56-2.92c-15.03,0.09-30.05,0.1-45.08-0.01
		c-2.61-0.02-4.51,0.64-5.77,2.93c-1.25,3.65-2.58,7.28-3.69,10.97c-0.4,1.34-1.04,1.62-2.3,1.6c-4.71-0.07-9.42,0-14.13-0.04
		c-1.48-0.01-3.44,0.66-4.31-0.33c-0.72-0.82-0.29-2.73-0.23-4.15c0.04-1.08-0.26-1.54-1.41-1.65c-3.2-0.31-6.4-0.19-9.61-0.12
		c-1.7,0.04-2.26,0.63-2.18,2.41c0.16,3.8,0.04,3.79-3.75,3.84c-2.39,0.03-4.78,0.12-6.45,2.26c-0.59,2.76-0.59,5.55-0.59,8.36
		c0.01,22,0.02,44,0,66.01c0,4.77,0.08,9.55,0.12,14.32c1.21,3.25,3.58,4.96,6.93,4.96c46.85,0,93.7,0,140.55,0.01
		c3.03,0,5.02-1.39,6.15-4.13c0.12-9.95,0.18-19.9,0.2-29.85c0,8.66,0.01,17.32,0.02,25.97c0,0.71-0.54,1.65,0.48,2.17
		c0.11-0.81,0.31-1.62,0.31-2.43C523.86,201.46,523.85,174.04,523.82,146.62z M446.47,227.53c-21.25,0-38.48-17.23-38.48-38.48
		s17.23-38.48,38.48-38.48c21.25,0,38.48,17.23,38.48,38.48S467.72,227.53,446.47,227.53z M522.69,146.19
		C522.68,146.19,522.68,146.19,522.69,146.19L522.69,146.19z M522.89,146.29c0-0.01,0-0.02,0-0.02c0.06,0.07,0.11,0.18,0.15,0.39
		c0,4.89,0,10.24,0,15.6c0,4.74,0,9.47,0,14.21C523.01,166.41,522.95,156.35,522.89,146.29z"/>
	<linearGradient id="SVGID_1_" gradientUnits="userSpaceOnUse" x1="419.0383" y1="179.0634" x2="473.9066" y2="199.0338">
		<stop  offset="0" style="stop-color:#F9C113"/>
		<stop  offset="1" style="stop-color:#D36127"/>
	</linearGradient>
	<circle class="st1" cx="446.47" cy="189.05" r="29.19"/>
	<linearGradient id="SVGID_2_" gradientUnits="userSpaceOnUse" x1="362.6668" y1="162.767" x2="429.8272" y2="187.2114">
		<stop  offset="0" style="stop-color:#0F1A2B"/>
		<stop  offset="1" style="stop-color:#1D4483"/>
	</linearGradient>
	<path class="st2" d="M377.65,212.8c2.85-10.67,14.61-9.7,19.53-20.06c4.83-10.16-3.51-17.32,1.58-23.75
		c3.63-4.59,9.25-2.68,17.5-3.77c6.11-7.73,15.11-13.06,25.38-14.34c3.26-4.02,4.97-8.19,4.1-11.45c-0.78-2.94-2.9-2.35-6.48-7.9
		c-0.69-1.08-2.02-3.14-3.06-5.7c-4.23-0.01-8.46-0.03-12.69-0.07c-2.61-0.02-4.51,0.64-5.77,2.93c-1.25,3.65-2.58,7.28-3.69,10.97
		c-0.4,1.34-1.04,1.62-2.3,1.6c-4.71-0.07-9.42,0-14.13-0.04c-1.48-0.01-3.44,0.66-4.31-0.33c-0.72-0.82-0.29-2.73-0.23-4.15
		c0.04-1.08-0.26-1.54-1.41-1.65c-3.2-0.31-6.4-0.19-9.61-0.12c-1.7,0.04-2.26,0.63-2.18,2.41c0.16,3.8,0.04,3.79-3.75,3.84
		c-2.39,0.03-4.78,0.12-6.45,2.26c-0.59,2.76-0.59,5.55-0.59,8.36c0.01,22,0.02,44,0,66.01c0,3.66,0.05,7.33,0.09,10.99
		c2.83-0.63,5.38-1.93,6.88-3.9C378.74,221.45,376.13,218.48,377.65,212.8z"/>
</g>
</svg>
