<?xml version="1.0" encoding="utf-8"?>
<!-- Generator: Adobe Illustrator 23.0.5, SVG Export Plug-In . SVG Version: 6.00 Build 0)  -->
<svg version="1.1" id="Layer_1" xmlns="http://www.w3.org/2000/svg" xmlns:xlink="http://www.w3.org/1999/xlink" x="0px" y="0px"
	 viewBox="0 0 883 355" style="enable-background:new 0 0 883 355;" xml:space="preserve">
<style type="text/css">
	.st0{fill:#1D4483;}
	.st1{fill:#F9C113;}
	.st2{opacity:0.8;fill:url(#SVGID_1_);}
</style>
<g>
	<polygon class="st0" points="335.53,247.96 315.36,265.23 577.59,265.23 558.12,247.96 551.86,247.96 568.37,262.23 324.39,262.23 
		341.48,247.96 	"/>
	<path class="st0" d="M313.23,294.89h266.3c8.62,0,15.62-6.98,15.62-15.61c0-6.29-3.74-11.68-9.09-14.16l-22.72-20.13
		c9.27-1.01,16.49-8.75,16.49-18.29V86.09c0-10.21-8.26-18.5-18.48-18.5H331.41c-10.22,0-18.48,8.29-18.48,18.5V226.7
		c0,9.8,7.62,17.71,17.24,18.37l-23.39,20.02c-2.7,1.23-4.99,3.19-6.6,5.65l-0.2,0.17h0.11c-1.54,2.42-2.47,5.28-2.47,8.38
		C297.61,287.91,304.61,294.89,313.23,294.89z M319.31,284.4c-1.7,0-3.06-1.38-3.06-3.08c0-1.7,1.36-3.08,3.06-3.08
		c1.71,0,3.09,1.38,3.09,3.08C322.4,283.03,321.02,284.4,319.31,284.4z M331.57,284.4c-1.7,0-3.07-1.38-3.07-3.08
		c0-1.7,1.38-3.08,3.07-3.08c1.69,0,3.08,1.38,3.08,3.08C334.65,283.03,333.26,284.4,331.57,284.4z M344.66,284.4
		c-1.69,0-3.06-1.38-3.06-3.08c0-1.7,1.37-3.08,3.06-3.08c1.71,0,3.08,1.38,3.08,3.08C347.75,283.03,346.37,284.4,344.66,284.4z
		 M457.42,284.4h-26.01c-1.68,0-3.06-1.38-3.06-3.08c0-1.7,1.37-3.08,3.06-3.08h26.01c1.7,0,3.1,1.38,3.1,3.08
		C460.52,283.03,459.12,284.4,457.42,284.4z M446.36,78.53c1.9,0,3.4,1.52,3.4,3.38c0,1.88-1.5,3.41-3.4,3.41
		c-1.86,0-3.36-1.52-3.36-3.41C443,80.06,444.5,78.53,446.36,78.53z M329.73,217.61V95.18h233.28v122.43H329.73z M335.53,247.96
		h5.95l-17.09,14.27h243.98l-16.51-14.27h6.26l19.48,17.27H315.36L335.53,247.96z"/>
	<rect x="329.73" y="95.18" class="st1" width="233.28" height="122.43"/>
	<linearGradient id="SVGID_1_" gradientUnits="userSpaceOnUse" x1="329.7346" y1="155.5844" x2="439.3521" y2="155.5844">
		<stop  offset="0" style="stop-color:#D36127"/>
		<stop  offset="1" style="stop-color:#F9C113"/>
	</linearGradient>
	<path class="st2" d="M368.33,175.19c-1.63-5.98,5.44-35.89-8.16-39.7c-12.25-3.43-12.58-27.61-30.44-40.32v120.82h109.58
		c0.17-2.28-0.21-4.47-1.37-6.54C423.8,184.44,369.96,181.18,368.33,175.19z"/>
</g>
</svg>
