<?xml version="1.0" encoding="utf-8"?>
<!-- Generator: Adobe Illustrator 23.0.5, SVG Export Plug-In . SVG Version: 6.00 Build 0)  -->
<svg version="1.1" id="Layer_1" xmlns="http://www.w3.org/2000/svg" xmlns:xlink="http://www.w3.org/1999/xlink" x="0px" y="0px"
	 viewBox="0 0 883 355" style="enable-background:new 0 0 883 355;" xml:space="preserve">
<style type="text/css">
	.st0{fill:url(#SVGID_1_);}
	.st1{opacity:0.8;fill:url(#SVGID_2_);}
	.st2{fill:url(#SVGID_3_);}
	.st3{opacity:0.8;fill:url(#SVGID_4_);}
	.st4{fill:url(#SVGID_5_);}
</style>
<g>
	<linearGradient id="SVGID_1_" gradientUnits="userSpaceOnUse" x1="357.6083" y1="191.0544" x2="475.821" y2="191.0544">
		<stop  offset="0" style="stop-color:#0F1A2B"/>
		<stop  offset="1" style="stop-color:#1D4483"/>
	</linearGradient>
	<path class="st0" d="M425.79,232.3c-2.05,6.63-3.03,13.31-2.94,20.2c0.01,0.78-0.61,1.42-1.39,1.42l-0.01,0
		c-16.26-0.01-32.53,0.01-48.79-0.05c-5.26-0.02-9.67-1.94-12.78-6.31c-1.51-2.12-2.26-4.69-2.27-7.3
		c-0.02-25.12-0.01-50.24,0-75.37c0-0.03,0-0.05,0-0.08c0.02-0.28,0.21-0.69,0.39-0.91c8.16-9.29,16.41-18.68,24.73-28.15
		c0.09-0.11,0.14-0.24,0.14-0.38l0,0c0-3.97,3.22-7.19,7.19-7.19h52.03c2.96,0,5.35,2.4,5.35,5.35l0,0c0,0.15,0.06,0.29,0.16,0.4
		c9.62,10.34,18.86,20.27,28.06,30.16c0.1,0.11,0.15,0.25,0.15,0.39l0,31.15c0,2.53-1.4,4.85-3.64,6.03
		c-3.61,1.9-7.24,3.8-10.98,5.76c-1.08,0.57-2.37-0.21-2.37-1.43l0-0.01c0-8.78-0.12-17.56,0.05-26.34c0.12-5.99-4.43-9.4-9.26-9.36
		c-9,0.07-18.01,0.1-27.01,0.1c-9.16,0-18.32-0.07-27.48-0.1c-4.52-0.01-9.04-0.09-13.55,0.05c-1.19,0.04-2.37,0.19-3.51,0.51
		c-4.32,1.2-6.37,4.01-6.36,8.07c0.05,14.05,0.13,28.1-0.04,42.14c-0.06,5.17,4.39,8.57,8.49,8.67c2.21,0.06,4.43,0.01,6.64,0.01
		c12.37,0,24.74,0,37.11,0h0.02C425.25,229.75,426.18,231.03,425.79,232.3z"/>
	<linearGradient id="SVGID_2_" gradientUnits="userSpaceOnUse" x1="427.3537" y1="236.6298" x2="534.6823" y2="236.6298">
		<stop  offset="0" style="stop-color:#D36127"/>
		<stop  offset="1" style="stop-color:#F9C113"/>
	</linearGradient>
	<path class="st1" d="M504.96,196.98c12.71,0.09,23.42,7.09,27.82,18.64c3.53,9.27,1.98,18.14-3.38,26.35
		c-3.56,5.45-8.53,9.26-14.46,11.88c-14.69,6.49-29.34,13.09-44.07,19.49c-8.72,3.79-17.63,4-26.42,0.19
		c-15.41-6.67-21.51-24.24-13.7-39.29c3.42-6.6,8.6-11.44,15.35-14.47c15.13-6.8,30.31-13.5,45.5-20.18
		C495.84,197.74,500.33,196.94,504.96,196.98z M471.13,215.06c-0.59,0.24-0.94,0.36-1.28,0.51c-6.89,3.04-13.8,6.06-20.67,9.15
		c-5.99,2.69-10.5,6.93-13.39,12.87c-4.68,9.63-1.99,21.3,6.61,27.68c8.13,6.02,16.96,6.6,26.16,2.74c5.33-2.24,10.58-4.65,15.87-7
		c2-0.89,3.99-1.8,6.21-2.8C484.1,243.75,477.63,229.44,471.13,215.06z"/>
	<linearGradient id="SVGID_3_" gradientUnits="userSpaceOnUse" x1="371.7432" y1="105.7785" x2="458.8322" y2="105.7785">
		<stop  offset="0" style="stop-color:#0F1A2B"/>
		<stop  offset="1" style="stop-color:#1D4483"/>
	</linearGradient>
	<path class="st2" d="M415.33,86.32c11.37,0,22.75,0,34.12,0c6,0,9.37,3.35,9.38,9.33c0.01,6.72,0.01,13.44,0,20.15
		c-0.01,5.59-2.9,8.8-8.47,9.38c-0.61,0.06-1.22,0.06-1.83,0.06c-22.21,0.01-44.43,0.01-66.64,0.01c-2.41,0-4.72-0.32-6.72-1.79
		c-2.24-1.64-3.41-3.8-3.39-6.63c0.03-7.25,0.13-14.51-0.03-21.76c-0.12-5.82,4.64-8.8,8.77-8.78c8.55,0.05,17.1,0.01,25.65,0.01
		C409.22,86.31,412.27,86.31,415.33,86.32z"/>
	<linearGradient id="SVGID_4_" gradientUnits="userSpaceOnUse" x1="393.7314" y1="199.8454" x2="435.6831" y2="199.8454">
		<stop  offset="0" style="stop-color:#D36127"/>
		<stop  offset="1" style="stop-color:#F9C113"/>
	</linearGradient>
	<path class="st3" d="M407.83,221.82c0-4.9,0-9.61,0-14.51c-4.73,0-9.27,0-14.09,0c0-4.92,0-9.66,0-14.62c4.49,0,9.04,0,13.77,0
		c0-4.97,0-9.73,0-14.82c4.68,0,9.17,0,14,0c0,4.74,0,9.64,0,14.66c4.88,0,9.42,0,14.18,0c0,4.75,0,9.38,0,14.32
		c-4.45,0-9.05,0-13.89,0c0,5.14,0,9.98,0,14.97C417.04,221.82,412.54,221.82,407.83,221.82z"/>
	<linearGradient id="SVGID_5_" gradientUnits="userSpaceOnUse" x1="433.5106" y1="242.7576" x2="490.6285" y2="242.7576">
		<stop  offset="0" style="stop-color:#0F1A2B"/>
		<stop  offset="1" style="stop-color:#1D4483"/>
	</linearGradient>
	<path class="st4" d="M471.13,215.06c6.5,14.38,12.96,28.69,19.49,43.15c-2.22,1-4.21,1.92-6.21,2.8c-5.28,2.34-10.54,4.76-15.87,7
		c-9.19,3.86-18.03,3.28-26.16-2.74c-8.6-6.38-11.29-18.05-6.61-27.68c2.89-5.94,7.4-10.19,13.39-12.87
		c6.88-3.08,13.78-6.1,20.67-9.15C470.2,215.42,470.55,215.3,471.13,215.06z"/>
</g>
</svg>
