<?xml version="1.0" encoding="utf-8"?>
<!-- Generator: Adobe Illustrator 23.0.5, SVG Export Plug-In . SVG Version: 6.00 Build 0)  -->
<svg version="1.1" id="Layer_1" xmlns="http://www.w3.org/2000/svg" xmlns:xlink="http://www.w3.org/1999/xlink" x="0px" y="0px"
	 viewBox="0 0 883 355" style="enable-background:new 0 0 883 355;" xml:space="preserve">
<style type="text/css">
	.st0{fill:#122448;}
	.st1{fill:#F9C113;}
	.st2{fill:#1D4483;}
	.st3{fill:url(#SVGID_1_);}
</style>
<g>
	<path class="st0" d="M446.35,142.19c36,0,71.99,0.02,107.99-0.05c2.63-0.01,3.07,0.53,3.06,2.27c-0.12,11.55-0.1,23.1-0.01,34.66
		c0.01,1.54-0.54,1.97-2.73,1.97c-72.17-0.04-144.34-0.04-216.5,0c-2.11,0-2.8-0.31-2.79-1.92c0.1-11.68,0.1-23.35,0-35.03
		c-0.01-1.58,0.59-1.92,2.73-1.92C374.18,142.21,410.26,142.19,446.35,142.19z"/>
	<path class="st1" d="M507.16,102.87c-0.65-5.43-4.43-9.54-11.34-11.96c-6.4-2.25-11.67-0.09-16.64,2.54
		c-6.32,3.35-10.97,7.84-15.8,12.19c-6.25,5.62-11.46,11.74-16.19,18.19c-0.45-0.55-0.83-0.97-1.15-1.4
		c-6.46-8.84-14.54-16.87-23.84-24.28c-3.75-3-7.93-5.62-13.13-7.29c-3.96-1.28-7.79-1.07-11.56,0.38
		c-8.09,3.12-12.23,9.99-10.14,17.43c3.83,13.58,14.39,23.7,31.33,30.41c5.34,2.12,10.89,3.3,17.19,3.1
		c9.16-0.29,18.34-0.09,27.51-0.06c1.51,0,2.94-0.14,4.34-0.52c12.98-3.51,23.43-9.3,30.77-17.77
		C504.06,117.42,508.09,110.62,507.16,102.87z M402.53,108.83c-0.47-1.23-0.28-2.6-0.3-3.91c-0.01-0.87-0.06-1.92,1.28-2.27
		c1.33-0.35,2.26,0.49,3.08,1.1c2.35,1.76,4.66,3.55,6.89,5.39c8.62,7.09,15.55,14.98,21.6,23.83
		C417.48,129.08,407.11,120.91,402.53,108.83z M490.45,110.19c-5.49,10.83-15.27,18.53-31.77,21.93
		c6.66-9.83,14.66-18.53,24.66-26.28c1.48-1.15,2.99-2.28,4.54-3.37c0.61-0.43,1.38-0.9,2.31-0.64c1.01,0.28,1.19,1.03,1.27,1.72
		C491.71,105.8,491.54,108.05,490.45,110.19z"/>
	<path class="st2" d="M349.3,180.96c0,29.22,0.03,58.43-0.05,87.65c0,1.77,0.51,2.25,3.09,2.24c63.15-0.06,126.3-0.06,189.45,0
		c2.57,0,3.1-0.46,3.1-2.24c-0.08-29.22-0.04-58.43-0.04-87.65C479.67,180.96,414.48,180.96,349.3,180.96z"/>
	<linearGradient id="SVGID_1_" gradientUnits="userSpaceOnUse" x1="349.3369" y1="225.9055" x2="485.1587" y2="225.9055">
		<stop  offset="0" style="stop-color:#0F1A2B"/>
		<stop  offset="1" style="stop-color:#1D4483"/>
	</linearGradient>
	<path class="st3" d="M349.34,268.61c0,1.77,0.51,2.25,3.09,2.24c44.24-0.04,88.49-0.04,132.74-0.03
		c-12.25-2.57-41.85-2.2-50.97-14.98c-4.63-6.49,0.79-9.69-4.79-19.41c-7.46-12.99-24.26-19.84-26.36-20.56
		c-13.61-4.63-27.83-3.35-38.75-12.28c-3.09-2.53-4.92-5.06-5.99-6.57c-4.24-5.95-5.48-11.71-5.7-16.08c-1.07,0-2.14,0-3.2,0
		C349.39,210.17,349.42,239.39,349.34,268.61z"/>
	<rect x="437.3" y="142.14" class="st1" width="21.39" height="130.71"/>
</g>
</svg>
