<?xml version="1.0" encoding="utf-8"?>
<!-- Generator: Adobe Illustrator 23.0.5, SVG Export Plug-In . SVG Version: 6.00 Build 0)  -->
<svg version="1.1" id="Layer_1" xmlns="http://www.w3.org/2000/svg" xmlns:xlink="http://www.w3.org/1999/xlink" x="0px" y="0px"
	 viewBox="0 0 883 355" style="enable-background:new 0 0 883 355;" xml:space="preserve">
<style type="text/css">
	.st0{fill:#1B4583;}
	.st1{fill:#199FB7;}
	.st2{fill:url(#SVGID_1_);}
	.st3{fill:url(#SVGID_2_);}
	.st4{fill:#F5B51A;}
</style>
<g>
	<path class="st0" d="M368.58,146.17v23.1v27.98v0v34.56h0c0,0,0,0,0,0c0,9.8,34.45,17.75,76.96,17.75
		c42.5,0,76.96-7.94,76.96-17.75c0,0,0,0,0,0h0v-34.56v0v-27.98v-23.1H368.58z"/>
	<polygon class="st1" points="587.04,157.9 446.04,113.43 305.03,157.9 446.04,202.38 446.04,202.38 	"/>
	<linearGradient id="SVGID_1_" gradientUnits="userSpaceOnUse" x1="304.5297" y1="164.678" x2="445.1216" y2="164.678">
		<stop  offset="0" style="stop-color:#1B4583"/>
		<stop  offset="1" style="stop-color:#379CD7"/>
	</linearGradient>
	<path class="st2" d="M445.07,202.23c0.19-2.5-0.16-4.91-1.42-6.95c-3.98-6.4-13.88-3.98-23.62-13.68
		c-2.92-2.9-7.15-7.11-6.22-11.19c1.43-6.27,14.31-3.43,22.1-13.46c4.34-5.59,10.29-16.8,6.5-21.35c-5.21-6.25-22.46,7.62-34.81,0
		c-3.7-2.29-4.69-5.1-5.48-8.48l-97.58,30.77L445.07,202.23z"/>
	<linearGradient id="SVGID_2_" gradientUnits="userSpaceOnUse" x1="522.4954" y1="208.9875" x2="547.1401" y2="208.9875">
		<stop  offset="0" style="stop-color:#FDDB0E"/>
		<stop  offset="1" style="stop-color:#F89920"/>
	</linearGradient>
	<path class="st3" d="M547.14,246.18c-1.26-12.71-7.21-21.46-7.21-21.46v-52.45h-5.02v-0.47h-5.18v52.45c0,0-5.97,8.74-7.23,21.46
		h12.24v0.47H547.14z"/>
	<path class="st4" d="M464.63,152.04c0,3.24-8.33,5.87-18.6,5.87c-10.27,0-18.59-2.63-18.59-5.87
		C427.44,139.9,464.63,139.75,464.63,152.04z"/>
	<polygon class="st4" points="529.72,175.83 449.2,155.62 456.92,151.74 540.09,172.55 	"/>
</g>
</svg>
